<?xml version="1.0" standalone="no"?>
<!DOCTYPE svg PUBLIC "-//W3C//DTD SVG 1.1//EN" "http://www.w3.org/Graphics/SVG/1.1/DTD/svg11.dtd" >
<svg xmlns="http://www.w3.org/2000/svg" xmlns:xlink="http://www.w3.org/1999/xlink" version="1.1">
<metadata></metadata>
<defs>
<font id="loraitalic" horiz-adv-x="530" >
<font-face units-per-em="1000" ascent="800" descent="-200" />
<missing-glyph horiz-adv-x="263" />
<glyph unicode="&#xfb01;" horiz-adv-x="643" d="M-125 -219q0 8 4 17.5t13 17t24 6.5t26 -10t11 -25q0 -3 -2 -11q8 -4 15 -6t19 -2q24 0 39.5 17.5t25 47.5t15 69t10.5 81q5 54 9.5 116t8.5 125.5t8 123t10 110.5l-87 -1l5 43h87q21 131 77 194t159 66q36 0 67.5 -10t55.5 -26.5t37 -37t12 -42.5q0 -15 -7 -25.5 t-17.5 -15.5t-22.5 -4q-18 2 -28 12.5t-12 23.5q-2 17 6 37q-6 26 -38 42.5t-68 14.5q-47 -1 -77 -24.5t-45.5 -73.5t-21.5 -131h142l-3 -39l-142 -2q-6 -90 -11 -164t-9.5 -132t-8 -101.5t-8.5 -72.5q-11 -71 -33.5 -130.5t-62.5 -94.5t-104 -35q-38 0 -58 13.5t-20 38.5z M327 370q3 18 12 41.5t24.5 46.5t37.5 38t52 15q42 0 63 -28.5t21 -75.5q0 -30 -5.5 -68.5t-13.5 -82.5t-13.5 -88.5t-5.5 -86.5q0 -20 7.5 -31t23.5 -11q17 0 37.5 22t35.5 75l28 -6q-4 -21 -13.5 -45.5t-24.5 -46t-36.5 -35.5t-49.5 -14q-46 0 -68 24t-22 70q0 44 6 85.5 t13.5 82t13.5 81.5t6 84q0 13 -5.5 29t-22.5 16q-16 0 -37 -22t-36 -75z" />
<glyph unicode="&#xfb02;" horiz-adv-x="611" d="M-125 -219q0 11 9.5 26.5t31.5 14.5q15 -1 25.5 -10t10.5 -24q0 -3 -0.5 -6t-1.5 -6q19 -8 35 -8q24 0 40 18t25.5 50t15.5 72.5t10 85.5q5 54 9 114t7.5 122t8 120.5t10.5 107.5l-87 -1l5 43h87q22 132 76.5 196t149.5 64q38 0 68 -9t58 -9q12 0 23.5 3t22.5 10h29 q-12 -77 -25 -168t-23.5 -183t-17 -173t-6.5 -140q0 -19 4.5 -35.5t23.5 -16.5q17 0 37 21.5t35 75.5l29 -7q-3 -17 -12.5 -41t-25.5 -46.5t-39 -37.5t-53 -15q-40 0 -59.5 20.5t-20.5 60.5q-1 28 3 85t11 130.5t16 151.5t18 148q3 28 6.5 53.5t6.5 47.5q-14 14 -47 27.5 t-67 14.5q-46 1 -76 -22.5t-46 -74t-22 -131.5h142l-3 -39l-142 -2q-7 -101 -12.5 -179t-9.5 -134.5t-7.5 -94.5t-6.5 -59q-10 -72 -31.5 -131.5t-62 -95.5t-107.5 -36q-38 0 -58 15t-20 37z" />
<glyph horiz-adv-x="0" />
<glyph horiz-adv-x="333" />
<glyph unicode="&#xd;" horiz-adv-x="263" />
<glyph unicode=" "  horiz-adv-x="263" />
<glyph unicode="&#x09;" horiz-adv-x="263" />
<glyph unicode="&#xa0;" horiz-adv-x="263" />
<glyph unicode="!" horiz-adv-x="272" d="M67 48q2 27 20.5 46t41.5 19q25 0 41 -19t14 -46q-1 -27 -20.5 -45.5t-42.5 -18.5t-39 18.5t-15 45.5zM101 643q-1 26 14 49.5t46 23.5q22 0 34 -11t16 -27.5t1 -34.5l-59 -413h-37z" />
<glyph unicode="&#x22;" horiz-adv-x="356" d="M79 491l5 225h79l-22 -225h-62zM242 491l6 225h78l-22 -225h-62z" />
<glyph unicode="#" horiz-adv-x="808" d="M26 178l16 60h164l54 231h-168l16 60h166l41 171h66l-39 -171h212l41 171h66l-39 -171h167v-1l-15 -59h-166l-52 -231h167l-16 -60h-165l-40 -178h-72l42 178h-210l-40 -178h-72l42 178h-166zM275 238h211l54 231h-212z" />
<glyph unicode="$" horiz-adv-x="529" d="M40 -13l11 213h35q1 -92 48 -134.5t126 -42.5q59 0 98.5 35t41.5 90q2 44 -19.5 74.5t-56.5 54t-76 44.5q-34 19 -68 39t-61.5 45t-43 58t-13.5 78q1 24 11.5 53t33.5 55.5t60.5 45t92.5 21.5l6 117h54l-7 -118q28 -4 55 -14.5t53 -29.5l-1 45h50l-12 -218h-37 q0 48 -13 88.5t-45 65.5t-91 25q-42 0 -70.5 -17.5t-43 -44.5t-15.5 -57q0 -40 20.5 -69t54 -51.5t72.5 -44.5q36 -19 71.5 -39.5t64.5 -46t45 -59t14 -78.5q-2 -46 -25.5 -87t-68 -67.5t-110.5 -31.5l-8 -137h-52l6 137q-31 2 -68 10t-68 25l3 -32h-54z" />
<glyph unicode="%" horiz-adv-x="873" d="M51 522q3 47 26 91t65 73t100 30q62 2 101.5 -25t57.5 -70t15 -89q-2 -51 -29.5 -96t-70.5 -73t-94 -28q-59 0 -98 27t-57 69.5t-16 90.5zM114 22l595 694l44 -42l-600 -690zM138 537q-2 -24 0.5 -52.5t12.5 -53.5t28 -41.5t48 -16.5q27 0 46 13t31 34t18 46t7 48 q2 25 -1.5 53.5t-13 54t-27.5 41.5t-46 16t-47.5 -14.5t-31.5 -37t-17.5 -47t-6.5 -43.5zM466 171q3 47 26 91t65 73t100 30q62 1 101 -26t57 -70t16 -89q-2 -51 -29.5 -96t-70.5 -72.5t-94 -27.5q-59 0 -98 27t-57 69.5t-16 90.5zM553 185q-1 -24 1.5 -52.5t12 -53.5 t27.5 -41.5t48 -16.5q37 0 58.5 22.5t32 55t11.5 63.5q2 25 -1.5 53.5t-13 54t-27.5 41.5t-46 16t-47.5 -15t-31 -37.5t-17.5 -46.5t-7 -43z" />
<glyph unicode="&#x26;" horiz-adv-x="683" d="M34 185q3 47 24.5 89.5t63 72.5t101.5 38q-84 18 -112.5 58.5t-24.5 92.5q4 56 34 96.5t78.5 62t108.5 21.5q54 0 92.5 -16t59 -41t20.5 -54q0 -18 -10.5 -32t-30.5 -15q-16 -1 -29 9t-13 27q-1 8 1.5 17t6.5 16q-4 21 -30 37.5t-64 16.5q-42 0 -71.5 -19t-46 -50 t-18.5 -68q-1 -18 2.5 -42t16 -47t38 -38.5t67.5 -15.5h26t14 1l-2 -44l-38 1q-48 0 -80 -16t-51 -40.5t-28 -51t-10 -46.5q-3 -60 23.5 -98.5t67 -57t79.5 -18.5q78 0 126 29.5t70 78t22 104.5h-47t-41.5 -7t-47.5 -28l-20 20q23 34 46 50.5t53 22.5t72 6q40 0 72.5 5.5 t64.5 36.5l22 -17q-16 -24 -31 -42.5t-37.5 -29.5t-62.5 -15q1 -40 -12 -85.5t-44 -85.5t-84 -65t-134 -25q-73 0 -131.5 22t-91 66.5t-29.5 112.5z" />
<glyph unicode="'" horiz-adv-x="199" d="M79 491l5 225h84l-22 -225h-67z" />
<glyph unicode="(" horiz-adv-x="298" d="M30 239q5 83 30 162t63 148t80 123t81 88l23 -23q-33 -41 -60 -86.5t-48 -94t-36.5 -100.5t-24.5 -106.5t-12 -110.5t0.5 -109.5t13.5 -103.5t26.5 -97.5t39 -91.5t51.5 -85l-26 -23q-36 34 -72.5 86.5t-67 119.5t-48 144t-13.5 160z" />
<glyph unicode=")" horiz-adv-x="298" d="M-16 -248q33 41 60 86.5t48 94t36.5 100.5t24.5 106.5t12 110.5t-0.5 109.5t-13.5 103.5t-26.5 97.5t-39 91.5t-51.5 85l26 23q36 -34 72.5 -86.5t67 -119.5t48 -144t13.5 -160t-29.5 -162t-63.5 -148t-80 -123t-81 -88z" />
<glyph unicode="*" horiz-adv-x="513" d="M56 559q10 23 35 21.5t47 -12.5q30 -14 61.5 -30t56.5 -30q-5 29 -8 65.5t-5 70.5q-1 16 1.5 32.5t11 28t25.5 11.5t24 -11.5t8 -28t-2 -32.5q-6 -34 -12.5 -70.5t-14.5 -65.5q27 15 60 30t64 30q15 8 32.5 11.5t31.5 0t18 -19.5q7 -25 -14 -38.5t-46 -18.5 q-33 -6 -69.5 -12.5t-68.5 -10.5q21 -19 45 -44t46 -50q10 -11 18 -27.5t7.5 -31.5t-14.5 -25q-21 -14 -38 1t-29 35q-14 29 -30.5 63t-27.5 62q-15 -28 -35 -62t-37 -63q-13 -20 -33 -34t-39 -1q-12 9 -10.5 24t11 31t20.5 28q24 25 49 49t50 45q-31 6 -67 12t-68 11 q-16 4 -31 10.5t-22.5 18t-0.5 27.5z" />
<glyph unicode="+" d="M46 340l3 50h446l-3 -50h-446zM233 137l24 446h50l-24 -446h-50z" />
<glyph unicode="," horiz-adv-x="237" d="M43 42q0 27 16.5 41.5t39.5 14.5q30 0 47 -22t17 -56q0 -25 -9 -59.5t-27 -71.5t-46 -68l-25 20q17 20 29.5 47t19.5 56.5t7 55.5q-5 -1 -11 -2.5t-14 -1.5q-19 0 -31.5 14t-12.5 32z" />
<glyph unicode="-" horiz-adv-x="483" d="M63 287l3 66h355l-3 -62z" />
<glyph unicode="." horiz-adv-x="232" d="M43 47q2 26 20.5 44.5t41.5 18.5q24 0 39 -18.5t13 -44.5q-1 -27 -19 -45t-41 -18t-39 18t-15 45z" />
<glyph unicode="/" horiz-adv-x="654" d="M-18 -238l625 998l55 -37l-633 -994z" />
<glyph unicode="0" horiz-adv-x="597" d="M55 350q3 63 19.5 127.5t48 118.5t80.5 87t117 33q71 0 117 -33t72 -87.5t35 -118.5t6 -127q-3 -62 -19.5 -126.5t-47.5 -119t-79.5 -87.5t-116.5 -33q-75 0 -122 33t-72 87.5t-33 118.5t-5 127zM150.5 279q1.5 -47 9.5 -92.5t24 -82.5t42 -59t65 -22q43 0 72.5 27t48 72 t28.5 99.5t13 109.5q3 61 -0.5 122t-17.5 112t-41.5 82t-71.5 31q-43 0 -74 -27t-51.5 -72t-31.5 -100t-14 -111q-2 -42 -0.5 -89z" />
<glyph unicode="1" horiz-adv-x="354" d="M31 572l195 144h34l-31 -607q-1 -19 -2 -37t-4 -32l42 2l42 2l-2 -44h-248l1 33q35 2 54.5 16t28.5 39t10 59l20 472l-122 -77z" />
<glyph unicode="2" horiz-adv-x="525" d="M27 0q3 53 21.5 94t48 76t66.5 67.5t77 67.5q58 53 96.5 110.5t40.5 106.5q2 41 -8 76.5t-36 57t-74 21.5q-41 0 -74 -20.5t-46 -50.5q9 -10 12 -21.5t3 -21.5q0 -18 -12.5 -32.5t-34.5 -14.5q-20 0 -33.5 14t-13.5 36q0 24 14.5 50t42.5 49t68 37t92 14q40 0 76.5 -9.5 t64.5 -30.5t43.5 -55.5t12.5 -85.5q-1 -25 -13 -54.5t-36 -62.5t-62.5 -71t-94.5 -81q-71 -54 -115.5 -101t-55.5 -91l174 -5q49 -1 87 0t60 15.5t24 53.5h31l-14 -138h-432z" />
<glyph unicode="3" horiz-adv-x="545" d="M31 128q2 23 15.5 36t33.5 13q14 0 24 -6.5t15.5 -16.5t5.5 -22q0 -9 -3 -20t-11 -20q9 -34 44.5 -49.5t74.5 -15.5q75 0 118 43.5t47 117.5q1 22 -3 49.5t-18 53t-41.5 42t-74.5 16.5q-20 0 -35 -0.5t-31 -1.5l2 45h21h20q53 0 84.5 24t46.5 56.5t16 59.5q2 41 -7 74 t-35 52t-74 19q-31 0 -57.5 -12t-43.5 -29t-21 -34q8 -10 10 -20.5t2 -18.5q0 -11 -5.5 -21t-15 -16t-22.5 -6q-19 0 -31.5 12.5t-12.5 33.5q0 30 24.5 65t72 60t116.5 25q53 0 98.5 -17t72.5 -55t23 -101q-1 -32 -19.5 -65t-55.5 -60.5t-95 -41.5q96 -8 144 -59t44 -122 q-3 -68 -41 -115t-96 -71.5t-121 -24.5q-72 0 -118.5 22.5t-67.5 56t-19 65.5z" />
<glyph unicode="4" horiz-adv-x="527" d="M3 193l2 49l374 474h34l-20 -466l100 -1l-3 -56h-99l-4 -84q-1 -20 -2.5 -38t-6.5 -33l79 3l-3 -41h-243l2 33q33 2 53 14t29.5 39t11.5 73l2 34h-306zM68 255l244 -4l17 326h-2z" />
<glyph unicode="5" horiz-adv-x="523" d="M36 128q2 23 16 36t33 13q14 0 24 -6t15.5 -16t5.5 -22q0 -9 -3 -20.5t-11 -20.5q1 -25 19 -40.5t44 -22.5t49 -6q49 3 81.5 27t49.5 61.5t18 79.5q2 28 -1.5 62t-17.5 65t-44.5 51t-83.5 20q-25 0 -57.5 -7.5t-62.5 -26.5l-27 25l26 320h244q56 0 80 15.5t25 49.5h26 l-15 -129l-319 -7l-23 -221q23 10 58.5 18t78.5 8q62 0 103.5 -19.5t66 -52.5t34.5 -72.5t8 -80.5q-4 -74 -40 -124t-92.5 -75.5t-121.5 -25.5q-64 0 -106.5 22t-62.5 55t-17 67z" />
<glyph unicode="6" horiz-adv-x="554" d="M55 330q2 36 10.5 85t26 101t48.5 97t79 73.5t116 29.5q60 1 97.5 -19.5t55 -50t15.5 -55.5q-1 -21 -14 -34t-32 -13q-21 0 -32.5 13t-11.5 30q0 8 3 19t10 19q-4 17 -27 36t-64 17q-46 -1 -78 -25t-53 -62.5t-33 -82.5t-18.5 -84.5t-8.5 -69.5q18 22 42 41t55.5 30.5 t68.5 11.5q60 0 99 -20.5t60.5 -53.5t29 -72.5t5.5 -77.5q-3 -62 -34.5 -114.5t-84.5 -83.5t-120 -31q-85 0 -133.5 42.5t-66 120t-10.5 183.5zM139 281q-1 -47 4.5 -93t19.5 -83.5t39 -59.5t64 -22q47 0 78.5 23.5t47.5 62t18 82.5q2 28 -1 62.5t-14.5 66.5t-36 52.5 t-66.5 20.5q-31 0 -62.5 -16t-55.5 -41.5t-35 -54.5z" />
<glyph unicode="7" horiz-adv-x="452" d="M32 558l7 142h419l-3 -66q-40 -75 -70 -143.5t-54.5 -137t-47.5 -144t-50 -163.5q-7 -25 -20 -44t-37 -18q-19 2 -27 14.5t-7 30.5q1 22 14.5 57t31.5 74t33 72q22 47 52 114.5t65.5 142.5t70.5 144l-264 -1q-40 -1 -63.5 -17t-25.5 -57h-24z" />
<glyph unicode="8" horiz-adv-x="564" d="M57 152q3 44 25 82t57.5 70.5t76.5 56.5q-67 41 -99.5 85.5t-30.5 87.5q3 47 22.5 81.5t51 56.5t69 33t75.5 11q51 0 95 -18t71 -53.5t24 -87.5q-2 -37 -22.5 -71t-52.5 -61.5t-68 -46.5q32 -19 60 -42t49 -50t32.5 -56.5t9.5 -62.5q-3 -63 -36 -103.5t-84.5 -60 t-110.5 -19.5q-42 0 -81.5 8.5t-70 28t-47.5 52t-15 79.5zM140 166q-4 -68 32 -105t103 -37q57 0 94 35t41 89q3 38 -5.5 62.5t-29 44t-52 39.5t-73.5 48q-59 -40 -83.5 -89t-26.5 -87zM174 556q-2 -31 13 -60t47 -53.5t81 -45.5q48 32 75 73.5t28 75.5q4 64 -28.5 97.5 t-85.5 33.5q-39 0 -68 -17.5t-44.5 -45t-17.5 -58.5z" />
<glyph unicode="9" horiz-adv-x="552" d="M58 488q4 63 32 115t79 83.5t123 29.5q66 -1 109 -29t66 -77t31 -112.5t5 -135.5q-2 -44 -9 -95t-24 -101t-47 -91t-76.5 -66t-113.5 -25q-61 0 -99.5 20.5t-56 52t-15.5 62.5q2 21 15.5 34t32.5 13q20 0 31.5 -13t11.5 -30q0 -9 -4.5 -21t-12.5 -19q6 -19 26.5 -40 t69.5 -21q45 0 76 22.5t51.5 59.5t32.5 81t17.5 86.5t6.5 76.5q-26 -33 -68 -58.5t-101 -25.5q-60 0 -98 20.5t-58.5 53.5t-27.5 72.5t-5 77.5zM149 510q-1 -28 2 -62.5t15 -66t37 -52t67 -20.5q31 0 60.5 15t52.5 39.5t34 52.5q0 50 -6 97t-20.5 84t-40.5 59t-67 22 q-43 0 -72 -23.5t-44.5 -62t-17.5 -82.5z" />
<glyph unicode=":" horiz-adv-x="250" d="M59 47q2 26 20.5 44.5t41.5 18.5q24 0 39 -18.5t13 -44.5q-1 -27 -19 -45t-41 -18t-39 18t-15 45zM74 453q2 26 20.5 44.5t41.5 18.5q24 0 39 -18.5t13 -44.5q-1 -27 -19 -45t-41 -18t-39 18t-15 45z" />
<glyph unicode=";" horiz-adv-x="271" d="M68 42q0 27 16.5 41.5t39.5 14.5q30 0 47 -22t17 -56q0 -25 -9 -59.5t-27 -71.5t-46 -68l-25 20q17 20 29.5 47t19.5 56.5t7 55.5q-5 -1 -11 -2.5t-14 -1.5q-19 0 -31.5 14t-12.5 32zM81 453q2 26 20.5 44.5t41.5 18.5q24 0 39 -18.5t13 -44.5q-1 -27 -19 -45t-41 -18 t-39 18t-15 45z" />
<glyph unicode="&#x3c;" d="M44 279l4 67l455 198l-3 -62l-386 -166l368 -167l-3 -64z" />
<glyph unicode="=" d="M42 265l2 50h446l-2 -50h-446zM50 415l2 50h446l-2 -50h-446z" />
<glyph unicode="&#x3e;" d="M33 85l3 62l386 166l-368 167l3 64l435 -194l-4 -67z" />
<glyph unicode="?" horiz-adv-x="473" d="M51 572q0 30 26 63.5t73 57t110 23.5q77 0 119.5 -26t57.5 -66t10 -82q-4 -41 -28.5 -74.5t-58.5 -61.5t-67 -52t-55.5 -45.5t-23.5 -41.5q-1 -12 7.5 -22.5t31.5 -10.5q8 0 18.5 1.5t20.5 5.5l10 -35q-16 -10 -37 -14t-43 -4q-12 0 -30.5 6.5t-32 21.5t-13.5 39 q2 22 15.5 40.5t35 37t44.5 37.5q27 22 52.5 47t43 56t20.5 71q3 37 -6.5 67t-35 48t-72.5 18q-29 0 -54 -11t-41 -27t-20 -32q9 -7 12 -18.5t3 -20.5q0 -12 -5.5 -22t-15.5 -16.5t-24 -6.5q-20 0 -33.5 13.5t-13.5 35.5zM164 43q2 24 19.5 41.5t38.5 17.5q23 0 37.5 -17.5 t12.5 -41.5q-1 -25 -17.5 -42t-39.5 -17q-21 0 -36.5 15.5t-14.5 43.5z" />
<glyph unicode="@" horiz-adv-x="792" d="M43 257q3 63 27 127.5t69.5 120t113 91t157.5 40.5q89 5 154.5 -21t107.5 -73t61.5 -105.5t16.5 -118.5q-4 -79 -29.5 -130t-61.5 -79t-71.5 -37.5t-60.5 -5.5q-34 6 -50 23.5t-18.5 42t2 53.5t10.5 58q-34 -91 -74.5 -132t-87.5 -41q-43 0 -71.5 33t-24.5 106 q3 55 20 104t48 87t75.5 60t101.5 22q23 0 51.5 -3t53.5 -10q-6 -34 -12.5 -69t-12.5 -68t-11 -63t-8 -55q-5 -39 1 -73.5t32 -40.5q21 -4 42 6t39.5 33.5t31 58.5t16.5 79q9 121 -27.5 193t-103.5 102.5t-150 23.5q-62 -5 -112.5 -33.5t-88 -74.5t-59 -104t-24.5 -121 q-4 -81 17.5 -140.5t61.5 -98t92 -57.5t107 -21q34 -1 76 5.5t85.5 27.5t79.5 62l23 -25q-51 -55 -118.5 -82t-146.5 -29q-93 -2 -160.5 25.5t-111 76.5t-63 113.5t-15.5 136.5zM280 218q-3 -50 9.5 -80t37.5 -30q27 0 55 32t52 83t40 109.5t19 110.5q-10 5 -25.5 7t-34.5 2 q-36 0 -63.5 -21.5t-47 -56t-30 -76t-12.5 -80.5z" />
<glyph unicode="A" horiz-adv-x="631" d="M-14 0l1 33q25 1 43 16.5t33 43.5t30 65l226 561h22l191 -569q8 -21 16 -54q6 -26 5 -46v-10l65 4l-2 -44h-217l1 33q38 1 50 17q10 14 10 32v6q-2 22 -8 40l-29 94l-256 -6l-40 -107q-9 -24 -15.5 -38t-15.5 -31l75 4l-2 -44h-183zM183 259h229l-65 200q-10 30 -19.5 60 t-20.5 61l-22 -56l-22 -56z" />
<glyph unicode="B" horiz-adv-x="619" d="M40 0l2 33q38 1 53 17.5t18 45t5 65.5l22 420q1 27 3 46.5t4 32.5q-18 -1 -36.5 -2t-36.5 -2l3 44q55 0 109 1t114 1q116 0 178 -41q56 -37 55 -115v-15q-2 -32 -21 -64t-56 -56.5t-93 -34.5v-2q110 0 162 -50q47 -46 47 -115v-13q-3 -61 -35.5 -105t-86 -67.5 t-121.5 -23.5h-289zM192 41q16 -1 38.5 -1t42 -0.5t25.5 -0.5q77 0 126.5 38t53.5 113v14q0 50 -20 80q-22 34 -60 48.5t-84 14.5q-30 0 -54.5 -0.5t-48.5 -2.5l-12 -225q-1 -27 -3 -46t-4 -32zM213 383q19 0 38 0.5t35 1.5q57 3 91.5 25t50.5 55.5t17 70.5v9q0 48 -20 73 q-22 28 -55.5 38t-66.5 10q-32 0 -48.5 -9t-23 -30t-8.5 -58z" />
<glyph unicode="C" horiz-adv-x="686" d="M50 339q4 71 28 138t69 121t111.5 86t153.5 32q56 0 104.5 -15t92.5 -45h1l-2 54h54l-12 -231h-36q-5 94 -58 145t-140 51q-53 0 -100.5 -22.5t-85 -64.5t-60 -101t-26.5 -133q-1 -13 -1 -25q1 -79 29 -141q32 -72 90.5 -112t132.5 -40q65 0 129 28.5t107 83.5l25 -21 q-46 -58 -98 -89t-101.5 -42.5t-90.5 -11.5q-75 0 -135 27t-102 75q-43 50 -63 114q-17 54 -17 115q0 12 1 24z" />
<glyph unicode="D" horiz-adv-x="738" d="M40 0l2 33q38 2 53 17.5t18 43t4 62.5l24 432q2 20 3.5 38.5t3.5 33.5q-19 -1 -37 -2t-37 -2l3 44l232 1q87 0 158 -19t122 -59.5t78.5 -101.5t27.5 -145q0 -73 -24.5 -140.5t-74 -120.5t-124 -84t-173.5 -31h-259zM191 40q22 -1 40 -1.5t34.5 -0.5h32.5q91 0 159 45.5 t106.5 123t38.5 173.5q0 129 -73 206.5t-226 77.5q-38 0 -54.5 -12t-21 -37t-6.5 -64l-23 -433q-1 -27 -3 -46t-4 -32z" />
<glyph unicode="E" horiz-adv-x="619" d="M41 0l2 33q38 2 52.5 17.5t17.5 43t5 62.5l24 432q1 20 3 38.5t4 33.5q-18 -1 -36.5 -2t-36.5 -2l2 44h477l-4 -175h-33v17q0 46 -14 72q-16 30 -46 42q-27 10 -61 9h-7l-86 -2q-37 -1 -53.5 -14t-21 -38.5t-7.5 -66.5l-9 -160l72 -1q42 0 69 5t40.5 25t15.5 64h33 l-11 -218h-33v13q0 34 -9 50q-11 19 -37 23q-17 3 -42 3q-12 0 -27 -1l-73 -3l-12 -229q-1 -27 -3 -46t-4 -32l191 3q44 1 77 14.5t52.5 47.5t22.5 93h34l-16 -195h-512z" />
<glyph unicode="F" horiz-adv-x="541" d="M41 0l2 33q38 2 53 17.5t18 43t4 62.5l24 432q1 20 3 38.5t4 33.5q-18 -1 -36.5 -2t-36.5 -2l2 44h460l-4 -175h-33v17q-1 46 -15 72q-18 30 -48 42q-28 10 -61 9h-7l-73 -2q-34 -1 -49.5 -14t-19.5 -37.5t-6 -59.5l-10 -184h78q36 1 58 7t33.5 26t13.5 61h33l-11 -219 h-33v14q0 31 -8 45q-10 18 -31 23.5t-57 5.5q-19 0 -38.5 -0.5t-39.5 -2.5l-11 -209q-1 -27 -3 -46.5t-4 -32.5q17 1 34 1.5t34 1.5t34 1l-2 -44h-251z" />
<glyph unicode="G" horiz-adv-x="753" d="M50 335q4 71 28.5 138.5t69.5 122.5t111.5 87.5t153.5 32.5q36 0 72.5 -6.5t70.5 -18.5t61 -29l-2 47h55l-12 -229h-36q-1 63 -28 106.5t-73 66.5t-104 23q-53 0 -101 -23.5t-85 -66t-60 -100.5t-27 -128q-1 -13 -1 -26q0 -79 26 -142q30 -74 88.5 -116t137.5 -42 q27 0 57 5t60 16.5t57 28.5l6 117q2 26 3 51l2 50q-17 -1 -35 -2t-35 -2l2 44h223l-2 -33q-28 0 -43.5 -14.5t-22.5 -35t-9 -40t-3 -29.5l-8 -152h-24q-16 0 -44 -6t-65 -20q-31 -12 -73 -19t-75 -7q-100 0 -173.5 42t-110.5 121q-33 68 -33 159q0 14 1 29z" />
<glyph unicode="H" horiz-adv-x="773" d="M41 0l2 33q38 2 52.5 17.5t17.5 43t5 62.5l23 432q2 20 3.5 38.5t3.5 33.5l-36 -2l-36 -2l2 44h221l-2 -33q-32 -1 -47.5 -14t-20.5 -37t-7 -60l-10 -178h359l11 210q1 20 3 38.5t4 33.5l-36 -2l-36 -2l2 44h221l-2 -33q-32 -1 -47.5 -14t-20.5 -36.5t-7 -59.5l-23 -438 q-1 -27 -3 -46.5t-4 -32.5l36 2l36 2l-2 -44h-221l2 33q38 2 53 17.5t18 43t4 62.5l10 182l-359 -4l-11 -215q-1 -27 -3 -46.5t-4 -32.5l36 2l36 2l-2 -44h-221z" />
<glyph unicode="I" horiz-adv-x="333" d="M41 0l2 33q38 2 53 17.5t18 43t4 62.5l23 432q1 20 3 38.5t4 33.5l-36 -2l-36 -2l2 44h221l-2 -33q-35 -1 -50 -14.5t-19 -38t-6 -60.5l-23 -435q-1 -27 -3 -46.5t-4 -32.5l36 2l36 2l-2 -44h-221z" />
<glyph unicode="J" horiz-adv-x="367" d="M-14 55q0 20 11.5 35.5t32.5 16.5h6q20 0 30 -13q11 -16 11 -31q0 -5 -1 -11.5t-3 -11.5q5 -8 15 -12t18 -4q12 1 26.5 8t26 34.5t14.5 86.5l20 397q2 28 3.5 55t2.5 55q-17 0 -34 -1t-34 -1.5t-34 -1.5l2 44h262l-3 -33q-33 0 -50 -13t-23.5 -35.5t-8.5 -50.5l-16 -324 q-5 -94 -23.5 -151t-55 -83t-94.5 -26q-24 0 -47 6.5t-38.5 22.5t-15.5 42z" />
<glyph unicode="K" horiz-adv-x="667" d="M41 0l2 33q38 2 53 17.5t18 43t4 62.5l23 432q2 20 3.5 38.5t3.5 33.5l-36 -2l-36 -2l2 44h221l-2 -33q-32 -1 -47.5 -14.5t-20.5 -38t-7 -60.5l-9 -174h78l133 197q14 20 33.5 43.5t43.5 40.5q-16 -1 -31.5 -1t-31.5 -1l2 41h215l-2 -33q-42 -3 -75.5 -14t-65 -38.5 t-68.5 -82.5l-106 -156q28 -17 45 -39.5t33 -45.5l105 -149q35 -50 58.5 -73.5t42.5 -29.5t40 -6l-2 -33h-118q-10 0 -25.5 14t-33.5 36.5t-37 47.5l-111 162q-16 25 -35 47.5t-36 33.5q-13 0 -26 -0.5t-27 -0.5l-12 -221q-1 -27 -3 -46.5t-4 -32.5l36 2l36 2l-2 -44h-221z " />
<glyph unicode="L" horiz-adv-x="577" d="M40 0l2 33q38 2 52.5 17.5t17.5 43t5 62.5l24 432q2 20 3 38.5t4 33.5q-18 -1 -35.5 -2t-35.5 -2v44h221l-2 -33q-35 -1 -50 -17t-19 -43t-6 -63l-23 -429q-1 -27 -3 -46t-4 -32l187 3q63 1 98 39.5t39 127.5h34l-17 -207h-492z" />
<glyph unicode="M" horiz-adv-x="917" d="M30 0l2 33q31 1 45.5 13.5t20 33.5t7.5 45l45 450q2 21 4.5 42.5t4.5 42.5q-18 -1 -36 -1.5t-36 -1.5l2 43h149l154 -410q15 -41 31 -83t32 -85h2q13 27 29.5 64.5t28.5 64.5q32 72 69 148.5l74 153t68 147.5h144l-2 -33h-4q-22 1 -38 -9t-24 -34.5t-8 -65.5l3 -455 q0 -18 -0.5 -33.5t-1.5 -29.5q19 1 37 2t37 2l-3 -44h-220l2 33q28 2 43 12.5t21 35.5t6 71v342v29t0.5 28.5t0.5 28.5h-2l-35 -77l-238 -513h-29l-173 472q-9 26 -15.5 43.5t-13 37t-15.5 50.5h-2q-2 -56 -5.5 -105t-7.5 -93l-26 -270q-2 -22 -4.5 -44t-5.5 -41l38 2l38 2 l-3 -44h-190z" />
<glyph unicode="N" horiz-adv-x="762" d="M45 0l1 33q31 0 45.5 13.5t19.5 32t5 33.5l22 447q2 26 3 51l2 50q-16 -1 -33 -2l-34 -2l2 44h119l318 -452l42 -60l42 -60h2l21 460q2 22 3.5 40t3.5 32l-36 -2l-36 -2l2 44h184l-2 -33q-37 -1 -51.5 -17t-17 -43t-4.5 -63l-28 -555h-48l-340 486q-17 25 -34.5 49 t-34.5 49h-2l-16 -434q-1 -25 -2 -50.5t-5 -48.5l36 2l36 2l-2 -44h-183z" />
<glyph unicode="O" horiz-adv-x="788" d="M49 327q0 77 25.5 147t73.5 124.5t115 86t150 31.5q88 0 151 -31t103.5 -81.5t59.5 -112t19 -122.5q0 -64 -22.5 -131.5t-67.5 -125t-113.5 -93t-160.5 -35.5q-88 0 -151 30.5t-103.5 80.5t-59.5 110.5t-19 121.5zM145 349v-7q0 -48 12 -100q13 -56 41.5 -105.5t75 -80.5 t113.5 -31q65 0 114 29t82 77.5t50 106.5t17 115q0 59 -15.5 116.5t-46 104t-75.5 74.5t-105 28q-63 0 -111.5 -29t-82 -77t-51.5 -105.5t-18 -115.5z" />
<glyph unicode="P" horiz-adv-x="597" d="M41 0l2 33q38 2 53 17.5t18 43t4 62.5l23 432q2 20 3.5 38.5t3.5 33.5q-18 -1 -36.5 -2t-36.5 -2l3 44q53 1 107 1.5t112 0.5q97 0 160.5 -22.5t95.5 -66t32 -107.5q0 -39 -15 -81.5t-52 -79t-103 -59.5t-169 -23h-17t-22 1l-8 -145q-1 -27 -3 -46.5t-4 -32.5q16 1 31 2 t30.5 1.5t30.5 1.5l-2 -45h-241zM209 306q19 -2 33 -2.5t32 -0.5q57 0 105.5 22t78.5 64t33 100v12q0 39 -11 69q-13 34 -39.5 54t-64 29.5t-83.5 9.5q-31 0 -46 -13.5t-19 -39t-6 -61.5z" />
<glyph unicode="Q" horiz-adv-x="788" d="M49 327q0 77 25.5 147t73.5 124.5t115 86t150 31.5q88 0 151 -31t103.5 -81.5t59.5 -112t19 -122.5q0 -56 -17.5 -115.5t-52.5 -113t-88.5 -93t-124.5 -54.5v-1q28 0 51.5 -3.5t48.5 -16.5t57 -43q42 -39 68 -62t41 -34t26.5 -14.5t24.5 -3.5v-33h-32q-36 0 -61 2.5 t-48 14t-54 39.5q-37 34 -63 61t-46.5 46t-42 29t-51.5 10q-88 0 -151 30.5t-103.5 80.5t-59.5 110.5t-19 121.5zM145 349v-7q0 -48 12 -100q13 -57 41.5 -106t75 -80t113.5 -31q65 0 114 29t82 77.5t50 106.5t17 115q0 59 -15.5 116.5t-46 104t-75.5 74.5t-105 28 q-63 0 -111.5 -29t-82 -77t-51.5 -105.5t-18 -115.5z" />
<glyph unicode="R" horiz-adv-x="625" d="M41 0l2 33q38 2 53 17.5t18 43t4 62.5l23 432q1 20 3 38.5t4 33.5q-18 -1 -36.5 -2t-36.5 -2l3 44l112 2h56h57q97 -1 155 -25q58 -25 82 -65q22 -36 21 -82v-11q-2 -38 -18.5 -77.5t-57.5 -71.5t-118 -48q16 -18 24 -26.5t13 -14t11 -15.5t18 -31l62 -107 q16 -27 30.5 -48.5t35 -34t51.5 -12.5l-2 -33h-122q-22 19 -42.5 48.5t-40.5 62.5l-61 107q-12 22 -27 49t-35 46q-9 -1 -25.5 -1t-30.5 0.5t-17 0.5l-10 -194q-1 -27 -3 -46.5t-4 -32.5q12 1 24 1.5t24 1.5t24 1l-2 -44h-221zM211 352q17 -1 31 -2h14.5h16.5q55 2 98 18 t68.5 51t28.5 92v13q0 30 -8 54q-10 28 -30 47.5t-53.5 29t-79.5 9.5q-35 0 -50 -14t-19 -39.5t-6 -61.5z" />
<glyph unicode="S" horiz-adv-x="566" d="M47 -8l5 213h39q1 -61 25.5 -101t66.5 -59t95 -19q39 0 73 14t56 42t24 68v10q1 42 -23 72q-26 32 -68.5 55.5t-89.5 45.5q-46 22 -88 47.5t-68 63.5q-23 34 -22 83v12q2 26 12.5 56t34.5 58t64 45.5t101 17.5q38 0 84.5 -10.5t86.5 -40.5l-2 43h51l-11 -220h-36 q0 48 -18 91t-55 70t-96 27q-62 0 -98 -35.5t-38 -82.5v-7q0 -33 18 -59q20 -28 52.5 -48.5t71.5 -38.5q39 -19 79 -38.5t73.5 -45t52.5 -61.5q16 -31 16 -73v-14q-2 -55 -32 -98t-83.5 -67t-128.5 -24q-38 0 -87.5 9t-87.5 34l3 -35h-52z" />
<glyph unicode="T" horiz-adv-x="636" d="M36 489l17 211h579l-5 -211h-38v21q0 45 -7 77q-10 39 -36 59q-25 19 -73 18h-5l-85 -1l-33 -544q-1 -27 -3 -46.5t-4 -32.5q14 1 28 1.5t27.5 1.5t27.5 1l-2 -44h-231l2 33q33 2 47.5 18t19.5 43.5t7 61.5l31 507l-103 -1q-63 0 -91 -42t-33 -131h-37z" />
<glyph unicode="U" horiz-adv-x="744" d="M54 657l2 43h222l-2 -33q-34 0 -49 -14t-19.5 -32.5t-5.5 -32.5l-13 -253l-2 -42q0 -35 4 -67q5 -52 24 -94t59 -66.5t107 -24.5q72 0 118.5 34t71.5 93.5t30 137.5l18 282q2 20 3.5 38.5t3.5 33.5l-36 -2l-36 -2l2 44h187l-1 -33q-38 -1 -53 -17t-18 -43t-5 -63 l-14 -233q-4 -65 -21 -124t-50.5 -104.5t-86.5 -72t-128 -26.5q-80 0 -133 21t-83 65q-30 43 -40 110q-7 45 -7 103q0 27 2 57l13 239q2 26 3.5 44t4.5 37q-18 -1 -36 -1.5t-36 -1.5z" />
<glyph unicode="V" horiz-adv-x="665" d="M23 656l2 44h228l-2 -34q-51 -2 -63 -30q-5 -11 -5 -26q0 -22 11 -52l82 -233q22 -56 41 -107.5t30 -85.5h2q14 35 27 67t31 76q34 84 58 142t41 99t29 70q11 26 18.5 44t14.5 30l-38 -2t-39 -2l2 44h203l-2 -33q-44 -2 -68 -23t-47 -75q-2 -5 -5.5 -13.5t-11.5 -27.5 t-23 -56t-41 -99t-65.5 -156t-95.5 -228h-26l-196 533q-19 51 -26.5 82.5t-9.5 53.5q-14 -1 -28 -1t-28 -1z" />
<glyph unicode="W" horiz-adv-x="994" d="M28 656l2 44h240l-2 -33q-58 -3 -71 -26q-6 -12 -6.5 -32.5t6.5 -50.5l64 -233q12 -45 24 -85.5t25 -87.5h2q6 17 13.5 36.5t14.5 38.5t13 35.5t10 26.5l152 413h27l104 -377q13 -45 25.5 -90t24.5 -92h2q11 29 24.5 62.5t26.5 68.5q27 75 46 125t31.5 83t22 57t18.5 47 q6 17 15 36.5t19 36.5q-20 -1 -40 -1.5t-40 -1.5l2 44h203l-2 -33q-25 -3 -42.5 -9.5t-30.5 -21.5t-26.5 -43t-31.5 -74l-208 -530h-26l-114 394q-15 52 -23.5 85t-16.5 63h-4q-13 -33 -25 -66t-25 -66l-155 -410h-26l-151 533q-15 53 -23.5 83.5t-11.5 52.5q-14 -1 -28 -1 t-28 -1z" />
<glyph unicode="X" horiz-adv-x="652" d="M0 0l2 33q48 10 77 40.5t66 79.5l139 185q-55 81 -89.5 132t-54.5 83q-26 41 -36 62t-18 43q-14 -1 -28 -1t-28 -1l2 44h260l-2 -33q-49 -1 -71 -7q-21 -5 -21 -21t21 -55l115 -179l104 139q27 36 52.5 69t41.5 47l-42 -2l-42 -2l2 44h197l-2 -33q-32 -4 -60.5 -26 t-54.5 -52.5t-49 -60.5l-122 -160l164 -233q16 -22 32 -45t32 -48q14 1 29 1t29 1l-2 -44h-246l2 33h6q31 1 43 11q10 10 10 22v6q-2 17 -14 34l-134 195l-108 -148q-19 -27 -40 -56t-47 -58q21 2 41.5 3t41.5 2l-2 -44h-196z" />
<glyph unicode="Y" horiz-adv-x="641" d="M21 656l2 44h254l-2 -33q-46 0 -65 -14q-15 -12 -15 -32v-7q3 -24 21 -56q17 -28 39.5 -66.5t42.5 -71.5l16 -26t16.5 -26.5t16.5 -26.5h1q14 24 26.5 46t24.5 42q23 40 45.5 77t45.5 77q6 10 14 23.5t18 28t20 24.5q-19 -1 -39 -1.5t-40 -1.5l2 44h204l-2 -33 q-49 -3 -82.5 -34t-71.5 -95l-139 -238l-10 -181q-1 -27 -3 -46.5t-4 -32.5q14 1 28 1.5t27.5 1.5t27.5 1l-2 -44h-231l2 33q38 2 52.5 18t17.5 43.5t4 61.5l6 114l-158 275q-24 40 -35 67t-13 46q-16 -1 -31 -1t-31 -1z" />
<glyph unicode="Z" horiz-adv-x="612" d="M28 0l3 46l385 527q16 23 32.5 45.5t36.5 44.5l-258 -4q-59 -2 -90.5 -41t-36.5 -125h-34l17 207h496l-2 -35l-392 -545q-23 -32 -39 -50.5t-33 -32.5l247 4q66 1 113 40.5t51 123.5h34l-17 -205h-513z" />
<glyph unicode="[" horiz-adv-x="361" d="M46 -255l71 1010h265l-4 -56l-195 -3l-66 -892l201 -3l-5 -56h-267z" />
<glyph unicode="\" horiz-adv-x="785" d="M48 723l55 37l625 -998l-47 -33z" />
<glyph unicode="]" horiz-adv-x="361" d="M-28 -255l4 56l195 3l66 892l-201 3l5 56h267l-71 -1010h-265z" />
<glyph unicode="^" horiz-adv-x="823" d="M53 441l322 275h89l292 -279h-88l-254 244l-279 -240h-82z" />
<glyph unicode="_" horiz-adv-x="710" d="M24 -106l3 56l615 -4l-3 -52h-615z" />
<glyph unicode="`" horiz-adv-x="240" d="M47.5 719q-3.5 14 0 23t7.5 13q3 3 12.5 6.5t23 -2t26.5 -28.5l78 -132l-24 -20l-103 107q-17 19 -20.5 33z" />
<glyph unicode="a" horiz-adv-x="548" d="M37 163q0 70 18 133t54.5 111.5t91.5 76t128 27.5q30 0 66 -4.5t68 -12.5q-8 -60 -15.5 -119.5t-14 -113t-10.5 -96t-4 -66.5q0 -20 3 -40t25 -20q17 0 37.5 22t35.5 75l28 -6q-3 -18 -12.5 -41.5t-25.5 -46.5t-39 -38t-53 -15q-40 0 -57 25t-17 65q0 29 5.5 63t12.5 71 h-3q-24 -74 -49.5 -118.5t-51 -67.5t-49.5 -30.5t-45 -7.5q-54 0 -90.5 40t-36.5 134zM121 180q0 -64 14 -105.5t51 -41.5q27 0 54.5 27t51.5 72.5t43 102t30 115.5t11 113q-15 6 -35 9t-43 3q-45 0 -78.5 -25t-55.5 -67.5t-32.5 -95t-10.5 -107.5z" />
<glyph unicode="b" horiz-adv-x="511" d="M35 688l4 40q44 0 69 4t37.5 10t20.5 13h29q-4 -28 -8.5 -58.5t-7.5 -59t-6 -51.5q-4 -44 -9 -90t-10 -95.5t-10 -102.5h3q20 72 44 115t50 64t51.5 27.5t47.5 6.5q46 0 73.5 -26t39.5 -67.5t12 -90.5q0 -69 -15.5 -130t-48.5 -108t-86 -73.5t-127 -26.5q-16 0 -39 2 t-47 6.5t-45 12.5q7 98 12 176t9.5 149t10 144t12.5 160q2 26 3 33t3 20l-36 -2zM131 47q12 -12 33.5 -17.5t40.5 -5.5q44 1 74.5 19.5t50.5 50t31 70t15 78.5q3 32 3 62v15q-1 67 -17 107q-15 38 -48 38h-3q-28 -1 -54.5 -28.5t-48.5 -72t-39 -99t-27 -111t-11 -106.5z" />
<glyph unicode="c" horiz-adv-x="473" d="M39 208q0 49 14 102t43 98.5t74.5 74t107.5 28.5q43 0 77 -15.5t53.5 -42t19.5 -59.5q0 -22 -11 -35.5t-31 -13.5h-3q-23 0 -31 14q-10 15 -9 26q0 9 2.5 19t10.5 19q-5 28 -27.5 40.5t-51.5 12.5q-43 0 -72 -23t-46 -60t-24.5 -79.5t-7.5 -82.5q0 -70 15.5 -112.5 t43.5 -61.5t63 -19q26 0 54 11.5t54 39t45 75.5l35 -17q-25 -58 -58 -92.5t-70.5 -50t-76.5 -15.5q-88 0 -140.5 53.5t-52.5 165.5z" />
<glyph unicode="d" horiz-adv-x="555" d="M38 179q0 98 32.5 172.5t97.5 117t161 42.5q15 0 29 -1t27 -3q4 36 8.5 72.5t9 67t8.5 45.5q-18 -1 -36.5 -2t-36.5 -2l4 40q44 0 68.5 4t37.5 10t21 13h29q-9 -54 -18.5 -131.5t-23.5 -196.5q-7 -64 -13.5 -127.5t-11 -117.5t-4.5 -90q0 -19 4 -36t23 -17q17 0 37 22 t35 75l29 -6q-3 -18 -12.5 -41.5t-25.5 -46.5t-39 -38t-53 -15q-40 0 -58.5 25t-18.5 65q0 29 4 60.5t11 68.5h-3q-27 -91 -59.5 -138.5t-65 -64t-62.5 -16.5q-46 0 -76 25.5t-44.5 69t-14.5 95.5zM124 196q0 -68 15.5 -114t54.5 -46q32 0 63.5 36t57.5 94t40 123 q8 35 13.5 78t11.5 98q-16 6 -33.5 8t-34.5 2q-42 0 -73.5 -17t-53.5 -46t-35.5 -65t-19.5 -75t-6 -76z" />
<glyph unicode="e" horiz-adv-x="477" d="M39 205q0 58 15 113t45 98.5t76 69t107 25.5q36 0 68 -11t52 -36t20 -68q0 -41 -28 -71t-73 -49.5t-96 -31.5t-98 -17q0 -62 12.5 -104t37.5 -63t64 -21q29 0 58.5 13t56.5 39.5t49 68.5l33 -19q-28 -52 -60 -86t-70 -50t-84 -16q-95 0 -140 59.5t-45 156.5zM128 263 q53 7 101 25t79 46.5t31 66.5q0 32 -17.5 54t-53.5 22q-46 0 -75.5 -31t-45 -80t-19.5 -103z" />
<glyph unicode="f" horiz-adv-x="325" d="M-125 -219q0 8 4 17.5t13 17t24 6.5q18 -1 28.5 -13.5t10.5 -32.5q11 -8 29 -8q35 0 53.5 37t27.5 102.5t14.5 152t14.5 185.5l4 54l4 54t4.5 53.5t5.5 51.5l-88 -1l5 43h88q11 73 32 131t61 93t106 36h5q33 0 52 -12q20 -14 20 -40q0 -7 -3.5 -17t-12.5 -16.5t-24 -6.5 q-19 0 -30 14t-10 36q-3 2 -12 3.5t-17 0.5q-24 -2 -39.5 -19.5t-25.5 -47t-16 -69t-10 -86.5h142l-3 -39l-142 -2q-1 -26 -2.5 -53t-3 -55.5t-3.5 -57t-5 -57.5q-7 -73 -13 -145.5t-17.5 -137.5t-33.5 -115.5t-60.5 -79.5t-98.5 -29q-38 0 -58 13.5t-20 38.5z" />
<glyph unicode="g" horiz-adv-x="518" d="M14 -187q0 14 6 25.5t17 18.5t24 7q18 0 31.5 -11.5t13.5 -34.5q0 -12 -6 -26q10 -15 30.5 -21.5t38.5 -6.5q57 0 90.5 30t51.5 79.5t26 107.5q9 59 13 120.5t11 111.5h-3q-21 -72 -44 -116.5t-47 -68t-47.5 -31.5t-46.5 -8q-46 0 -76 25.5t-44.5 69.5t-14.5 99 q0 65 17.5 123.5t53 105t91 73t130.5 26.5q34 0 68.5 -4.5t58.5 -12.5q-4 -60 -8.5 -122t-10 -123t-10.5 -120t-10 -115q-8 -97 -40.5 -160t-87 -94t-128.5 -31q-18 0 -42.5 4t-48.5 13.5t-40 26t-17 40.5zM122 200q0 -46 6.5 -83t22.5 -59t43 -22q28 0 54.5 27.5t49 73 t40 101.5t28.5 114.5t14 109.5q-13 7 -30.5 10t-35.5 3q-55 0 -92 -26.5t-59 -69t-31.5 -90t-9.5 -89.5z" />
<glyph unicode="h" horiz-adv-x="572" d="M49 688l4 40q44 0 68.5 4t37.5 10t21 13h29q-4 -25 -9 -56t-10 -61t-8 -53q-3 -25 -7.5 -64.5t-9 -83t-8 -83.5t-5.5 -66h3q34 91 67 139t65.5 66t64.5 18q60 0 85 -38.5t25 -91.5q0 -55 -7 -112.5t-14 -106t-7 -77.5q0 -18 4.5 -32t22.5 -14q17 0 37.5 21.5t35.5 75.5 l25 -7q-3 -17 -12 -41t-24.5 -46.5t-38 -37.5t-52.5 -15q-47 0 -64 25t-17 71q0 28 4.5 66.5t10 81.5t10 87t4.5 83q0 12 -4 26t-14 24.5t-30 10.5q-27 0 -54 -24.5t-51.5 -66.5t-44 -95.5t-30.5 -111t-11 -113.5q0 -15 0.5 -27.5t1.5 -25.5h-82q-1 7 -1 12.5v13.5 q0 27 3 83t8 127.5t11.5 146.5t13.5 142.5t14 113.5q4 26 5.5 33t3.5 20z" />
<glyph unicode="i" horiz-adv-x="324" d="M7 370q3 18 12 41.5t24.5 46.5t37.5 38t52 15q42 0 63 -28.5t21 -75.5q0 -30 -5.5 -68.5t-13.5 -82.5t-13.5 -88.5t-5.5 -86.5q0 -20 7.5 -31t23.5 -11q17 0 37.5 22t35.5 75l28 -6q-4 -21 -13.5 -45.5t-24.5 -46t-36.5 -35.5t-49.5 -14q-46 0 -68 24t-22 70q0 44 6 85.5 t13.5 82t13.5 81.5t6 84q0 13 -5.5 29t-22.5 16q-16 0 -37 -22t-36 -75zM136 670q0 26 16 41.5t38 15.5q23 0 38 -15.5t15 -41.5q0 -25 -16 -40.5t-38 -15.5t-37.5 15.5t-15.5 40.5z" />
<glyph unicode="j" horiz-adv-x="287" d="M-104 -217q0 12 4.5 22.5t14.5 17.5t24 7q20 0 33 -14q10 -12 10 -31q0 -5 -1 -10q8 -5 20 -5q29 0 50 28.5t36 74t24.5 98t15.5 101t8.5 83.5t3.5 45q5 56 7 114v48q0 30 -1 55q-1 14 -7.5 28.5t-23.5 13.5q-15 -1 -34 -23.5t-33 -75.5l-28 6q3 18 11 42.5t23 48 t37.5 39t53.5 15.5q40 0 61.5 -25.5t21.5 -76.5q0 -41 -2 -98t-8 -119q-6 -61 -15 -126t-24.5 -125t-41 -108t-65.5 -76t-99 -28q-25 0 -50.5 12t-25.5 42zM133 670q0 26 16 41.5t38 15.5q23 0 38 -15.5t15 -41.5q0 -25 -16 -40.5t-38 -15.5t-37.5 15.5t-15.5 40.5z" />
<glyph unicode="k" horiz-adv-x="520" d="M49 688l4 40q44 0 68.5 4t36.5 10t20 13h29q-5 -25 -9.5 -56t-8.5 -61t-7 -53q-9 -70 -16.5 -146t-12.5 -151h3q30 89 61.5 137t65.5 67t69 19t56 -15.5t31 -40.5t10 -52q0 -35 -21 -73t-63.5 -67.5t-108.5 -41.5v-1q35 -1 53.5 -16.5t34.5 -53.5q11 -23 21.5 -47 t22.5 -40t26 -18h2q15 0 27 12q12 13 21 50l28 -5q-6 -28 -19.5 -54t-35.5 -42.5t-53 -16.5q-38 0 -63.5 31t-51.5 100q-19 50 -34 72t-44 23q-7 0 -13 -0.5t-13 -0.5q-11 -41 -17.5 -82.5t-6.5 -78.5q0 -15 0.5 -27.5t1.5 -25.5h-82q-1 7 -1 12.5v13.5q0 28 3 83.5t8 126.5 t11 146t13.5 142.5t14.5 114.5q4 26 5.5 33t3.5 20q-17 -1 -35 -2t-35 -2zM173 243q95 0 145 41t50 117q0 13 -3 28t-13 26q-8 9 -25 9h-6q-27 -2 -54.5 -33t-51.5 -80.5t-42 -107.5z" />
<glyph unicode="l" horiz-adv-x="283" d="M54 688l5 40q44 0 68.5 4t37.5 10t21 13h28q-3 -25 -8.5 -56t-10 -61t-7.5 -53q-6 -42 -12 -95.5t-12 -111t-10.5 -112.5t-7.5 -100.5t-3 -74.5q0 -19 4 -35.5t23 -16.5q17 0 37.5 21.5t35.5 75.5l28 -7q-3 -17 -12.5 -41t-25.5 -46.5t-38.5 -37.5t-52.5 -15 q-41 0 -60 20.5t-20 60.5v12q0 24 2 62q4 49 9.5 111.5t12.5 131t15 133.5t15 118q5 27 6.5 35.5t2.5 18.5q-18 -1 -35.5 -2t-35.5 -2z" />
<glyph unicode="m" horiz-adv-x="876" d="M8 370q3 18 12.5 41.5t25.5 46.5t39 38t53 15q33 0 49 -17q15 -16 21 -42q4 -19 5 -42q0 -8 -1 -16q-1 -28 -6 -56.5t-9 -49.5h3q32 91 63.5 139t62 66t57.5 18q40 0 63.5 -18.5t33.5 -44.5t10 -51q0 -28 -4 -48t-13 -58h3q33 91 65.5 138.5t63.5 64.5t58 17q40 0 63 -18 t32.5 -47.5t9.5 -64.5q0 -55 -8 -112.5t-16.5 -106t-8.5 -77.5q0 -18 4.5 -32t22.5 -14q17 0 38 21.5t36 75.5l28 -7q-3 -17 -13 -41t-26 -46.5t-39 -37.5t-53 -15q-47 0 -63.5 25t-16.5 71q0 28 5.5 66t12.5 81t12.5 87t5.5 84q0 12 -4 26t-14 24.5t-30 10.5q-28 0 -55 -26 t-50 -70t-40.5 -97.5t-27.5 -110t-10 -107.5q0 -15 0.5 -27.5t1.5 -25.5h-84q-1 7 -1 12.5v13.5q0 38 5.5 90t13.5 107q6 55 12 104q5 41 5 70v10q-1 17 -10 37t-38 20q-28 0 -54.5 -26t-49.5 -70t-41 -97.5t-28 -110t-10 -107.5q0 -15 0.5 -27.5t1.5 -25.5h-84 q-1 7 -1 12.5v13.5q0 17 1.5 39.5t6 60t11.5 100.5q7 59 11 92t6 50.5t2.5 27t0.5 20.5q0 18 -5 31.5t-22 13.5q-16 0 -37 -22t-36 -75z" />
<glyph unicode="n" horiz-adv-x="615" d="M7 370q3 18 12.5 41.5t25.5 46.5t39 38t53 15q34 0 50.5 -18.5t20.5 -47.5q3 -20 3 -42v-20q-2 -28 -6.5 -54t-8.5 -46h3q34 91 67 140.5t65.5 68.5t64.5 19q40 0 64 -18t34.5 -47.5t10.5 -64.5q0 -55 -7.5 -112.5t-15 -106t-7.5 -77.5q0 -18 4.5 -32t22.5 -14 q17 0 37.5 21.5t35.5 75.5l28 -7q-3 -17 -12.5 -41t-25.5 -46.5t-39 -37.5t-53 -15q-47 0 -64 25t-17 71q0 28 4.5 66t11 81t11 87t4.5 84q0 12 -3.5 26t-13.5 24.5t-30 10.5q-28 0 -56 -26t-53 -70t-45 -97.5t-31.5 -110t-11.5 -107.5q0 -15 0.5 -27.5t1.5 -25.5h-84 q-1 7 -1 12.5v13.5q0 17 2 39.5t6.5 60t11.5 100.5q7 59 10.5 92t5.5 50.5t2.5 27t0.5 20.5q0 18 -5 31.5t-22 13.5q-16 0 -37 -22t-36 -75z" />
<glyph unicode="o" horiz-adv-x="521" d="M39 213q0 81 29.5 149t85 108.5t132.5 40.5q54 0 97 -25.5t68 -74.5t25 -119q0 -80 -29 -149.5t-83.5 -111.5t-132.5 -42q-66 0 -108.5 30t-63 81t-20.5 113zM127 246v-11q0 -29 4 -61q5 -38 17.5 -71t35 -54t56.5 -22h3q38 -1 65 21q28 22 45 58.5t25.5 77.5t9.5 77v13 q0 29 -4 59q-4 37 -17 69t-36 51.5t-60 20.5h-3q-42 0 -73 -30q-32 -30 -49.5 -82t-18.5 -116z" />
<glyph unicode="p" horiz-adv-x="571" d="M18 370q3 18 12.5 41.5t25.5 46.5t39 38t53 15q45 0 60.5 -31.5t15.5 -73.5q0 -30 -4.5 -60.5t-9.5 -53.5h3q28 92 57.5 139t60.5 63.5t60 16.5q46 0 76 -26.5t44.5 -70.5t14.5 -97q0 -97 -33.5 -171t-99 -115.5t-162.5 -41.5q-13 0 -24.5 1t-22.5 2q-5 -76 -7.5 -117.5 t-4 -61t-4.5 -30.5q16 1 31.5 1.5t31.5 1.5v-41h-189v30q28 0 39.5 19t15 50.5t6.5 70.5q7 86 14.5 166.5t14 147t10.5 113.5t4 66q0 20 -3.5 36.5t-23.5 16.5q-16 0 -36.5 -22t-35.5 -75zM187 35q16 -5 30.5 -8.5t30.5 -3.5q42 0 74 17t54.5 45.5t36.5 64.5t20.5 74.5 t6.5 74.5q0 46 -6 83.5t-21 59.5t-43 22q-27 0 -54 -29t-50 -77.5t-41 -107.5t-27 -120q-4 -22 -6.5 -45.5t-4.5 -49.5z" />
<glyph unicode="q" horiz-adv-x="518" d="M38 174q0 98 33 173.5t98.5 119t161.5 44.5q17 0 41.5 -1.5t49 -3.5t39.5 -5q-5 -63 -12.5 -144.5t-16 -169.5t-16 -171.5t-12.5 -149.5q-1 -20 -3 -43t-7 -40q16 1 31.5 1.5t31.5 1.5v-41h-189v30q28 0 39.5 19t15 50.5t6.5 70.5q6 75 14 150t17 143h-3 q-26 -92 -57 -139t-63 -63t-62 -17h-4q-43 0 -72 23q-30 25 -45 67.5t-16 94.5zM124 193q1 -68 16 -112.5t56 -44.5q29 0 55.5 27.5t50 73.5t41.5 102.5t29 116t14 112.5q-15 5 -33 7t-38 2q-53 -1 -89.5 -27.5t-59 -69.5t-32.5 -92t-10 -95z" />
<glyph unicode="r" horiz-adv-x="455" d="M7 370q3 18 12.5 41.5t25.5 46.5t39 38t53 15q45 0 60 -31q13 -27 13 -71v-12q-1 -22 -5.5 -48.5t-9.5 -55.5h3q29 87 60.5 134t64 65.5t64.5 18.5q30 0 50 -15.5t20 -42.5q0 -18 -12.5 -33t-33.5 -15q-18 0 -31 11t-15 31q-6 1 -11 1q-22 0 -44 -19q-26 -24 -49.5 -68.5 t-41 -99.5t-27.5 -112t-10 -106q0 -15 0.5 -22.5t1.5 -20.5h-83q-1 7 -1 12.5v13.5q0 17 1 40.5t4.5 62.5t10.5 102q7 65 11 98t6 48.5t2 25.5v9q-1 15 -3 30q-4 19 -24 19q-16 0 -37 -22t-36 -75z" />
<glyph unicode="s" horiz-adv-x="428" d="M30 96q0 22 12.5 35.5t30.5 13.5q20 0 30.5 -13t10.5 -29q0 -7 -2 -15t-7 -16q8 -22 32 -34t51 -12q54 0 81 25t27 70q0 27 -19 48t-48 39.5t-60 36.5q-29 18 -55.5 37t-43 42t-16.5 52q0 37 22 67.5t61 49t90 18.5q38 0 71.5 -12t55 -34t21.5 -52q0 -21 -12 -33.5 t-30 -12.5t-29 12t-11 28q0 8 2 15.5t7 15.5q-5 17 -24.5 28.5t-53.5 11.5q-22 0 -43 -10t-35 -27.5t-14 -41.5q0 -19 11.5 -35t30.5 -30t41 -28q36 -21 74 -44.5t63.5 -53.5t25.5 -73q0 -42 -23.5 -75t-66 -52t-98.5 -19q-40 0 -77 12.5t-60 36.5t-23 58z" />
<glyph unicode="t" horiz-adv-x="364" d="M22 458l3 42q69 0 102 37t52 104h38l-18 -141h159l-3 -38l-160 -2q-4 -42 -9.5 -86.5t-9.5 -88.5t-7 -84.5t-3 -73.5q0 -19 2.5 -39.5t12.5 -34t32 -13.5q10 0 24.5 4t32.5 19t37 47l26 -17q-29 -51 -62.5 -77.5t-81.5 -26.5q-39 0 -61.5 16.5t-32.5 43.5t-10 58 q0 38 3 92.5t9 121t14 138.5z" />
<glyph unicode="u" horiz-adv-x="593" d="M6 370q3 18 12 41.5t24.5 46.5t38 38t52.5 15q40 0 60.5 -25t20.5 -72q0 -28 -5 -69t-11.5 -85.5t-11.5 -86.5t-5 -74q0 -11 3.5 -26t14 -26t29.5 -11q28 0 55 26t51 70t43 97.5t29.5 110t10.5 107.5q0 15 -0.5 27.5t-1.5 25.5h84q1 -7 1 -12.5v-13.5q0 -17 -2 -40.5 t-6 -62t-12 -101.5q-7 -58 -10.5 -91t-5.5 -49.5t-2.5 -25.5t-0.5 -20q0 -18 5.5 -31t21.5 -13q17 0 37.5 21.5t35.5 74.5l28 -6q-3 -18 -12.5 -41.5t-25.5 -46.5t-39 -38t-53 -15q-40 0 -58.5 25t-18.5 65q0 29 5.5 63t12.5 71h-3q-34 -91 -65 -139.5t-61 -66.5t-63 -18 q-40 0 -64 18t-34.5 48t-10.5 64q0 56 8 113t16 105.5t8 76.5q0 19 -4.5 33t-22.5 14q-16 0 -35.5 -22t-34.5 -75z" />
<glyph unicode="v" horiz-adv-x="526" d="M4 369q3 18 11.5 41.5t23.5 46.5t37 38t52 16h4q24 0 41 -10q18 -11 27.5 -32.5t10.5 -52.5q0 -30 -2.5 -70.5t-6 -83t-6.5 -80t-4 -63.5q0 -16 2 -34t12 -30t34 -12q25 0 52 15t52.5 40t46 57.5t31.5 68.5q6 20 11 52q4 25 4 52q-1 8 -1 16q-2 34 -12.5 62t-35.5 38 q-6 -13 -16.5 -19t-23.5 -6t-27 10t-15 32q0 10 5.5 21.5t18 20t33.5 8.5q45 0 73 -29q28 -28 40 -74q9 -34 9 -74q0 -13 -1 -27q-4 -54 -24 -106q-15 -40 -39.5 -77.5t-56 -68t-67.5 -48.5t-75 -18q-41 0 -66 17.5t-36 47t-12 63.5v21q0 32 2 64q3 43 7 83.5t7.5 74 t3.5 55.5q0 18 -5 31.5t-23 13.5q-16 0 -35 -22t-33 -76z" />
<glyph unicode="w" horiz-adv-x="801" d="M5 370q3 18 12 41.5t24.5 46.5t38 38t52.5 15q27 0 45 -11.5t27 -33t9 -52.5q0 -33 -4 -77t-9.5 -90t-9.5 -85t-4 -60q0 -14 3.5 -28t13 -23t26.5 -9q25 0 50.5 15t47.5 44t39 71t27 96t10 120q0 26 -1.5 54t-5.5 58h86q2 -8 3 -22.5t1 -22.5q0 -50 -5 -96t-11.5 -88 t-11.5 -80t-5 -72q0 -29 10 -53t44 -25q29 0 57 13.5t53.5 38.5t45.5 58.5t33 72.5q6 20 11 52q4 25 4 52q-1 8 -1 16q-2 34 -12 62t-35 38q-6 -13 -17 -19t-24 -6t-27.5 10.5t-14.5 32.5q0 11 5.5 22.5t19 19t35.5 7.5q45 0 72.5 -28.5t39.5 -74.5q8 -33 8 -71 q0 -15 -2 -31q-4 -54 -23 -105q-16 -45 -41.5 -83.5t-58.5 -67.5t-71.5 -45t-80.5 -16q-26 0 -51.5 12.5t-39.5 45.5q-11 25 -11 64q0 14 1 29q-15 -42 -43.5 -76.5t-62.5 -54.5t-68 -20q-58 0 -81 38.5t-23 91.5q0 40 4 82.5t9 83t9 74.5t4 55q0 19 -4.5 33t-22.5 14 q-16 0 -35.5 -22t-34.5 -75z" />
<glyph unicode="x" horiz-adv-x="545" d="M15 40q0 21 12.5 33.5t28.5 12.5q23 0 30 -14.5t8 -26.5q3 -1 7 -1q25 0 55 41q34 46 74 167q-20 53 -33.5 91t-24.5 62q-10 23 -19.5 34t-23.5 11q-18 0 -33 -19.5t-18 -78.5l-29 -1q0 20 4 47t15 53t32 43t55 17q35 0 53.5 -20t34.5 -58q9 -23 18.5 -53t22.5 -66 q27 65 52.5 104.5t48.5 59.5t42.5 26.5t33.5 6.5q26 0 40 -14t14 -35q0 -17 -12 -30t-29 -13q-22 0 -31.5 11.5t-14.5 18.5q-14 -2 -32.5 -18.5t-41.5 -55.5t-52 -110q24 -61 42 -102t32.5 -66t27 -36t24.5 -11q18 0 31 19.5t20 59.5l28 -4q-3 -25 -10 -49.5t-18.5 -44 t-29 -31t-42.5 -11.5t-43 8t-34 30.5t-34.5 64.5t-45.5 110h-1q-25 -73 -48 -116t-44.5 -64t-41.5 -27t-38 -6q-28 0 -45 14.5t-17 36.5z" />
<glyph unicode="y" horiz-adv-x="514" d="M-12 -208q0 23 14 34.5t27 11.5q45 0 43 -52q6 -3 11 -5t11 -2h2q21 0 44 16q23 17 44.5 42.5t38 50t24.5 37.5q-9 58 -21 119.5t-27.5 123t-34 119t-39.5 108.5q-7 17 -18 35q-10 16 -27 16h-4q-19 -2 -28 -30q-7 -20 -7 -48q0 -12 1 -26l-32 -4q-2 15 -2 30q0 13 2 27 q2 30 12 56.5t29 43t50 16.5q34 0 55.5 -18t35 -44t22.5 -51q19 -51 37 -117t31.5 -134.5t20.5 -127.5h2q28 49 54 108t43 120.5t17 115.5q0 25 -4.5 44t-10.5 27q-4 -3 -10.5 -4.5t-14.5 -1.5q-18 0 -29 11.5t-11 27.5q0 22 14.5 33t32.5 11q31 0 48 -19t24.5 -48t7.5 -61 q0 -66 -19 -135t-49.5 -136t-64.5 -129q-50 -90 -95.5 -147t-88.5 -82q-41 -25 -82 -25h-3q-34 2 -55 19.5t-21 43.5z" />
<glyph unicode="z" horiz-adv-x="471" d="M18 14q25 37 58.5 82.5t69 93.5t67.5 90q28 36 50.5 65t44.5 55.5t45 54.5h-2q-26 -28 -50 -35q-19 -5 -35 -5h-9q-21 2 -40 8.5t-37.5 13t-40.5 6.5q-17 0 -36 -11.5t-19 -46.5q0 -18 7 -38l-27 -9q-5 15 -9 32t-4 34q0 32 15 56t39.5 37.5t53.5 13.5q30 0 53 -8l46 -16 t53 -8q13 0 39 5.5t51 27.5l30 -28q-15 -19 -46.5 -57t-72 -88t-82.5 -104q-44 -57 -78 -100.5t-70 -92.5h1q23 27 50.5 39.5t64.5 12.5q25 0 48 -8t45.5 -16.5t44.5 -8.5q17 0 36 9.5t19 44.5q0 8 -1.5 18t-5.5 20l27 9q5 -15 8.5 -32t3.5 -34q0 -32 -14 -56t-38 -37.5 t-53 -13.5q-30 0 -59.5 9t-58.5 18t-59 9q-22 0 -44 -6.5t-47 -29.5z" />
<glyph unicode="{" horiz-adv-x="332" d="M5 231l3 53h23q56 0 77 23t24 73q1 20 0.5 41.5t-1.5 44t-1.5 45t0.5 44.5q4 71 22 116t58 67t109 22h13h15l-2 -34q-51 2 -81 -14t-43.5 -51t-16.5 -92q-1 -17 0 -40t2 -48t2 -48.5t0 -40.5q-3 -62 -37 -93.5t-78 -40.5v-2q43 -7 73.5 -40.5t27.5 -95.5q-1 -18 -4 -41.5 t-7 -49.5t-7 -49.5t-4 -40.5q-3 -57 7 -98.5t38 -63t79 -20.5l-2 -28h-15h-13q-68 0 -105.5 26.5t-51 77t-9.5 120.5q1 22 3.5 45.5t6 46.5t6 44.5t3.5 40.5q2 52 -16.5 76.5t-74.5 24.5h-23z" />
<glyph unicode="|" horiz-adv-x="235" d="M55 -271l51 1031h70l-58 -1031h-63z" />
<glyph unicode="}" horiz-adv-x="332" d="M-23 -271l2 34q52 -1 81.5 14.5t43 50.5t16.5 92q1 17 0 40t-2 48t-2 48.5t0 40.5q3 62 37.5 93.5t77.5 40.5v2q-43 8 -73.5 41t-27.5 95q1 18 4 41.5t7 49.5t7 49.5t4 40.5q3 57 -7 98.5t-38 63.5t-79 20l2 28h15.5h12.5q69 0 106 -26.5t50.5 -76.5t9.5 -121 q-1 -22 -3.5 -45t-6 -46t-6 -45t-3.5 -41q-2 -52 17 -76.5t74 -24.5h23l-3 -53h-23q-55 0 -76.5 -23t-24.5 -73q-1 -20 -0.5 -41.5t1.5 -44t1.5 -45t-0.5 -44.5q-3 -70 -21.5 -115.5t-58.5 -67.5t-109 -22h-12.5h-15.5z" />
<glyph unicode="~" d="M43 258l3 63q33 26 61.5 39.5t68.5 13.5q39 0 63 -10.5t42 -24.5t36 -26t45 -14q36 -3 69.5 10.5t59.5 36.5l-3 -63q-22 -22 -52 -37t-70 -15q-37 0 -62 11.5t-44.5 26t-40.5 26t-51 11.5q-41 0 -69 -14t-56 -34z" />
<glyph unicode="&#xa1;" horiz-adv-x="253" d="M44 -143l59 413h37l15 -413q1 -26 -14 -49.5t-46 -23.5q-21 0 -33 11t-16 28t-2 34zM72 452q2 27 21 45.5t42 18.5t39.5 -18.5t14.5 -45.5q-1 -27 -20 -46t-42 -19q-25 0 -40.5 19t-14.5 46z" />
<glyph unicode="&#xa2;" horiz-adv-x="482" d="M41 208q0 47 13 98.5t40.5 96.5t69.5 74.5t100 33.5l9 111h59l-11 -115q49 -10 79 -41t30 -72q0 -22 -11 -35.5t-31 -13.5q-24 -1 -33.5 14t-9.5 26q0 9 2.5 19t10.5 19q-5 28 -27.5 41t-51.5 13q-43 0 -72 -23t-46 -60t-24.5 -80t-7.5 -83q0 -70 15.5 -113t43.5 -62.5 t63 -19.5q26 0 54 13t54 42.5t45 76.5l35 -16q-34 -78 -81 -117t-100 -46l-11 -118h-52l10 118q-76 8 -120 62t-44 157z" />
<glyph unicode="&#xa3;" horiz-adv-x="547" d="M29 21q2 27 27.5 48.5t62.5 31.5q33 47 33 101t-11 110h-82l3 48h68q-6 29 -9.5 62t-1.5 75q4 67 30 116t69 76t96 27q59 0 91.5 -21t45 -49t12.5 -50q0 -20 -10.5 -33t-28.5 -14q-14 0 -23 6.5t-12.5 15.5t-3.5 16q0 8 2.5 18.5t10.5 18.5q-4 19 -23.5 37t-54.5 18 q-37 0 -64.5 -20t-42.5 -52.5t-17 -69.5q-3 -51 3 -93.5t12 -83.5h154l-3 -48h-144q4 -44 1 -77.5t-16.5 -62.5t-43.5 -63q14 2 28 3t28 1q27 0 51.5 -6.5t45.5 -14.5q31 -12 56.5 -23.5t44.5 -11.5q23 0 38 15.5t19 47.5h31q-6 -60 -33.5 -98t-76.5 -38q-36 0 -68 18.5 t-65 37.5q-25 15 -57.5 28t-61.5 7q-6 -38 -27 -64.5t-46 -26.5q-18 0 -28 11.5t-9 25.5z" />
<glyph unicode="&#xa4;" horiz-adv-x="555" d="M58 72l62 67q-32 50 -29 115q2 32 13.5 63.5t31.5 57.5l-57 69l41 33l50 -68q23 18 52 28.5t63 10.5t61.5 -10.5t48.5 -28.5l58 68l37 -33l-65 -69q17 -27 25.5 -58t7.5 -63q-2 -31 -12.5 -60.5t-29.5 -53.5l56 -68l-40 -32l-50 65q-22 -17 -52 -27.5t-66 -10.5t-64 10.5 t-50 27.5l-55 -65zM175 271q-1 -24 2 -52.5t13 -54t28.5 -42t48.5 -16.5t50 16.5t33 42t19 54t7 52.5q1 19 -3 43t-14.5 46.5t-29 37.5t-46.5 15t-48 -15t-33 -37.5t-19.5 -46.5t-7.5 -43z" />
<glyph unicode="&#xa5;" horiz-adv-x="699" d="M51 656l2 44h254l-2 -33q-69 0 -78 -30.5t19 -78.5q21 -37 39.5 -69t37.5 -64q8 -13 16.5 -26.5t17.5 -27.5t19 -30h2q39 68 72.5 124.5t69.5 117.5q6 10 14 23.5t18 28t20 24.5q-19 -1 -39 -1.5t-40 -1.5l2 44h204l-2 -33q-49 -3 -82.5 -34t-71.5 -95 q-36 -60 -68 -115.5t-62 -107.5h120l-2 -43l-129 -1l-4 -63l130 -1l-2 -43l-130 -1q-2 -32 -3 -62t-6 -61q21 1 41.5 2t41.5 2l-2 -44h-231l2 33q32 2 47 12.5t20 38t7 79.5l-133 -1l3 47l132 -1l3 63l-132 -1l3 47l103 -1l-131 229q-23 41 -34.5 67.5t-13.5 45.5 q-16 -1 -31 -1t-31 -1z" />
<glyph unicode="&#xa6;" horiz-adv-x="261" d="M68 -271l16 372h70l-23 -372h-63zM102 388l16 372h70l-23 -372h-63z" />
<glyph unicode="&#xa7;" horiz-adv-x="524" d="M37 306q2 41 27 87t68 82q-17 22 -26.5 49.5t-7.5 62.5q2 24 13.5 53.5t35 57t61 45t90.5 17.5q54 0 93.5 -18.5t61.5 -46.5t20 -59q-1 -19 -12 -35t-34 -16q-14 0 -23 6t-13 15.5t-4 19.5t4 18.5t8 15.5q1 16 -13.5 30t-38 23t-49.5 9q-45 0 -73.5 -17t-42 -41 t-15.5 -46q-2 -31 10 -56t34 -45.5t50.5 -39t58.5 -36.5q42 -25 80.5 -54t62 -67.5t19.5 -92.5q-1 -28 -13.5 -58.5t-34 -59t-52.5 -51.5q20 -22 30 -50.5t7 -65.5q-1 -24 -12.5 -53t-35.5 -56t-61.5 -44t-90.5 -17t-93 18.5t-61.5 47t-20.5 58.5q1 20 12.5 36t33.5 16 q15 0 23.5 -6.5t12.5 -15.5t4 -19q0 -20 -12 -34q0 -16 14.5 -30.5t38 -23t48.5 -8.5q47 0 74 14.5t40.5 36t16.5 43.5q5 28 -2.5 50.5t-24.5 41.5t-43 37.5t-59 39.5q-34 22 -68 44.5t-61.5 49.5t-42.5 61t-12 77zM113 343q-3 -43 12.5 -74t44 -55.5t62.5 -45t68.5 -41.5 t61.5 -47q20 22 31 51.5t13 58.5q3 43 -13 74t-44.5 55t-63 44.5t-69 41.5t-62.5 47q-19 -23 -29 -53t-12 -56z" />
<glyph unicode="&#xa8;" horiz-adv-x="351" d="M57 670q2 23 16.5 39t32.5 16q20 0 32 -16t10 -39q-1 -22 -15 -38t-32 -16q-19 0 -32 16t-12 38zM204 670q2 23 16.5 39t32.5 16q20 0 32 -16t10 -39q-1 -22 -15.5 -38t-31.5 -16q-19 0 -32 16t-12 38z" />
<glyph unicode="&#xa9;" horiz-adv-x="876" d="M46 348q5 83 37.5 156t88.5 128.5t130 86.5t161 31q88 0 159 -31t120.5 -86.5t74.5 -128.5t20 -156q-4 -83 -38 -155t-91 -126.5t-131 -85.5t-157 -31q-89 0 -160 29.5t-120.5 82.5t-73.5 126t-20 160zM110 348q-4 -70 15.5 -133t60 -112t100.5 -77t138 -28 q76 0 138.5 28t108.5 77t72.5 112t29.5 133q4 71 -16.5 135t-62 113.5t-101.5 78.5t-135 29t-137 -27.5t-107.5 -76.5t-72.5 -113.5t-31 -138.5zM204 346q2 44 20 89t51 82t80.5 59.5t107.5 22.5q37 0 70.5 -11t58.5 -30l-1 36h48l-9 -168h-38q-4 65 -40 93.5t-88 28.5 q-38 0 -76.5 -22t-65 -64t-29.5 -104q-3 -55 18.5 -99.5t62 -70.5t92.5 -26q33 0 75.5 19.5t71.5 53.5l29 -31q-31 -40 -69 -62.5t-74.5 -31t-65.5 -8.5q-69 0 -122 32.5t-81.5 88t-25.5 123.5z" />
<glyph unicode="&#xaa;" horiz-adv-x="402" d="M64 490q0 60 19.5 111.5t59.5 83t102 31.5q19 0 44.5 -2.5t45.5 -7.5q-5 -38 -10 -77t-9 -73.5t-6.5 -62t-2.5 -42.5q0 -13 1.5 -23.5t9.5 -10.5q9 0 18.5 9t19.5 43l22 -5q-4 -18 -13 -37.5t-24 -33t-41 -13.5q-25 0 -35.5 15.5t-10.5 42.5q0 17 3.5 38.5t8.5 45.5h-2 q-20 -62 -42 -92.5t-43 -40t-39 -9.5q-34 0 -55 25.5t-21 84.5zM120 501q0 -40 9 -59.5t25 -21.5q20 -2 40.5 21.5t37.5 63.5t28.5 86t12.5 89q-7 4 -20 6.5t-28 1.5q-38 -1 -61.5 -28t-33.5 -69t-10 -90z" />
<glyph unicode="&#xab;" horiz-adv-x="517" d="M25 264v4l294 280l24 -27l-219 -257v-2l182 -243l-29 -26zM238 267v3l212 194l25 -25l-137 -167v-2l112 -167l-29 -26z" />
<glyph unicode="&#xac;" d="M44 282l3 62l446 -2l-10 -185h-52l4 127z" />
<glyph unicode="&#xad;" horiz-adv-x="483" d="M63 287l3 66h355l-3 -62z" />
<glyph unicode="&#xae;" horiz-adv-x="876" d="M46 348q5 83 37.5 156t88.5 128.5t130 86.5t161 31q88 0 159 -31t120.5 -86.5t74.5 -128.5t20 -156q-4 -83 -38 -155t-91 -126.5t-131 -85.5t-157 -31q-89 0 -160 29.5t-120.5 82.5t-73.5 126t-20 160zM110 348q-4 -70 15.5 -133t60 -112t100.5 -77t138 -28 q76 0 138.5 28t108.5 77t72.5 112t29.5 133q4 71 -16.5 135t-62 113.5t-101.5 78.5t-135 29t-137 -27.5t-107.5 -76.5t-72.5 -113.5t-31 -138.5zM247 136l2 34q37 1 44 23t8 57l14 261q1 14 2 26t2 22q-13 -1 -25 -2t-25 -3l2 42q25 1 57.5 2t65.5 2t58 0q64 -1 102.5 -20 t55.5 -48t15 -64q-1 -22 -13 -49t-39 -50t-75 -36q14 -12 20.5 -18.5t17.5 -23.5q35 -56 55 -83t34 -34.5t28 -7.5l-2 -34h-82q-15 4 -31.5 25t-39.5 55q-13 20 -25 40t-23 38t-21 32q-10 0 -28.5 1t-26.5 2l-5 -100q-1 -17 -2 -29.5t-3 -21.5q12 1 24 1t24 1v-40h-165z M377 365q12 -1 24 -1.5t25 0.5q24 1 52.5 11t50 31.5t23.5 58.5q2 33 -15 54.5t-45 31t-59 6.5q-37 -3 -43 -25.5t-8 -58.5z" />
<glyph unicode="&#xaf;" horiz-adv-x="358" d="M45 645l3 56h265l-3 -52z" />
<glyph unicode="&#xb0;" horiz-adv-x="387" d="M59 562q3 43 25 78t58 55.5t78 20.5q71 0 108.5 -44.5t33.5 -109.5q-2 -43 -24 -77t-57.5 -53t-78.5 -19q-47 0 -79.5 19t-49 53t-14.5 77zM119 564q-2 -41 21.5 -73t65.5 -32q41 0 68 32t29 73q2 42 -21.5 74t-65.5 32q-41 0 -68 -32t-29 -74z" />
<glyph unicode="&#xb1;" d="M46 0l2 50h446l-2 -50h-446zM46 340l3 50h446l-3 -50h-446zM233 137l24 446h50l-24 -446h-50z" />
<glyph unicode="&#xb2;" horiz-adv-x="374" d="M58 306q2 42 20 74t46.5 59.5t60.5 52.5q44 35 57.5 65t14.5 51q2 32 -14 53t-48 21q-25 0 -43.5 -14t-22.5 -31q6 -6 7.5 -12.5t1.5 -12.5q0 -10 -8 -19t-21 -9q-11 0 -19.5 9t-8.5 22q0 21 15.5 44.5t44.5 40t69 16.5q31 0 58 -11.5t43 -35t14 -60.5q-1 -15 -6 -30.5 t-18 -34t-37.5 -41t-64.5 -50.5q-36 -25 -58 -47.5t-30 -45.5l89 -2q28 -1 50 -0.5t35 9t14 31.5h24l-9 -92h-256z" />
<glyph unicode="&#xb3;" horiz-adv-x="358" d="M57 395q0 15 8 29.5t27 14.5q14 0 21.5 -9.5t7.5 -20.5q0 -7 -2 -13.5t-8 -13.5q2 -20 19.5 -32t42.5 -12q40 0 62.5 27t23.5 58q1 17 -5 37.5t-24 36t-53 15.5h-14t-15 -1l1 27h6h6q39 0 58.5 14.5t27 32.5t7.5 28q2 29 -13.5 51.5t-52.5 20.5q-25 -1 -41 -15t-21 -31 q5 -6 6 -11t1 -10q0 -10 -8 -18.5t-21 -8.5q-11 1 -18.5 9t-7.5 21q0 20 14.5 42t42.5 37.5t66 15.5q53 0 83 -26.5t28 -70.5q-1 -25 -24.5 -51.5t-66.5 -37.5q53 -4 77.5 -35t22.5 -72q-2 -50 -42 -84t-108 -33q-53 2 -83 27.5t-31 61.5z" />
<glyph unicode="&#xb4;" horiz-adv-x="240" d="M45 599l78 132q14 23 27 28.5t22.5 2t12.5 -6.5q4 -4 7.5 -13t0.5 -23t-21 -33l-103 -107z" />
<glyph unicode="&#xb5;" horiz-adv-x="592" d="M58 -188l36 688h78l-14 -258q-3 -57 3.5 -102.5t28.5 -72.5t65 -27q37 0 69.5 18t53.5 47l21 395h76l-18 -364q-2 -35 2 -55.5t13.5 -29.5t23.5 -9q9 0 19.5 4t24.5 14l9 -16q-9 -11 -24.5 -24t-36 -22t-43.5 -9q-37 0 -49 22t-16 47h-1q-67 -69 -148 -69q-41 0 -67 19 t-43 64h-3q0 -69 6.5 -126.5t13 -99.5t4.5 -66q-1 -19 -10 -35t-30 -16q-28 0 -37 21.5t-7 61.5z" />
<glyph unicode="&#xb6;" horiz-adv-x="490" d="M50 554q3 48 25 80.5t55.5 49t68.5 16.5h218l-50 -955h-66l48 914l-87 -2l-49 -912h-67l37 663q-33 3 -64.5 18t-51.5 46t-17 82z" />
<glyph unicode="&#xb7;" horiz-adv-x="237" d="M63 326q2 26 20.5 44.5t41.5 18.5q24 0 39 -18.5t13 -44.5q-1 -27 -19 -45t-41 -18t-39 18t-15 45z" />
<glyph unicode="&#xb8;" horiz-adv-x="293" d="M45 -209q26 5 49 11.5t40.5 16t28 21.5t10.5 27q0 21 -14 27t-32.5 2.5t-33.5 -13.5l-34 17l35 108h50l-30 -85q14 9 32 14t35 5q33 0 50.5 -19t15.5 -46q-3 -30 -24 -51t-52 -34t-63.5 -20.5t-58.5 -11.5z" />
<glyph unicode="&#xb9;" horiz-adv-x="270" d="M60 635l113 81h25l-16 -334q-1 -11 -2 -21t-3 -18q13 1 26 1t26 1l-2 -34h-153l1 28q31 0 41.5 21.5t11.5 51.5l12 234l-66 -37z" />
<glyph unicode="&#xba;" horiz-adv-x="362" d="M61 523q0 51 18.5 95t53.5 71t83 27q51 0 85 -38t34 -105q0 -50 -18 -95.5t-52.5 -74t-83.5 -28.5q-41 0 -68 20.5t-39.5 54.5t-12.5 73zM121 543q0 -29 5 -60.5t20 -53.5t43 -22q31 0 49.5 24t27 58.5t9.5 64.5q1 29 -4.5 60t-20 52t-43.5 21q-39 0 -61.5 -41 t-24.5 -103z" />
<glyph unicode="&#xbb;" horiz-adv-x="521" d="M37 102l137 167v2l-112 167l29 26l183 -190v-3l-212 -194zM169 20l219 257v2l-182 243l29 26l252 -271v-4l-294 -280z" />
<glyph unicode="&#xbc;" horiz-adv-x="718" d="M60 635l113 81h25l-16 -334q-1 -11 -2 -21t-3 -18q13 1 26 1t26 1l-2 -34h-153l1 28q31 0 41.5 21.5t11.5 51.5l12 234l-66 -37zM87 7l501 709l35 -27l-505 -705zM389 109l2 30l211 276h27l-13 -269l56 -1l-2 -36h-56l-4 -73l42 2l-2 -34h-146l1 29q31 1 41.5 18.5 t11.5 45.5v12h-169zM437 149l124 -2l10 179h-1z" />
<glyph unicode="&#xbd;" horiz-adv-x="733" d="M60 635l113 81h25l-16 -334q-1 -11 -2 -21t-3 -18q13 1 26 1t26 1l-2 -34h-153l1 28q31 0 41.5 21.5t11.5 51.5l12 234l-66 -37zM79 7l501 709l35 -27l-505 -705zM420 4q2 42 20 74t46.5 59.5t60.5 52.5q44 35 57.5 65t14.5 51q2 32 -14 53t-48 21q-25 0 -43.5 -14 t-22.5 -31q6 -6 7.5 -12.5t1.5 -12.5q0 -10 -8 -19t-21 -9q-11 0 -19.5 9t-8.5 22q0 21 15.5 44.5t44.5 40t69 16.5q31 0 58 -11.5t43 -35t14 -60.5q-1 -15 -6 -30.5t-18 -34t-37.5 -41t-64.5 -50.5q-36 -25 -58 -47.5t-30 -45.5l89 -2q28 -1 50 -0.5t35 9t14 31.5h24 l-9 -92h-256z" />
<glyph unicode="&#xbe;" horiz-adv-x="793" d="M57 395q0 15 8 29.5t27 14.5q14 0 21.5 -9.5t7.5 -20.5q0 -7 -2 -13.5t-8 -13.5q2 -20 19.5 -32t42.5 -12q40 0 62.5 27t23.5 58q1 17 -5 37.5t-24 36t-53 15.5h-14t-15 -1l1 27h6h6q39 0 58.5 14.5t27 32.5t7.5 28q2 29 -13.5 51.5t-52.5 20.5q-25 -1 -41 -15t-21 -31 q5 -6 6 -11t1 -10q0 -10 -8 -18.5t-21 -8.5q-11 1 -18.5 9t-7.5 21q0 20 14.5 42t42.5 37.5t66 15.5q53 0 83 -26.5t28 -70.5q-1 -25 -24.5 -51.5t-66.5 -37.5q53 -4 77.5 -35t22.5 -72q-2 -50 -42 -84t-108 -33q-53 2 -83 27.5t-31 61.5zM152 7l501 709l35 -27l-505 -705z M464 109l2 30l211 276h27l-13 -269l56 -1l-2 -36h-56l-4 -73l42 2l-2 -34h-146l1 29q31 1 41.5 18.5t11.5 45.5v12h-169zM512 149l124 -2l10 179h-1z" />
<glyph unicode="&#xbf;" horiz-adv-x="465" d="M13 -42q5 41 29 74.5t58 61.5t67 52t55.5 45.5t23.5 41.5q1 12 -7.5 22.5t-31.5 10.5q-7 0 -18 -1.5t-21 -5.5l-10 35q17 10 37.5 14t42.5 4q13 0 31 -6.5t32 -21t13 -39.5q-1 -21 -15 -40t-35 -37t-45 -38q-26 -21 -52 -46.5t-43.5 -56.5t-20.5 -71q-3 -36 6.5 -66.5 t35.5 -48.5t72 -18q29 0 54 11t41.5 27.5t19.5 31.5q-9 8 -12 19t-3 20q0 12 5.5 22.5t16 16.5t23.5 6q20 0 33.5 -13.5t13.5 -35.5q0 -30 -26 -63.5t-73 -57t-110 -23.5q-77 0 -119.5 26t-57.5 66.5t-10 81.5zM188 457q1 25 17.5 42t39.5 17q21 0 36.5 -15.5t14.5 -43.5 q-1 -24 -19 -41.5t-39 -17.5q-22 0 -36.5 17.5t-13.5 41.5z" />
<glyph unicode="&#xc0;" horiz-adv-x="631" d="M-14 0l1 33q25 1 43 16.5t33 43.5t30 65l226 561h22l191 -569q8 -21 15.5 -54t5.5 -56l65 4l-2 -44h-217l1 33q38 1 50 17t10 38t-8 40l-29 94l-256 -6l-40 -107q-9 -24 -15.5 -38t-15.5 -31l75 4l-2 -44h-183zM183 259h229l-65 200q-10 30 -19.5 60t-20.5 61l-22 -56 l-22 -56zM191 903.5q3 9.5 6 13.5q3 3 11 8t21.5 3t32.5 -20l127 -118l-21 -28l-146 93q-22 14 -28 26.5t-3 22z" />
<glyph unicode="&#xc1;" horiz-adv-x="631" d="M-14 0l1 33q25 1 43 16.5t33 43.5t30 65l226 561h22l191 -569q8 -21 15.5 -54t5.5 -56l65 4l-2 -44h-217l1 33q38 1 50 17t10 38t-8 40l-29 94l-256 -6l-40 -107q-9 -24 -15.5 -38t-15.5 -31l75 4l-2 -44h-183zM183 259h229l-65 200q-10 30 -19.5 60t-20.5 61l-22 -56 l-22 -56zM284 790l127 118q19 18 32.5 20t22 -3t10.5 -8q4 -4 6.5 -13.5t-3.5 -22t-28 -26.5l-146 -93z" />
<glyph unicode="&#xc2;" horiz-adv-x="631" d="M-14 0l1 33q25 1 43 16.5t33 43.5t30 65l226 561h22l191 -569q8 -21 15.5 -54t5.5 -56l65 4l-2 -44h-217l1 33q38 1 50 17t10 38t-8 40l-29 94l-256 -6l-40 -107q-9 -24 -15.5 -38t-15.5 -31l75 4l-2 -44h-183zM140 792l196 140h2l181 -141l-18 -28l-176 89l-170 -87z M183 259h229l-65 200q-10 30 -19.5 60t-20.5 61l-22 -56l-22 -56z" />
<glyph unicode="&#xc3;" horiz-adv-x="631" d="M-14 0l1 33q25 1 43 16.5t33 43.5t30 65l226 561h22l191 -569q8 -21 15.5 -54t5.5 -56l65 4l-2 -44h-217l1 33q38 1 50 17t10 38t-8 40l-29 94l-256 -6l-40 -107q-9 -24 -15.5 -38t-15.5 -31l75 4l-2 -44h-183zM136 810q20 44 53.5 70t64.5 27q30 1 50.5 -9t37 -23.5 t32.5 -23.5t36 -10q27 0 49 16.5t38 42.5l26 -14q-16 -41 -36 -63t-42 -30.5t-44 -8.5q-26 0 -45.5 10t-36.5 23t-34.5 23t-38.5 10q-22 0 -42.5 -14.5t-39.5 -42.5zM183 259h229l-65 200q-10 30 -19.5 60t-20.5 61l-22 -56l-22 -56z" />
<glyph unicode="&#xc4;" horiz-adv-x="631" d="M-14 0l1 33q25 1 43 16.5t33 43.5t30 65l226 561h22l191 -569q8 -21 15.5 -54t5.5 -56l65 4l-2 -44h-217l1 33q38 1 50 17t10 38t-8 40l-29 94l-256 -6l-40 -107q-9 -24 -15.5 -38t-15.5 -31l75 4l-2 -44h-183zM183 259h229l-65 200q-10 30 -19.5 60t-20.5 61l-22 -56 l-22 -56zM199 839q1 26 17 43t37 17q20 0 33 -17t11 -43q-1 -25 -16.5 -42t-34.5 -17q-21 0 -34.5 17t-12.5 42zM361 839q1 26 17 43t36 17q21 0 33.5 -17t11.5 -43q-1 -25 -16.5 -42t-35.5 -17t-33.5 17t-12.5 42z" />
<glyph unicode="&#xc5;" horiz-adv-x="631" d="M-14 0l1 33q25 1 43 16.5t33 43.5t30 65l226 561h22l191 -569q8 -21 15.5 -54t5.5 -56l65 4l-2 -44h-217l1 33q38 1 50 17t10 38t-8 40l-29 94l-256 -6l-40 -107q-9 -24 -15.5 -38t-15.5 -31l75 4l-2 -44h-183zM183 259h229l-65 200q-10 30 -19.5 60t-20.5 61l-22 -56 l-22 -56zM218 822q-1 35 14.5 60.5t41.5 39.5t54 14q27 0 52 -10.5t42 -33t18 -58.5t-15 -61.5t-41.5 -39.5t-53.5 -14t-53 10.5t-41 33.5t-18 59zM271 832q0 -37 17.5 -60.5t45.5 -22.5q20 1 36.5 20.5t16.5 50.5q0 47 -18.5 68t-44.5 19q-23 -1 -38 -22t-15 -53z" />
<glyph unicode="&#xc6;" horiz-adv-x="955" d="M-24 0l2 33q26 0 47 14.5t38 36t31 41.5l389 535q-22 -1 -44.5 -2t-45.5 -2l2 44h496l-4 -175h-33q3 59 -13.5 89.5t-46.5 41t-68 9.5l-86 -2q-37 -1 -53.5 -14t-21 -38.5t-7.5 -66.5l-9 -161h74q42 0 68.5 5t39.5 25t15 64h33l-11 -218h-33q2 44 -9 62.5t-37 22t-68 3.5 q-19 0 -37.5 -0.5t-36.5 -1.5l-12 -227q-1 -27 -3 -46t-4 -32l193 -3q44 0 76.5 14.5t51.5 49.5t22 94h34l-16 -195h-512l2 36q30 1 45.5 11.5t21.5 31.5t7 51l5 91l-122 -2t-122 -3l-45 -62q-20 -28 -41 -56t-41 -57v-1l77 4l-2 -44h-186zM245 259h215l16 323h-1 q-15 -22 -31 -44t-31.5 -44t-31.5 -44z" />
<glyph unicode="&#xc7;" horiz-adv-x="686" d="M50 339q4 71 28 138t69 121t111.5 86t153.5 32q56 0 104.5 -15t92.5 -45h1l-2 54h54l-12 -231h-36q-5 94 -58 145t-140 51q-53 0 -100.5 -22.5t-85 -64.5t-60 -101t-26.5 -133q-5 -94 27.5 -166t91 -112t132.5 -40q65 0 129 28.5t107 83.5l25 -21q-46 -58 -98 -89 t-101.5 -42.5t-90.5 -11.5q-75 0 -135 27t-102 75.5t-62.5 113t-16.5 139.5zM284 -218q26 5 49 12.5t41.5 18t29.5 23t12 27.5q1 17 -8.5 25t-26.5 8q-12 0 -24.5 -3.5t-22.5 -11.5l-32 17l34 110h58l-32 -83q15 9 35.5 13.5t32.5 4.5q38 0 54 -21t14 -50q-2 -30 -25 -52 t-56 -36.5t-67 -22.5t-60 -12z" />
<glyph unicode="&#xc8;" horiz-adv-x="619" d="M41 0l2 33q38 2 52.5 17.5t17.5 43t5 62.5l24 432q1 20 3 38.5t4 33.5q-18 -1 -36.5 -2t-36.5 -2l2 44h477l-4 -175h-33q3 59 -13.5 89.5t-46.5 41t-68 9.5l-86 -2q-37 -1 -53.5 -14t-21 -38.5t-7.5 -66.5l-9 -160l72 -1q42 0 69 5t40.5 25t15.5 64h33l-11 -218h-33 q2 44 -9 63t-37 23t-69 2l-73 -3l-12 -229q-1 -27 -3 -46t-4 -32l191 3q44 1 77 14.5t52.5 47.5t22.5 93h34l-16 -195h-512zM232 903.5q3 9.5 6 13.5q3 3 11 8t21.5 3t32.5 -20l127 -118l-21 -28l-146 93q-22 14 -28 26.5t-3 22z" />
<glyph unicode="&#xc9;" horiz-adv-x="619" d="M41 0l2 33q38 2 52.5 17.5t17.5 43t5 62.5l24 432q1 20 3 38.5t4 33.5q-18 -1 -36.5 -2t-36.5 -2l2 44h477l-4 -175h-33q3 59 -13.5 89.5t-46.5 41t-68 9.5l-86 -2q-37 -1 -53.5 -14t-21 -38.5t-7.5 -66.5l-9 -160l72 -1q42 0 69 5t40.5 25t15.5 64h33l-11 -218h-33 q2 44 -9 63t-37 23t-69 2l-73 -3l-12 -229q-1 -27 -3 -46t-4 -32l191 3q44 1 77 14.5t52.5 47.5t22.5 93h34l-16 -195h-512zM325 790l127 118q19 18 32.5 20t22 -3t10.5 -8q4 -4 6.5 -13.5t-3.5 -22t-28 -26.5l-146 -93z" />
<glyph unicode="&#xca;" horiz-adv-x="619" d="M41 0l2 33q38 2 52.5 17.5t17.5 43t5 62.5l24 432q1 20 3 38.5t4 33.5q-18 -1 -36.5 -2t-36.5 -2l2 44h477l-4 -175h-33q3 59 -13.5 89.5t-46.5 41t-68 9.5l-86 -2q-37 -1 -53.5 -14t-21 -38.5t-7.5 -66.5l-9 -160l72 -1q42 0 69 5t40.5 25t15.5 64h33l-11 -218h-33 q2 44 -9 63t-37 23t-69 2l-73 -3l-12 -229q-1 -27 -3 -46t-4 -32l191 3q44 1 77 14.5t52.5 47.5t22.5 93h34l-16 -195h-512zM181 792l196 140h2l181 -141l-18 -28l-176 89l-170 -87z" />
<glyph unicode="&#xcb;" horiz-adv-x="619" d="M41 0l2 33q38 2 52.5 17.5t17.5 43t5 62.5l24 432q1 20 3 38.5t4 33.5q-18 -1 -36.5 -2t-36.5 -2l2 44h477l-4 -175h-33q3 59 -13.5 89.5t-46.5 41t-68 9.5l-86 -2q-37 -1 -53.5 -14t-21 -38.5t-7.5 -66.5l-9 -160l72 -1q42 0 69 5t40.5 25t15.5 64h33l-11 -218h-33 q2 44 -9 63t-37 23t-69 2l-73 -3l-12 -229q-1 -27 -3 -46t-4 -32l191 3q44 1 77 14.5t52.5 47.5t22.5 93h34l-16 -195h-512zM240 839q1 26 17 43t37 17q20 0 33 -17t11 -43q-1 -25 -16.5 -42t-34.5 -17q-21 0 -34.5 17t-12.5 42zM402 839q1 26 17 43t36 17q21 0 33.5 -17 t11.5 -43q-1 -25 -16.5 -42t-35.5 -17t-33.5 17t-12.5 42z" />
<glyph unicode="&#xcc;" horiz-adv-x="333" d="M41 0l2 33q38 2 53 17.5t18 43t4 62.5l23 432q1 20 3 38.5t4 33.5l-36 -2l-36 -2l2 44h221l-2 -33q-35 -1 -50 -14.5t-19 -38t-6 -60.5l-23 -435q-1 -27 -3 -46.5t-4 -32.5l36 2l36 2l-2 -44h-221zM66 903.5q3 9.5 6 13.5q3 3 11 8t21.5 3t32.5 -20l127 -118l-21 -28 l-146 93q-22 14 -28 26.5t-3 22z" />
<glyph unicode="&#xcd;" horiz-adv-x="333" d="M41 0l2 33q38 2 53 17.5t18 43t4 62.5l23 432q1 20 3 38.5t4 33.5l-36 -2l-36 -2l2 44h221l-2 -33q-35 -1 -50 -14.5t-19 -38t-6 -60.5l-23 -435q-1 -27 -3 -46.5t-4 -32.5l36 2l36 2l-2 -44h-221zM159 790l127 118q19 18 32.5 20t22 -3t10.5 -8q4 -4 6.5 -13.5t-3.5 -22 t-28 -26.5l-146 -93z" />
<glyph unicode="&#xce;" horiz-adv-x="333" d="M41 0l2 33q38 2 53 17.5t18 43t4 62.5l23 432q1 20 3 38.5t4 33.5l-36 -2l-36 -2l2 44h221l-2 -33q-35 -1 -50 -14.5t-19 -38t-6 -60.5l-23 -435q-1 -27 -3 -46.5t-4 -32.5l36 2l36 2l-2 -44h-221zM46 794l167 140h1l154 -141l-19 -27l-144 88l-143 -80z" />
<glyph unicode="&#xcf;" horiz-adv-x="333" d="M41 0l2 33q38 2 53 17.5t18 43t4 62.5l23 432q1 20 3 38.5t4 33.5l-36 -2l-36 -2l2 44h221l-2 -33q-35 -1 -50 -14.5t-19 -38t-6 -60.5l-23 -435q-1 -27 -3 -46.5t-4 -32.5l36 2l36 2l-2 -44h-221zM74 839q1 26 17 43t37 17q20 0 33 -17t11 -43q-1 -25 -16.5 -42 t-34.5 -17q-21 0 -34.5 17t-12.5 42zM236 839q1 26 17 43t36 17q21 0 33.5 -17t11.5 -43q-1 -25 -16.5 -42t-35.5 -17t-33.5 17t-12.5 42z" />
<glyph unicode="&#xd0;" horiz-adv-x="738" d="M24 328l2 50h316l-2 -46zM40 0l2 33q38 2 53 17.5t18 43t4 62.5l24 432q2 20 3.5 38.5t3.5 33.5q-19 -1 -37 -2t-37 -2l3 44l232 1q87 0 158 -19t122 -59.5t78.5 -101.5t27.5 -145q0 -73 -24.5 -140.5t-74 -120.5t-124 -84t-173.5 -31h-259zM191 40q22 -1 40 -1.5 t34.5 -0.5h32.5q91 0 159 45.5t106.5 123t38.5 173.5q0 129 -73 206.5t-226 77.5q-38 0 -54.5 -12t-21 -37t-6.5 -64l-23 -433q-1 -27 -3 -46t-4 -32z" />
<glyph unicode="&#xd1;" horiz-adv-x="762" d="M45 0l1 33q31 0 45.5 13.5t19.5 32t5 33.5l22 447q2 26 3 51l2 50q-16 -1 -33 -2l-34 -2l2 44h119l318 -452l42 -60l42 -60h2l21 460q2 22 3.5 40t3.5 32l-36 -2l-36 -2l2 44h184l-2 -33q-37 -1 -51.5 -17t-17 -43t-4.5 -63l-28 -555h-48l-340 486q-17 25 -34.5 49 t-34.5 49h-2l-16 -434q-1 -25 -2 -50.5t-5 -48.5l36 2l36 2l-2 -44h-183zM219 810q20 44 53.5 70t64.5 27q30 1 50.5 -9t37 -23.5t32.5 -23.5t36 -10q27 0 49 16.5t38 42.5l26 -14q-16 -41 -36 -63t-42 -30.5t-44 -8.5q-26 0 -45.5 10t-36.5 23t-34.5 23t-38.5 10 q-22 0 -42.5 -14.5t-39.5 -42.5z" />
<glyph unicode="&#xd2;" horiz-adv-x="788" d="M49 327q0 77 25.5 147t73.5 124.5t115 86t150 31.5q88 0 151 -31t103.5 -81.5t59.5 -112t19 -122.5q0 -64 -22.5 -131.5t-67.5 -125t-113.5 -93t-160.5 -35.5q-88 0 -151 30.5t-103.5 80.5t-59.5 110.5t-19 121.5zM145 349q-1 -51 12 -107.5t41.5 -105.5t75 -80 t113.5 -31q65 0 114 29t82 77.5t50 106.5t17 115q0 59 -15.5 116.5t-46 104t-75.5 74.5t-105 28q-63 0 -111.5 -29t-82 -77t-51.5 -105.5t-18 -115.5zM286 903.5q3 9.5 6 13.5q3 3 11 8t21.5 3t32.5 -20l127 -118l-21 -28l-146 93q-22 14 -28 26.5t-3 22z" />
<glyph unicode="&#xd3;" horiz-adv-x="788" d="M49 327q0 77 25.5 147t73.5 124.5t115 86t150 31.5q88 0 151 -31t103.5 -81.5t59.5 -112t19 -122.5q0 -64 -22.5 -131.5t-67.5 -125t-113.5 -93t-160.5 -35.5q-88 0 -151 30.5t-103.5 80.5t-59.5 110.5t-19 121.5zM145 349q-1 -51 12 -107.5t41.5 -105.5t75 -80 t113.5 -31q65 0 114 29t82 77.5t50 106.5t17 115q0 59 -15.5 116.5t-46 104t-75.5 74.5t-105 28q-63 0 -111.5 -29t-82 -77t-51.5 -105.5t-18 -115.5zM379 790l127 118q19 18 32.5 20t22 -3t10.5 -8q4 -4 6.5 -13.5t-3.5 -22t-28 -26.5l-146 -93z" />
<glyph unicode="&#xd4;" horiz-adv-x="788" d="M49 327q0 77 25.5 147t73.5 124.5t115 86t150 31.5q88 0 151 -31t103.5 -81.5t59.5 -112t19 -122.5q0 -64 -22.5 -131.5t-67.5 -125t-113.5 -93t-160.5 -35.5q-88 0 -151 30.5t-103.5 80.5t-59.5 110.5t-19 121.5zM145 349q-1 -51 12 -107.5t41.5 -105.5t75 -80 t113.5 -31q65 0 114 29t82 77.5t50 106.5t17 115q0 59 -15.5 116.5t-46 104t-75.5 74.5t-105 28q-63 0 -111.5 -29t-82 -77t-51.5 -105.5t-18 -115.5zM235 792l196 140h2l181 -141l-18 -28l-176 89l-170 -87z" />
<glyph unicode="&#xd5;" horiz-adv-x="788" d="M49 327q0 77 25.5 147t73.5 124.5t115 86t150 31.5q88 0 151 -31t103.5 -81.5t59.5 -112t19 -122.5q0 -64 -22.5 -131.5t-67.5 -125t-113.5 -93t-160.5 -35.5q-88 0 -151 30.5t-103.5 80.5t-59.5 110.5t-19 121.5zM145 349q-1 -51 12 -107.5t41.5 -105.5t75 -80 t113.5 -31q65 0 114 29t82 77.5t50 106.5t17 115q0 59 -15.5 116.5t-46 104t-75.5 74.5t-105 28q-63 0 -111.5 -29t-82 -77t-51.5 -105.5t-18 -115.5zM231 810q20 44 53.5 70t64.5 27q30 1 50.5 -9t37 -23.5t32.5 -23.5t36 -10q27 0 49 16.5t38 42.5l26 -14q-16 -41 -36 -63 t-42 -30.5t-44 -8.5q-26 0 -45.5 10t-36.5 23t-34.5 23t-38.5 10q-22 0 -42.5 -14.5t-39.5 -42.5z" />
<glyph unicode="&#xd6;" horiz-adv-x="788" d="M49 327q0 77 25.5 147t73.5 124.5t115 86t150 31.5q88 0 151 -31t103.5 -81.5t59.5 -112t19 -122.5q0 -64 -22.5 -131.5t-67.5 -125t-113.5 -93t-160.5 -35.5q-88 0 -151 30.5t-103.5 80.5t-59.5 110.5t-19 121.5zM145 349q-1 -51 12 -107.5t41.5 -105.5t75 -80 t113.5 -31q65 0 114 29t82 77.5t50 106.5t17 115q0 59 -15.5 116.5t-46 104t-75.5 74.5t-105 28q-63 0 -111.5 -29t-82 -77t-51.5 -105.5t-18 -115.5zM294 839q1 26 17 43t37 17q20 0 33 -17t11 -43q-1 -25 -16.5 -42t-34.5 -17q-21 0 -34.5 17t-12.5 42zM456 839 q1 26 17 43t36 17q21 0 33.5 -17t11.5 -43q-1 -25 -16.5 -42t-35.5 -17t-33.5 17t-12.5 42z" />
<glyph unicode="&#xd7;" d="M86 219l332 316l32 -34l-332 -316zM103 504l38 35l299 -315l-37 -36z" />
<glyph unicode="&#xd8;" horiz-adv-x="787" d="M48 327q0 77 25.5 147t73.5 124.5t115 86t150 31.5q50 0 93 -10.5t77 -30.5l50 80l50 -34l-52 -80q59 -52 87 -125t28 -147q0 -64 -22.5 -131.5t-67.5 -125t-113.5 -93t-160.5 -35.5q-45 0 -83 8.5t-70 23.5l-60 -93l-44 27l58 92q-46 34 -76 80.5t-44 99.5t-14 105z M144 349q-1 -60 17 -128t59 -118l327 518q-28 26 -63 40.5t-77 14.5q-63 0 -111.5 -29t-82 -77t-51 -105.5t-18.5 -115.5zM259 65q26 -19 57.5 -29.5t69.5 -10.5q65 0 114 29t82 77.5t50 106.5t17 115q0 59 -15.5 117t-46.5 104z" />
<glyph unicode="&#xd9;" horiz-adv-x="744" d="M54 657l2 43h222l-2 -33q-34 0 -49 -14t-19.5 -32.5t-5.5 -32.5l-13 -253q-3 -56 2 -108.5t24 -94.5t59 -66.5t107 -24.5q72 0 118.5 34t71.5 93.5t30 137.5l18 282q2 20 3.5 38.5t3.5 33.5l-36 -2l-36 -2l2 44h187l-1 -33q-38 -1 -53 -17t-18 -43t-5 -63l-14 -233 q-4 -65 -21 -124t-50.5 -104.5t-86.5 -72t-128 -26.5q-80 0 -133 21t-82.5 64.5t-40 110.5t-5.5 160l13 239q2 26 3.5 44t4.5 37q-18 -1 -36 -1.5t-36 -1.5zM277 903.5q3 9.5 6 13.5q3 3 11 8t21.5 3t32.5 -20l127 -118l-21 -28l-146 93q-22 14 -28 26.5t-3 22z" />
<glyph unicode="&#xda;" horiz-adv-x="744" d="M54 657l2 43h222l-2 -33q-34 0 -49 -14t-19.5 -32.5t-5.5 -32.5l-13 -253q-3 -56 2 -108.5t24 -94.5t59 -66.5t107 -24.5q72 0 118.5 34t71.5 93.5t30 137.5l18 282q2 20 3.5 38.5t3.5 33.5l-36 -2l-36 -2l2 44h187l-1 -33q-38 -1 -53 -17t-18 -43t-5 -63l-14 -233 q-4 -65 -21 -124t-50.5 -104.5t-86.5 -72t-128 -26.5q-80 0 -133 21t-82.5 64.5t-40 110.5t-5.5 160l13 239q2 26 3.5 44t4.5 37q-18 -1 -36 -1.5t-36 -1.5zM370 790l127 118q19 18 32.5 20t22 -3t10.5 -8q4 -4 6.5 -13.5t-3.5 -22t-28 -26.5l-146 -93z" />
<glyph unicode="&#xdb;" horiz-adv-x="744" d="M54 657l2 43h222l-2 -33q-34 0 -49 -14t-19.5 -32.5t-5.5 -32.5l-13 -253q-3 -56 2 -108.5t24 -94.5t59 -66.5t107 -24.5q72 0 118.5 34t71.5 93.5t30 137.5l18 282q2 20 3.5 38.5t3.5 33.5l-36 -2l-36 -2l2 44h187l-1 -33q-38 -1 -53 -17t-18 -43t-5 -63l-14 -233 q-4 -65 -21 -124t-50.5 -104.5t-86.5 -72t-128 -26.5q-80 0 -133 21t-82.5 64.5t-40 110.5t-5.5 160l13 239q2 26 3.5 44t4.5 37q-18 -1 -36 -1.5t-36 -1.5zM226 792l196 140h2l181 -141l-18 -28l-176 89l-170 -87z" />
<glyph unicode="&#xdc;" horiz-adv-x="744" d="M54 657l2 43h222l-2 -33q-34 0 -49 -14t-19.5 -32.5t-5.5 -32.5l-13 -253q-3 -56 2 -108.5t24 -94.5t59 -66.5t107 -24.5q72 0 118.5 34t71.5 93.5t30 137.5l18 282q2 20 3.5 38.5t3.5 33.5l-36 -2l-36 -2l2 44h187l-1 -33q-38 -1 -53 -17t-18 -43t-5 -63l-14 -233 q-4 -65 -21 -124t-50.5 -104.5t-86.5 -72t-128 -26.5q-80 0 -133 21t-82.5 64.5t-40 110.5t-5.5 160l13 239q2 26 3.5 44t4.5 37q-18 -1 -36 -1.5t-36 -1.5zM285 839q1 26 17 43t37 17q20 0 33 -17t11 -43q-1 -25 -16.5 -42t-34.5 -17q-21 0 -34.5 17t-12.5 42zM447 839 q1 26 17 43t36 17q21 0 33.5 -17t11.5 -43q-1 -25 -16.5 -42t-35.5 -17t-33.5 17t-12.5 42z" />
<glyph unicode="&#xdd;" horiz-adv-x="641" d="M21 656l2 44h254l-2 -33q-46 0 -64.5 -14t-15.5 -38.5t21 -56.5q17 -28 39.5 -66.5t42.5 -71.5l16 -26t16.5 -26.5t16.5 -26.5h1q14 24 26.5 46t24.5 42q23 40 45.5 77t45.5 77q6 10 14 23.5t18 28t20 24.5q-19 -1 -39 -1.5t-40 -1.5l2 44h204l-2 -33q-49 -3 -82.5 -34 t-71.5 -95l-139 -238l-10 -181q-1 -27 -3 -46.5t-4 -32.5q14 1 28 1.5t27.5 1.5t27.5 1l-2 -44h-231l2 33q38 2 52.5 18t17.5 43.5t4 61.5l6 114l-158 275q-24 40 -35 67t-13 46q-16 -1 -31 -1t-31 -1zM321 790l127 118q19 18 32.5 20t22 -3t10.5 -8q4 -4 6.5 -13.5 t-3.5 -22t-28 -26.5l-146 -93z" />
<glyph unicode="&#xde;" horiz-adv-x="577" d="M41 0l2 33q38 2 53 17.5t18 43t4 62.5l23 432q2 20 3.5 38.5t3.5 33.5l-36 -2l-36 -2l2 44h221l-2 -33q-46 -2 -58.5 -25t-15.5 -65q14 1 27 1h25q97 0 159.5 -22.5t93.5 -64t31 -99.5q0 -35 -15.5 -75.5t-53 -76.5t-104 -58.5t-169.5 -22.5h-8h-8q-2 -46 -3 -67.5 t-2.5 -31.5t-3.5 -20l36 2l36 2l-2 -44h-221zM203 198q11 -1 21.5 -0.5t23.5 0.5q95 1 154 49t63 128q3 44 -10.5 75t-40 50.5t-64 29t-83.5 9.5h-16.5t-29.5 -1z" />
<glyph unicode="&#xdf;" horiz-adv-x="650" d="M-126 -219q0 8 4.5 18t13.5 17.5t24 6.5q18 -1 28 -14t10 -33q5 -4 15 -6t15 -2q23 0 38 15.5t25.5 44.5t17 69.5t10.5 90.5q4 48 8 109t8.5 126.5t10 126.5t11.5 108l-90 -1l5 43h92q10 56 27.5 103.5t46.5 82.5t73.5 54.5t107.5 19.5q51 0 86.5 -12t57.5 -32t32 -44 t10 -48q0 -35 -14 -61t-36 -46.5t-47 -39.5q-23 -18 -40 -36t-17 -44q0 -19 15 -36.5t38.5 -34.5t49.5 -36q27 -19 51 -41.5t39.5 -50t15.5 -63.5q0 -42 -21 -75t-58.5 -52t-88.5 -19q-40 0 -76 12.5t-58 36.5t-22 58q0 22 13 35.5t31 13.5q20 0 30 -13t10 -29 q0 -7 -1.5 -15t-6.5 -16q8 -22 29.5 -34t48.5 -12q46 0 67 25t21 70q0 34 -25 60.5t-57 51.5q-28 22 -54.5 43.5t-43.5 46.5t-17 55q0 25 9 43.5t24 33t32 27.5t32 28q20 19 35.5 43t15.5 61q0 28 -11 53.5t-36 42.5t-68 17q-46 0 -78 -18t-51.5 -52t-30.5 -81.5t-16 -105.5 q-4 -30 -7.5 -77.5t-7.5 -103t-8.5 -112.5t-9.5 -106.5t-11 -83.5q-11 -73 -33.5 -131.5t-61.5 -92.5t-103 -34q-38 0 -58 13.5t-20 38.5z" />
<glyph unicode="&#xe0;" horiz-adv-x="548" d="M37 163q0 70 18 133t54.5 111.5t91.5 76t128 27.5q30 0 66 -4.5t68 -12.5q-8 -60 -15.5 -119.5t-14 -113t-10.5 -96t-4 -66.5q0 -20 3 -40t25 -20q17 0 37.5 22t35.5 75l28 -6q-3 -18 -12.5 -41.5t-25.5 -46.5t-39 -38t-53 -15q-40 0 -57 25t-17 65q0 29 5.5 63t12.5 71 h-3q-24 -74 -49.5 -118.5t-51 -67.5t-49.5 -30.5t-45 -7.5q-54 0 -90.5 40t-36.5 134zM121 180q0 -64 14 -105.5t51 -41.5q27 0 54.5 27t51.5 72.5t43 102t30 115.5t11 113q-15 6 -35 9t-43 3q-45 0 -78.5 -25t-55.5 -67.5t-32.5 -95t-10.5 -107.5zM224.5 719q-3.5 14 0 23 t7.5 13q3 3 12.5 6.5t23 -2t26.5 -28.5l78 -132l-24 -20l-103 107q-17 19 -20.5 33z" />
<glyph unicode="&#xe1;" horiz-adv-x="548" d="M37 163q0 70 18 133t54.5 111.5t91.5 76t128 27.5q30 0 66 -4.5t68 -12.5q-8 -60 -15.5 -119.5t-14 -113t-10.5 -96t-4 -66.5q0 -20 3 -40t25 -20q17 0 37.5 22t35.5 75l28 -6q-3 -18 -12.5 -41.5t-25.5 -46.5t-39 -38t-53 -15q-40 0 -57 25t-17 65q0 29 5.5 63t12.5 71 h-3q-24 -74 -49.5 -118.5t-51 -67.5t-49.5 -30.5t-45 -7.5q-54 0 -90.5 40t-36.5 134zM121 180q0 -64 14 -105.5t51 -41.5q27 0 54.5 27t51.5 72.5t43 102t30 115.5t11 113q-15 6 -35 9t-43 3q-45 0 -78.5 -25t-55.5 -67.5t-32.5 -95t-10.5 -107.5zM243 599l78 132 q14 23 27 28.5t22.5 2t12.5 -6.5q4 -4 7.5 -13t0.5 -23t-21 -33l-103 -107z" />
<glyph unicode="&#xe2;" horiz-adv-x="548" d="M37 163q0 70 18 133t54.5 111.5t91.5 76t128 27.5q30 0 66 -4.5t68 -12.5q-8 -60 -15.5 -119.5t-14 -113t-10.5 -96t-4 -66.5q0 -20 3 -40t25 -20q17 0 37.5 22t35.5 75l28 -6q-3 -18 -12.5 -41.5t-25.5 -46.5t-39 -38t-53 -15q-40 0 -57 25t-17 65q0 29 5.5 63t12.5 71 h-3q-24 -74 -49.5 -118.5t-51 -67.5t-49.5 -30.5t-45 -7.5q-54 0 -90.5 40t-36.5 134zM121 180q0 -64 14 -105.5t51 -41.5q27 0 54.5 27t51.5 72.5t43 102t30 115.5t11 113q-15 6 -35 9t-43 3q-45 0 -78.5 -25t-55.5 -67.5t-32.5 -95t-10.5 -107.5zM173 619l168 157h2 l140 -161l-25 -26l-125 113h-2l-136 -109z" />
<glyph unicode="&#xe3;" horiz-adv-x="548" d="M37 163q0 70 18 133t54.5 111.5t91.5 76t128 27.5q30 0 66 -4.5t68 -12.5q-8 -60 -15.5 -119.5t-14 -113t-10.5 -96t-4 -66.5q0 -20 3 -40t25 -20q17 0 37.5 22t35.5 75l28 -6q-3 -18 -12.5 -41.5t-25.5 -46.5t-39 -38t-53 -15q-40 0 -57 25t-17 65q0 29 5.5 63t12.5 71 h-3q-24 -74 -49.5 -118.5t-51 -67.5t-49.5 -30.5t-45 -7.5q-54 0 -90.5 40t-36.5 134zM121 180q0 -64 14 -105.5t51 -41.5q27 0 54.5 27t51.5 72.5t43 102t30 115.5t11 113q-15 6 -35 9t-43 3q-45 0 -78.5 -25t-55.5 -67.5t-32.5 -95t-10.5 -107.5zM151 638q14 35 46 58.5 t60 24.5q32 1 52 -12t37 -26t39 -14q23 -1 41.5 12.5t34.5 38.5l24 -12q-19 -49 -48 -70t-55 -21q-31 0 -52 13.5t-39 26.5t-42 13q-17 0 -37.5 -11.5t-35.5 -33.5z" />
<glyph unicode="&#xe4;" horiz-adv-x="548" d="M37 163q0 70 18 133t54.5 111.5t91.5 76t128 27.5q30 0 66 -4.5t68 -12.5q-8 -60 -15.5 -119.5t-14 -113t-10.5 -96t-4 -66.5q0 -20 3 -40t25 -20q17 0 37.5 22t35.5 75l28 -6q-3 -18 -12.5 -41.5t-25.5 -46.5t-39 -38t-53 -15q-40 0 -57 25t-17 65q0 29 5.5 63t12.5 71 h-3q-24 -74 -49.5 -118.5t-51 -67.5t-49.5 -30.5t-45 -7.5q-54 0 -90.5 40t-36.5 134zM121 180q0 -64 14 -105.5t51 -41.5q27 0 54.5 27t51.5 72.5t43 102t30 115.5t11 113q-15 6 -35 9t-43 3q-45 0 -78.5 -25t-55.5 -67.5t-32.5 -95t-10.5 -107.5zM198 670q2 23 16.5 39 t32.5 16q20 0 32 -16t10 -39q-1 -22 -15 -38t-32 -16q-19 0 -32 16t-12 38zM345 670q2 23 16.5 39t32.5 16q20 0 32 -16t10 -39q-1 -22 -15.5 -38t-31.5 -16q-19 0 -32 16t-12 38z" />
<glyph unicode="&#xe5;" horiz-adv-x="548" d="M37 163q0 70 18 133t54.5 111.5t91.5 76t128 27.5q30 0 66 -4.5t68 -12.5q-8 -60 -15.5 -119.5t-14 -113t-10.5 -96t-4 -66.5q0 -20 3 -40t25 -20q17 0 37.5 22t35.5 75l28 -6q-3 -18 -12.5 -41.5t-25.5 -46.5t-39 -38t-53 -15q-40 0 -57 25t-17 65q0 29 5.5 63t12.5 71 h-3q-24 -74 -49.5 -118.5t-51 -67.5t-49.5 -30.5t-45 -7.5q-54 0 -90.5 40t-36.5 134zM121 180q0 -64 14 -105.5t51 -41.5q27 0 54.5 27t51.5 72.5t43 102t30 115.5t11 113q-15 6 -35 9t-43 3q-45 0 -78.5 -25t-55.5 -67.5t-32.5 -95t-10.5 -107.5zM219 661q1 30 16 52.5 t38.5 35t48.5 12.5q24 0 45.5 -9.5t35.5 -29.5t13 -51q0 -31 -16 -53.5t-39.5 -35t-47.5 -12.5t-45.5 9.5t-35 30t-13.5 51.5zM270 670q-1 -29 12 -51t36 -21q18 1 32 18.5t15 43.5q2 32 -10.5 53t-34.5 20q-19 -1 -33.5 -19t-16.5 -44z" />
<glyph unicode="&#xe6;" horiz-adv-x="747" d="M26 97q0 44 26.5 76.5t70 53.5t95.5 30t103 7q0 1 0.5 11.5t2.5 40.5q3 42 -1.5 78.5t-24 59.5t-63.5 23q-38 0 -66.5 -18t-36.5 -47q6 -7 7.5 -15t1.5 -16q0 -15 -11.5 -27t-29.5 -12q-17 1 -28.5 12.5t-10.5 30.5q1 29 25.5 58t68 48.5t100.5 19.5q50 0 80 -24.5 t46 -66.5q31 44 74.5 67.5t98.5 23.5q46 0 72.5 -13t39.5 -31.5t17 -36.5t4 -27q0 -22 -12.5 -48t-44 -51t-88.5 -44.5t-146 -29.5q0 -56 12 -99.5t39.5 -67.5t73.5 -24q31 0 59.5 16t53.5 43.5t44 61.5l32 -19q-30 -59 -65.5 -92t-72 -46.5t-70.5 -13.5q-59 0 -97 21.5 t-65 70.5q-43 -47 -91 -69.5t-95 -22.5q-64 0 -96 29.5t-32 78.5zM109 113q-1 -37 21.5 -51.5t44.5 -16.5q40 -4 80.5 16t71.5 53q-6 28 -8 59t-1 59q-34 -1 -70 -6t-67.5 -17.5t-51 -35.5t-20.5 -60zM396 266q53 5 101.5 21.5t79 45.5t30.5 72q0 31 -11.5 46.5t-28 21.5 t-31.5 5q-39 -1 -68 -28.5t-47.5 -75t-24.5 -108.5z" />
<glyph unicode="&#xe7;" horiz-adv-x="473" d="M39 208q0 49 14 102t43 98.5t74.5 74t107.5 28.5q43 0 77 -15.5t53.5 -42t19.5 -59.5q0 -22 -11 -35.5t-31 -13.5q-24 -1 -33.5 14t-9.5 26q0 9 2.5 19t10.5 19q-5 28 -27.5 40.5t-51.5 12.5q-43 0 -72 -23t-46 -60t-24.5 -79.5t-7.5 -82.5q0 -70 15.5 -112.5t43.5 -61.5 t63 -19q26 0 54 11.5t54 39t45 75.5l35 -17q-25 -58 -58 -92.5t-70.5 -50t-76.5 -15.5q-88 0 -140.5 53.5t-52.5 165.5zM143 -209q26 5 49 11.5t40.5 16t28 21.5t10.5 27q0 21 -14 27t-32.5 2.5t-33.5 -13.5l-34 17l35 108h50l-30 -85q14 9 32 14t35 5q33 0 50.5 -19 t15.5 -46q-3 -30 -24 -51t-52 -34t-63.5 -20.5t-58.5 -11.5z" />
<glyph unicode="&#xe8;" horiz-adv-x="477" d="M39 205q0 58 15 113t45 98.5t76 69t107 25.5q36 0 68 -11t52 -36t20 -68q0 -41 -28 -71t-73 -49.5t-96 -31.5t-98 -17q0 -62 12.5 -104t37.5 -63t64 -21q29 0 58.5 13t56.5 39.5t49 68.5l33 -19q-28 -52 -60 -86t-70 -50t-84 -16q-95 0 -140 59.5t-45 156.5zM128 263 q53 7 101 25t79 46.5t31 66.5q0 32 -17.5 54t-53.5 22q-46 0 -75.5 -31t-45 -80t-19.5 -103zM192.5 719q-3.5 14 0 23t7.5 13q3 3 12.5 6.5t23 -2t26.5 -28.5l78 -132l-24 -20l-103 107q-17 19 -20.5 33z" />
<glyph unicode="&#xe9;" horiz-adv-x="477" d="M39 205q0 58 15 113t45 98.5t76 69t107 25.5q36 0 68 -11t52 -36t20 -68q0 -41 -28 -71t-73 -49.5t-96 -31.5t-98 -17q0 -62 12.5 -104t37.5 -63t64 -21q29 0 58.5 13t56.5 39.5t49 68.5l33 -19q-28 -52 -60 -86t-70 -50t-84 -16q-95 0 -140 59.5t-45 156.5zM128 263 q53 7 101 25t79 46.5t31 66.5q0 32 -17.5 54t-53.5 22q-46 0 -75.5 -31t-45 -80t-19.5 -103zM211 599l78 132q14 23 27 28.5t22.5 2t12.5 -6.5q4 -4 7.5 -13t0.5 -23t-21 -33l-103 -107z" />
<glyph unicode="&#xea;" horiz-adv-x="477" d="M39 205q0 58 15 113t45 98.5t76 69t107 25.5q36 0 68 -11t52 -36t20 -68q0 -41 -28 -71t-73 -49.5t-96 -31.5t-98 -17q0 -62 12.5 -104t37.5 -63t64 -21q29 0 58.5 13t56.5 39.5t49 68.5l33 -19q-28 -52 -60 -86t-70 -50t-84 -16q-95 0 -140 59.5t-45 156.5zM128 263 q53 7 101 25t79 46.5t31 66.5q0 32 -17.5 54t-53.5 22q-46 0 -75.5 -31t-45 -80t-19.5 -103zM141 619l168 157h2l140 -161l-25 -26l-125 113h-2l-136 -109z" />
<glyph unicode="&#xeb;" horiz-adv-x="477" d="M39 205q0 58 15 113t45 98.5t76 69t107 25.5q36 0 68 -11t52 -36t20 -68q0 -41 -28 -71t-73 -49.5t-96 -31.5t-98 -17q0 -62 12.5 -104t37.5 -63t64 -21q29 0 58.5 13t56.5 39.5t49 68.5l33 -19q-28 -52 -60 -86t-70 -50t-84 -16q-95 0 -140 59.5t-45 156.5zM128 263 q53 7 101 25t79 46.5t31 66.5q0 32 -17.5 54t-53.5 22q-46 0 -75.5 -31t-45 -80t-19.5 -103zM166 670q2 23 16.5 39t32.5 16q20 0 32 -16t10 -39q-1 -22 -15 -38t-32 -16q-19 0 -32 16t-12 38zM313 670q2 23 16.5 39t32.5 16q20 0 32 -16t10 -39q-1 -22 -15.5 -38t-31.5 -16 q-19 0 -32 16t-12 38z" />
<glyph unicode="&#xec;" horiz-adv-x="324" d="M7 370q3 18 12 41.5t24.5 46.5t37.5 38t52 15q42 0 63 -28.5t21 -75.5q0 -30 -5.5 -68.5t-13.5 -82.5t-13.5 -88.5t-5.5 -86.5q0 -20 7.5 -31t23.5 -11q17 0 37.5 22t35.5 75l28 -6q-4 -21 -13.5 -45.5t-24.5 -46t-36.5 -35.5t-49.5 -14q-46 0 -68 24t-22 70q0 44 6 85.5 t13.5 82t13.5 81.5t6 84q0 13 -5.5 29t-22.5 16q-16 0 -37 -22t-36 -75zM90.5 719q-3.5 14 0 23t7.5 13q3 3 12.5 6.5t23 -2t26.5 -28.5l78 -132l-24 -20l-103 107q-17 19 -20.5 33z" />
<glyph unicode="&#xed;" horiz-adv-x="324" d="M7 370q3 18 12 41.5t24.5 46.5t37.5 38t52 15q42 0 63 -28.5t21 -75.5q0 -30 -5.5 -68.5t-13.5 -82.5t-13.5 -88.5t-5.5 -86.5q0 -20 7.5 -31t23.5 -11q17 0 37.5 22t35.5 75l28 -6q-4 -21 -13.5 -45.5t-24.5 -46t-36.5 -35.5t-49.5 -14q-46 0 -68 24t-22 70q0 44 6 85.5 t13.5 82t13.5 81.5t6 84q0 13 -5.5 29t-22.5 16q-16 0 -37 -22t-36 -75zM109 599l78 132q14 23 27 28.5t22.5 2t12.5 -6.5q4 -4 7.5 -13t0.5 -23t-21 -33l-103 -107z" />
<glyph unicode="&#xee;" horiz-adv-x="324" d="M7 370q3 18 12 41.5t24.5 46.5t37.5 38t52 15q42 0 63 -28.5t21 -75.5q0 -30 -5.5 -68.5t-13.5 -82.5t-13.5 -88.5t-5.5 -86.5q0 -20 7.5 -31t23.5 -11q17 0 37.5 22t35.5 75l28 -6q-4 -21 -13.5 -45.5t-24.5 -46t-36.5 -35.5t-49.5 -14q-46 0 -68 24t-22 70q0 44 6 85.5 t13.5 82t13.5 81.5t6 84q0 13 -5.5 29t-22.5 16q-16 0 -37 -22t-36 -75zM9 619l157 157h2l130 -161l-23 -26l-117 113h-1l-127 -109z" />
<glyph unicode="&#xef;" horiz-adv-x="324" d="M7 370q3 18 12 41.5t24.5 46.5t37.5 38t52 15q42 0 63 -28.5t21 -75.5q0 -30 -5.5 -68.5t-13.5 -82.5t-13.5 -88.5t-5.5 -86.5q0 -20 7.5 -31t23.5 -11q17 0 37.5 22t35.5 75l28 -6q-4 -21 -13.5 -45.5t-24.5 -46t-36.5 -35.5t-49.5 -14q-46 0 -68 24t-22 70q0 44 6 85.5 t13.5 82t13.5 81.5t6 84q0 13 -5.5 29t-22.5 16q-16 0 -37 -22t-36 -75zM64 670q2 23 16.5 39t32.5 16q20 0 32 -16t10 -39q-1 -22 -15 -38t-32 -16q-19 0 -32 16t-12 38zM211 670q2 23 16.5 39t32.5 16q20 0 32 -16t10 -39q-1 -22 -15.5 -38t-31.5 -16q-19 0 -32 16t-12 38 z" />
<glyph unicode="&#xf0;" horiz-adv-x="516" d="M40 209q0 69 18 124t49.5 93.5t72 58.5t84.5 18q32 -1 59 -12t49 -37q-3 44 -13 85.5t-29.5 77.5t-51.5 62l-65 -79l-34 32l63 70q-25 11 -55 17.5t-68 5.5v33q45 4 83.5 -2t70.5 -20l58 66l29 -26l-50 -60q52 -34 84.5 -90t47.5 -127t15 -151q0 -101 -20 -170 t-54.5 -110.5t-79 -60t-93.5 -18.5q-45 0 -83.5 25t-62.5 74t-24 121zM126 220q0 -93 29.5 -143t72.5 -50q35 0 60 21.5t42 57.5t27 79t14.5 86.5t4.5 80.5q0 38 -14 62.5t-39.5 36.5t-58.5 12q-30 0 -62 -27.5t-54 -81.5t-22 -134z" />
<glyph unicode="&#xf1;" horiz-adv-x="615" d="M7 370q3 18 12.5 41.5t25.5 46.5t39 38t53 15q34 0 50.5 -18.5t21 -47.5t2.5 -62q-2 -28 -6.5 -54t-8.5 -46h3q34 91 67 140.5t65.5 68.5t64.5 19q40 0 64 -18t34.5 -47.5t10.5 -64.5q0 -55 -7.5 -112.5t-15 -106t-7.5 -77.5q0 -18 4.5 -32t22.5 -14q17 0 37.5 21.5 t35.5 75.5l28 -7q-3 -17 -12.5 -41t-25.5 -46.5t-39 -37.5t-53 -15q-47 0 -64 25t-17 71q0 28 4.5 66t11 81t11 87t4.5 84q0 12 -3.5 26t-13.5 24.5t-30 10.5q-28 0 -56 -26t-53 -70t-45 -97.5t-31.5 -110t-11.5 -107.5q0 -15 0.5 -27.5t1.5 -25.5h-84q-1 7 -1 12.5v13.5 q0 17 2 39.5t6.5 60t11.5 100.5q7 59 10.5 92t5.5 50.5t2.5 27t0.5 20.5q0 18 -5 31.5t-22 13.5q-16 0 -37 -22t-36 -75zM181 638q14 35 46 58.5t60 24.5q32 1 52 -12t37 -26t39 -14q23 -1 41.5 12.5t34.5 38.5l24 -12q-19 -49 -48 -70t-55 -21q-31 0 -52 13.5t-39 26.5 t-42 13q-17 0 -37.5 -11.5t-35.5 -33.5z" />
<glyph unicode="&#xf2;" horiz-adv-x="521" d="M39 213q0 81 29.5 149t85 108.5t132.5 40.5q54 0 97 -25.5t68 -74.5t25 -119q0 -80 -29 -149.5t-83.5 -111.5t-132.5 -42q-66 0 -108.5 30t-63 81t-20.5 113zM127 246q-1 -34 4 -72t17.5 -71t35 -54t56.5 -22q40 -1 68 21.5t45 58.5t25.5 77t9.5 77q1 35 -3.5 72 t-17.5 69t-36 51.5t-60 20.5q-44 1 -76 -29.5t-49.5 -82.5t-18.5 -116zM208.5 719q-3.5 14 0 23t7.5 13q3 3 12.5 6.5t23 -2t26.5 -28.5l78 -132l-24 -20l-103 107q-17 19 -20.5 33z" />
<glyph unicode="&#xf3;" horiz-adv-x="521" d="M39 213q0 81 29.5 149t85 108.5t132.5 40.5q54 0 97 -25.5t68 -74.5t25 -119q0 -80 -29 -149.5t-83.5 -111.5t-132.5 -42q-66 0 -108.5 30t-63 81t-20.5 113zM127 246q-1 -34 4 -72t17.5 -71t35 -54t56.5 -22q40 -1 68 21.5t45 58.5t25.5 77t9.5 77q1 35 -3.5 72 t-17.5 69t-36 51.5t-60 20.5q-44 1 -76 -29.5t-49.5 -82.5t-18.5 -116zM227 599l78 132q14 23 27 28.5t22.5 2t12.5 -6.5q4 -4 7.5 -13t0.5 -23t-21 -33l-103 -107z" />
<glyph unicode="&#xf4;" horiz-adv-x="521" d="M39 213q0 81 29.5 149t85 108.5t132.5 40.5q54 0 97 -25.5t68 -74.5t25 -119q0 -80 -29 -149.5t-83.5 -111.5t-132.5 -42q-66 0 -108.5 30t-63 81t-20.5 113zM127 246q-1 -34 4 -72t17.5 -71t35 -54t56.5 -22q40 -1 68 21.5t45 58.5t25.5 77t9.5 77q1 35 -3.5 72 t-17.5 69t-36 51.5t-60 20.5q-44 1 -76 -29.5t-49.5 -82.5t-18.5 -116zM157 619l168 157h2l140 -161l-25 -26l-125 113h-2l-136 -109z" />
<glyph unicode="&#xf5;" horiz-adv-x="521" d="M39 213q0 81 29.5 149t85 108.5t132.5 40.5q54 0 97 -25.5t68 -74.5t25 -119q0 -80 -29 -149.5t-83.5 -111.5t-132.5 -42q-66 0 -108.5 30t-63 81t-20.5 113zM127 246q-1 -34 4 -72t17.5 -71t35 -54t56.5 -22q40 -1 68 21.5t45 58.5t25.5 77t9.5 77q1 35 -3.5 72 t-17.5 69t-36 51.5t-60 20.5q-44 1 -76 -29.5t-49.5 -82.5t-18.5 -116zM135 638q14 35 46 58.5t60 24.5q32 1 52 -12t37 -26t39 -14q23 -1 41.5 12.5t34.5 38.5l24 -12q-19 -49 -48 -70t-55 -21q-31 0 -52 13.5t-39 26.5t-42 13q-17 0 -37.5 -11.5t-35.5 -33.5z" />
<glyph unicode="&#xf6;" horiz-adv-x="521" d="M39 213q0 81 29.5 149t85 108.5t132.5 40.5q54 0 97 -25.5t68 -74.5t25 -119q0 -80 -29 -149.5t-83.5 -111.5t-132.5 -42q-66 0 -108.5 30t-63 81t-20.5 113zM127 246q-1 -34 4 -72t17.5 -71t35 -54t56.5 -22q40 -1 68 21.5t45 58.5t25.5 77t9.5 77q1 35 -3.5 72 t-17.5 69t-36 51.5t-60 20.5q-44 1 -76 -29.5t-49.5 -82.5t-18.5 -116zM182 670q2 23 16.5 39t32.5 16q20 0 32 -16t10 -39q-1 -22 -15 -38t-32 -16q-19 0 -32 16t-12 38zM329 670q2 23 16.5 39t32.5 16q20 0 32 -16t10 -39q-1 -22 -15.5 -38t-31.5 -16q-19 0 -32 16t-12 38 z" />
<glyph unicode="&#xf7;" horiz-adv-x="529" d="M46 340l2 50h446l-2 -50h-446zM205 193q2 26 20.5 44.5t41.5 18.5q24 0 39 -18.5t13 -44.5q-1 -27 -19 -45t-41 -18t-39 18t-15 45zM222 525q2 26 20.5 44.5t41.5 18.5q24 0 39 -18.5t13 -44.5q-1 -27 -19 -45t-41 -18t-39 18t-15 45z" />
<glyph unicode="&#xf8;" horiz-adv-x="521" d="M34 -52l63 93q-29 31 -43.5 75.5t-14.5 96.5q0 81 29.5 149t85 108.5t132.5 40.5q60 0 107 -32l55 83l41 -29l-60 -87q22 -28 34.5 -66.5t12.5 -87.5q0 -80 -29 -149.5t-83.5 -111.5t-132.5 -42q-59 0 -102 26l-63 -92zM127 246q-1 -32 3 -67.5t15 -66.5l210 312 q-13 23 -33.5 36.5t-50.5 13.5q-44 1 -76 -29.5t-49.5 -82.5t-18.5 -116zM167 68q13 -19 31 -30t42 -11q40 -1 68 21.5t45 58.5t25.5 77t9.5 77q1 27 -1.5 55.5t-9.5 55.5z" />
<glyph unicode="&#xf9;" horiz-adv-x="593" d="M6 370q3 18 12 41.5t24.5 46.5t38 38t52.5 15q40 0 60.5 -25t20.5 -72q0 -28 -5 -69t-11.5 -85.5t-11.5 -86.5t-5 -74q0 -11 3.5 -26t14 -26t29.5 -11q28 0 55 26t51 70t43 97.5t29.5 110t10.5 107.5q0 15 -0.5 27.5t-1.5 25.5h84q1 -7 1 -12.5v-13.5q0 -17 -2 -40.5 t-6 -62t-12 -101.5q-7 -58 -10.5 -91t-5.5 -49.5t-2.5 -25.5t-0.5 -20q0 -18 5.5 -31t21.5 -13q17 0 37.5 21.5t35.5 74.5l28 -6q-3 -18 -12.5 -41.5t-25.5 -46.5t-39 -38t-53 -15q-40 0 -58.5 25t-18.5 65q0 29 5.5 63t12.5 71h-3q-34 -91 -65 -139.5t-61 -66.5t-63 -18 q-40 0 -64 18t-34.5 48t-10.5 64q0 56 8 113t16 105.5t8 76.5q0 19 -4.5 33t-22.5 14q-16 0 -35.5 -22t-34.5 -75zM225.5 719q-3.5 14 0 23t7.5 13q3 3 12.5 6.5t23 -2t26.5 -28.5l78 -132l-24 -20l-103 107q-17 19 -20.5 33z" />
<glyph unicode="&#xfa;" horiz-adv-x="593" d="M6 370q3 18 12 41.5t24.5 46.5t38 38t52.5 15q40 0 60.5 -25t20.5 -72q0 -28 -5 -69t-11.5 -85.5t-11.5 -86.5t-5 -74q0 -11 3.5 -26t14 -26t29.5 -11q28 0 55 26t51 70t43 97.5t29.5 110t10.5 107.5q0 15 -0.5 27.5t-1.5 25.5h84q1 -7 1 -12.5v-13.5q0 -17 -2 -40.5 t-6 -62t-12 -101.5q-7 -58 -10.5 -91t-5.5 -49.5t-2.5 -25.5t-0.5 -20q0 -18 5.5 -31t21.5 -13q17 0 37.5 21.5t35.5 74.5l28 -6q-3 -18 -12.5 -41.5t-25.5 -46.5t-39 -38t-53 -15q-40 0 -58.5 25t-18.5 65q0 29 5.5 63t12.5 71h-3q-34 -91 -65 -139.5t-61 -66.5t-63 -18 q-40 0 -64 18t-34.5 48t-10.5 64q0 56 8 113t16 105.5t8 76.5q0 19 -4.5 33t-22.5 14q-16 0 -35.5 -22t-34.5 -75zM244 599l78 132q14 23 27 28.5t22.5 2t12.5 -6.5q4 -4 7.5 -13t0.5 -23t-21 -33l-103 -107z" />
<glyph unicode="&#xfb;" horiz-adv-x="593" d="M6 370q3 18 12 41.5t24.5 46.5t38 38t52.5 15q40 0 60.5 -25t20.5 -72q0 -28 -5 -69t-11.5 -85.5t-11.5 -86.5t-5 -74q0 -11 3.5 -26t14 -26t29.5 -11q28 0 55 26t51 70t43 97.5t29.5 110t10.5 107.5q0 15 -0.5 27.5t-1.5 25.5h84q1 -7 1 -12.5v-13.5q0 -17 -2 -40.5 t-6 -62t-12 -101.5q-7 -58 -10.5 -91t-5.5 -49.5t-2.5 -25.5t-0.5 -20q0 -18 5.5 -31t21.5 -13q17 0 37.5 21.5t35.5 74.5l28 -6q-3 -18 -12.5 -41.5t-25.5 -46.5t-39 -38t-53 -15q-40 0 -58.5 25t-18.5 65q0 29 5.5 63t12.5 71h-3q-34 -91 -65 -139.5t-61 -66.5t-63 -18 q-40 0 -64 18t-34.5 48t-10.5 64q0 56 8 113t16 105.5t8 76.5q0 19 -4.5 33t-22.5 14q-16 0 -35.5 -22t-34.5 -75zM174 619l168 157h2l140 -161l-25 -26l-125 113h-2l-136 -109z" />
<glyph unicode="&#xfc;" horiz-adv-x="593" d="M6 370q3 18 12 41.5t24.5 46.5t38 38t52.5 15q40 0 60.5 -25t20.5 -72q0 -28 -5 -69t-11.5 -85.5t-11.5 -86.5t-5 -74q0 -11 3.5 -26t14 -26t29.5 -11q28 0 55 26t51 70t43 97.5t29.5 110t10.5 107.5q0 15 -0.5 27.5t-1.5 25.5h84q1 -7 1 -12.5v-13.5q0 -17 -2 -40.5 t-6 -62t-12 -101.5q-7 -58 -10.5 -91t-5.5 -49.5t-2.5 -25.5t-0.5 -20q0 -18 5.5 -31t21.5 -13q17 0 37.5 21.5t35.5 74.5l28 -6q-3 -18 -12.5 -41.5t-25.5 -46.5t-39 -38t-53 -15q-40 0 -58.5 25t-18.5 65q0 29 5.5 63t12.5 71h-3q-34 -91 -65 -139.5t-61 -66.5t-63 -18 q-40 0 -64 18t-34.5 48t-10.5 64q0 56 8 113t16 105.5t8 76.5q0 19 -4.5 33t-22.5 14q-16 0 -35.5 -22t-34.5 -75zM199 670q2 23 16.5 39t32.5 16q20 0 32 -16t10 -39q-1 -22 -15 -38t-32 -16q-19 0 -32 16t-12 38zM346 670q2 23 16.5 39t32.5 16q20 0 32 -16t10 -39 q-1 -22 -15.5 -38t-31.5 -16q-19 0 -32 16t-12 38z" />
<glyph unicode="&#xfd;" horiz-adv-x="514" d="M-12 -208q0 23 14 34.5t27 11.5q45 0 43 -52q6 -3 11 -5t11 -2q22 -1 45.5 16t45 42.5t38 50t24.5 37.5q-9 58 -21 119.5t-27.5 123t-34 119t-39.5 108.5q-7 17 -18 35t-31 16q-19 -2 -28.5 -30t-5.5 -74l-32 -4q-3 27 -0.5 57t12.5 56.5t29 43t50 16.5q34 0 55.5 -18 t35 -44t22.5 -51q19 -51 37 -117t31.5 -134.5t20.5 -127.5h2q28 49 54 108t43 120.5t17 115.5q0 25 -4.5 44t-10.5 27q-4 -3 -10.5 -4.5t-14.5 -1.5q-18 0 -29 11.5t-11 27.5q0 22 14.5 33t32.5 11q31 0 48 -19t24.5 -48t7.5 -61q0 -66 -19 -135t-49.5 -136t-64.5 -129 q-50 -90 -95.5 -147t-88.5 -82.5t-85 -24.5q-34 2 -55 19.5t-21 43.5zM191 599l78 132q14 23 27 28.5t22.5 2t12.5 -6.5q4 -4 7.5 -13t0.5 -23t-21 -33l-103 -107z" />
<glyph unicode="&#xfe;" horiz-adv-x="512" d="M-11 -225q28 0 40 18.5t15.5 50t5.5 70.5q7 104 13 190t11.5 165.5t12 164t14.5 185.5q2 22 3 39t4 34l-36 -2l-36 -2l4 40q44 0 69 4t37.5 10t20.5 13h29q-7 -42 -13 -88.5t-10 -80.5q-4 -44 -8.5 -90t-9.5 -95t-10 -102l3 -1q20 72 44 115t50 64t51.5 27.5t47.5 6.5 q46 0 73.5 -26t39.5 -68t12 -91q0 -69 -15.5 -130t-48.5 -107.5t-86 -73t-127 -26.5q-12 0 -27.5 1t-32.5 3l-6 -127q-1 -20 -2 -43t-6 -40q16 1 31.5 1.5t31.5 1.5v-41h-189v30zM129 47q12 -12 35 -17.5t42 -5.5q44 1 74.5 19.5t50.5 49.5t31 69.5t15 78.5t3 77 q-1 68 -17 108t-51 38q-28 -1 -55 -28.5t-49.5 -72t-40 -99t-27.5 -111t-11 -106.5z" />
<glyph unicode="&#xff;" horiz-adv-x="514" d="M-12 -208q0 23 14 34.5t27 11.5q45 0 43 -52q6 -3 11 -5t11 -2q22 -1 45.5 16t45 42.5t38 50t24.5 37.5q-9 58 -21 119.5t-27.5 123t-34 119t-39.5 108.5q-7 17 -18 35t-31 16q-19 -2 -28.5 -30t-5.5 -74l-32 -4q-3 27 -0.5 57t12.5 56.5t29 43t50 16.5q34 0 55.5 -18 t35 -44t22.5 -51q19 -51 37 -117t31.5 -134.5t20.5 -127.5h2q28 49 54 108t43 120.5t17 115.5q0 25 -4.5 44t-10.5 27q-4 -3 -10.5 -4.5t-14.5 -1.5q-18 0 -29 11.5t-11 27.5q0 22 14.5 33t32.5 11q31 0 48 -19t24.5 -48t7.5 -61q0 -66 -19 -135t-49.5 -136t-64.5 -129 q-50 -90 -95.5 -147t-88.5 -82.5t-85 -24.5q-34 2 -55 19.5t-21 43.5zM146 670q2 23 16.5 39t32.5 16q20 0 32 -16t10 -39q-1 -22 -15 -38t-32 -16q-19 0 -32 16t-12 38zM293 670q2 23 16.5 39t32.5 16q20 0 32 -16t10 -39q-1 -22 -15.5 -38t-31.5 -16q-19 0 -32 16t-12 38z " />
<glyph unicode="&#x152;" horiz-adv-x="1012" d="M49 329q4 71 28 138.5t69 123t111.5 89.5t154.5 36q29 1 63.5 -4.5t66.5 -11.5h406l-4 -175h-32q3 59 -14 89.5t-47 41t-68 9.5l-86 -2q-37 -1 -53.5 -14t-21 -38.5t-7.5 -66.5l-9 -161h75q42 0 68 5t39 25t15 64h33l-10 -218h-34q2 44 -9 62.5t-37 22t-68 3.5 q-17 0 -37 -1t-37 -3l-12 -222q-1 -27 -3 -46t-4 -32l192 -6q44 -1 76.5 13.5t52 50t22.5 94.5h34l-16 -195h-442q-39 -8 -74 -12t-64 -4q-101 0 -174 45t-110.5 123t-32.5 177zM143 344q-4 -94 24.5 -164.5t87 -109.5t143.5 -39q28 0 53 4t56 12l26 498q2 26 3.5 53t2.5 53 q-28 11 -61 17t-62 6q-71 0 -132 -39.5t-99 -113.5t-42 -177z" />
<glyph unicode="&#x153;" horiz-adv-x="797" d="M40 213q0 81 27 149t80 109t130 40q49 -1 84.5 -28t52.5 -77h3q14 25 40.5 49t61.5 40t74 16q36 0 69 -8.5t54.5 -32t21.5 -68.5q0 -40 -25 -70t-67 -50.5t-94 -33t-105 -17.5q-2 -69 13.5 -110.5t41.5 -60t53 -21.5q28 -2 60 10.5t61.5 40.5t51.5 70l33 -19 q-28 -52 -61 -86t-72 -50t-85 -16q-32 0 -61 11t-52.5 33t-37.5 56h-2q-16 -27 -42.5 -49.5t-58.5 -36.5t-67 -14q-66 0 -106 30t-58 81t-18 113zM125 246q-1 -34 3 -72t15 -71t32.5 -54t55.5 -21q36 0 62 18t42 50t24 71t9 81q1 26 -0.5 63.5t-11 74.5t-32 62t-64.5 26 q-44 1 -74 -29.5t-45 -82.5t-16 -116zM447 266q36 5 73 14.5t68 26t50.5 40.5t19.5 58q0 41 -22.5 58t-57.5 14q-34 -3 -63 -33t-47 -77t-21 -101z" />
<glyph unicode="&#x178;" horiz-adv-x="641" d="M21 656l2 44h254l-2 -33q-46 0 -64.5 -14t-15.5 -38.5t21 -56.5q17 -28 39.5 -66.5t42.5 -71.5l16 -26t16.5 -26.5t16.5 -26.5h1q14 24 26.5 46t24.5 42q23 40 45.5 77t45.5 77q6 10 14 23.5t18 28t20 24.5q-19 -1 -39 -1.5t-40 -1.5l2 44h204l-2 -33q-49 -3 -82.5 -34 t-71.5 -95l-139 -238l-10 -181q-1 -27 -3 -46.5t-4 -32.5q14 1 28 1.5t27.5 1.5t27.5 1l-2 -44h-231l2 33q38 2 52.5 18t17.5 43.5t4 61.5l6 114l-158 275q-24 40 -35 67t-13 46q-16 -1 -31 -1t-31 -1zM236 839q1 26 17 43t37 17q20 0 33 -17t11 -43q-1 -25 -16.5 -42 t-34.5 -17q-21 0 -34.5 17t-12.5 42zM398 839q1 26 17 43t36 17q21 0 33.5 -17t11.5 -43q-1 -25 -16.5 -42t-35.5 -17t-33.5 17t-12.5 42z" />
<glyph unicode="&#x2c6;" horiz-adv-x="469" d="M113 619l168 157h2l140 -161l-25 -26l-125 113h-2l-136 -109z" />
<glyph unicode="&#x2dc;" horiz-adv-x="424" d="M74 638q14 35 46 58.5t60 24.5q32 1 52 -12t37 -26t39 -14q23 -1 41.5 12.5t34.5 38.5l24 -12q-19 -49 -48 -70t-55 -21q-31 0 -52 13.5t-39 26.5t-42 13q-17 0 -37.5 -11.5t-35.5 -33.5z" />
<glyph unicode="&#x2000;" horiz-adv-x="468" />
<glyph unicode="&#x2001;" horiz-adv-x="936" />
<glyph unicode="&#x2002;" horiz-adv-x="468" />
<glyph unicode="&#x2003;" horiz-adv-x="936" />
<glyph unicode="&#x2004;" horiz-adv-x="312" />
<glyph unicode="&#x2005;" horiz-adv-x="234" />
<glyph unicode="&#x2006;" horiz-adv-x="156" />
<glyph unicode="&#x2007;" horiz-adv-x="156" />
<glyph unicode="&#x2008;" horiz-adv-x="117" />
<glyph unicode="&#x2009;" horiz-adv-x="187" />
<glyph unicode="&#x200a;" horiz-adv-x="52" />
<glyph unicode="&#x2010;" horiz-adv-x="483" d="M63 287l3 66h355l-3 -62z" />
<glyph unicode="&#x2011;" horiz-adv-x="483" d="M63 287l3 66h355l-3 -62z" />
<glyph unicode="&#x2012;" horiz-adv-x="483" d="M63 287l3 66h355l-3 -62z" />
<glyph unicode="&#x2013;" horiz-adv-x="583" d="M63 287l3 66h455l-3 -62z" />
<glyph unicode="&#x2014;" horiz-adv-x="770" d="M63 287l3 66h642l-3 -62z" />
<glyph unicode="&#x2018;" horiz-adv-x="211" d="M66 558q0 25 9 60t27.5 71.5t45.5 67.5l25 -20q-17 -20 -29.5 -47t-19.5 -56t-7 -56q5 2 11.5 3t13.5 1q19 0 31.5 -14t12.5 -32q0 -27 -16.5 -41.5t-39.5 -14.5q-30 0 -47 22t-17 56z" />
<glyph unicode="&#x2019;" horiz-adv-x="196" d="M61 704q0 27 16.5 41.5t39.5 14.5q30 0 47 -22t17 -56q0 -25 -9 -59.5t-27 -71.5t-46 -68l-25 20q17 20 29.5 47t19.5 56.5t7 55.5q-5 -1 -11 -2.5t-14 -1.5q-19 0 -31.5 14t-12.5 32z" />
<glyph unicode="&#x201a;" horiz-adv-x="237" d="M43 42q0 27 16.5 41.5t39.5 14.5q30 0 47 -22t17 -56q0 -25 -9 -59.5t-27 -71.5t-46 -68l-25 20q17 20 29.5 47t19.5 56.5t7 55.5q-5 -1 -11 -2.5t-14 -1.5q-19 0 -31.5 14t-12.5 32z" />
<glyph unicode="&#x201c;" horiz-adv-x="388" d="M66 558q0 25 9 60t27.5 71.5t45.5 67.5l25 -20q-17 -20 -29.5 -47t-19.5 -56t-7 -56q5 2 11.5 3t13.5 1q19 0 31.5 -14t12.5 -32q0 -27 -16.5 -41.5t-39.5 -14.5q-30 0 -47 22t-17 56zM242 558q0 25 9 60t27.5 71.5t45.5 67.5l25 -20q-17 -20 -29.5 -47t-19.5 -56t-7 -56 q5 2 11.5 3t13.5 1q19 0 31.5 -14t12.5 -32q0 -27 -16.5 -41.5t-39.5 -14.5q-30 0 -47 22t-17 56z" />
<glyph unicode="&#x201d;" horiz-adv-x="372" d="M61 704q0 27 16.5 41.5t39.5 14.5q30 0 47 -22t17 -56q0 -25 -9 -59.5t-27 -71.5t-46 -68l-25 20q17 20 29.5 47t19.5 56.5t7 55.5q-5 -1 -11 -2.5t-14 -1.5q-19 0 -31.5 14t-12.5 32zM237 704q0 27 16.5 41.5t39.5 14.5q30 0 47 -22t17 -56q0 -25 -9 -59.5t-27 -71.5 t-46 -68l-25 20q17 20 29.5 47t19.5 56.5t7 55.5q-5 -1 -11 -2.5t-14 -1.5q-19 0 -31.5 14t-12.5 32z" />
<glyph unicode="&#x201e;" horiz-adv-x="413" d="M43 42q0 27 16.5 41.5t39.5 14.5q30 0 47 -22t17 -56q0 -25 -9 -59.5t-27 -71.5t-46 -68l-25 20q17 20 29.5 47t19.5 56.5t7 55.5q-5 -1 -11 -2.5t-14 -1.5q-19 0 -31.5 14t-12.5 32zM219 42q0 27 16.5 41.5t39.5 14.5q30 0 47 -22t17 -56q0 -25 -9 -59.5t-27 -71.5 t-46 -68l-25 20q17 20 29.5 47t19.5 56.5t7 55.5q-5 -1 -11 -2.5t-14 -1.5q-19 0 -31.5 14t-12.5 32z" />
<glyph unicode="&#x2022;" horiz-adv-x="389" d="M49 374q2 42 24 75.5t57 53t76 19.5q42 0 75 -19.5t52 -53t17 -75.5q-2 -41 -24.5 -75t-57.5 -53.5t-77 -19.5q-41 0 -74.5 19.5t-51.5 53.5t-16 75z" />
<glyph unicode="&#x2026;" horiz-adv-x="772" d="M43 47q2 26 20.5 44.5t41.5 18.5q24 0 39 -18.5t13 -44.5q-1 -27 -19 -45t-41 -18t-39 18t-15 45zM313 47q2 26 20.5 44.5t41.5 18.5q24 0 39 -18.5t13 -44.5q-1 -27 -19 -45t-41 -18t-39 18t-15 45zM583 47q2 26 20.5 44.5t41.5 18.5q24 0 39 -18.5t13 -44.5 q-1 -27 -19 -45t-41 -18t-39 18t-15 45z" />
<glyph unicode="&#x202f;" horiz-adv-x="187" />
<glyph unicode="&#x2039;" horiz-adv-x="369" d="M25 264v4l294 281l24 -27l-219 -258v-2l182 -243l-29 -26z" />
<glyph unicode="&#x203a;" horiz-adv-x="369" d="M21 20l219 258v2l-182 243l29 26l252 -271v-4l-294 -281z" />
<glyph unicode="&#x205f;" horiz-adv-x="234" />
<glyph unicode="&#x20ac;" horiz-adv-x="756" d="M32 242l17 56l77 -1q-2 47 6 91h-91l16 56l87 -1q21 74 65.5 136t111 99.5t152.5 37.5q54 0 97.5 -14t83.5 -42h1l4 49h54l-30 -202h-36q-4 48 -22 86t-53.5 59.5t-93.5 21.5q-56 0 -106.5 -26.5t-88.5 -78t-56 -126.5l343 -1l-29 -52l-324 -1q-2 -22 -3 -46t1 -46 l279 -1l-30 -52l-241 -1q20 -94 83 -149t151 -55q65 0 123.5 28t101.5 84l26 -22q-46 -59 -95.5 -90.5t-97 -43t-88.5 -11.5q-83 0 -145 33.5t-100 92t-51 133.5z" />
<glyph unicode="&#x2122;" horiz-adv-x="1040" d="M76 568l10 132h356l-3 -132h-30q1 49 -12.5 72.5t-57.5 22.5h-44l-15 -285q-1 -11 -1 -22t-2 -19q11 1 23 1t23 1l-2 -36h-156l2 28q29 0 38.5 17.5t10.5 44.5l14 269h-62q-31 -1 -45.5 -25t-16.5 -69h-30zM442 305l2 28q30 1 40 20t13 50l22 226q2 13 2.5 21t1.5 13 q-10 -1 -21 -1.5t-22 -1.5l2 40h124l72 -214q8 -24 18 -52.5t20 -57.5h1q6 12 12.5 25.5l13 27t10.5 23.5q28 62 59 121.5t61 126.5h110l-2 -33q-29 -1 -37.5 -20t-7.5 -51l3 -210q1 -11 0.5 -25t-1.5 -25q12 1 24.5 1.5t24.5 1.5l-2 -35h-158l2 28q30 1 40 21.5t10 51.5 l-3 149q0 11 0.5 22t1 22.5t0.5 23.5h-1q-6 -17 -12.5 -32.5t-13.5 -30.5l-125 -260h-42q-21 56 -41.5 111.5t-40 111.5t-36.5 111h-1q-1 -16 -2 -31.5t-2 -31.5l-18 -192q-1 -13 -2.5 -23.5t-4.5 -18.5q12 1 24.5 1.5t24.5 1.5l-2 -34h-141z" />
</font>
</defs>
</svg>
