<?xml version="1.0" standalone="no"?>
<!DOCTYPE svg PUBLIC "-//W3C//DTD SVG 1.1//EN" "http://www.w3.org/Graphics/SVG/1.1/DTD/svg11.dtd" >
<svg xmlns="http://www.w3.org/2000/svg" xmlns:xlink="http://www.w3.org/1999/xlink" version="1.1">
<metadata></metadata>
<defs>
<font id="spectralbold" horiz-adv-x="1148" >
<font-face units-per-em="2048" ascent="1638" descent="-410" />
<missing-glyph horiz-adv-x="512" />
<glyph unicode="&#xfb01;" horiz-adv-x="1441" d="M55 842v92h156v45q0 84 48 180t125 180t167 137.5t172 53.5q55 0 78.5 -19.5t23.5 -50.5q0 -14 -4 -37l-26 -112l-232 65q-31 -47 -47 -126t-16 -201v-115h751v-836l123 -65v-33h-547v33l138 65v744h-465v-746l157 -63v-33h-583v33l137 65v744h-156zM954 1305 q0 66 42 107.5t108 41.5q63 0 105 -42t42 -107q0 -63 -42 -105.5t-105 -42.5q-66 0 -108 42t-42 106z" />
<glyph unicode="&#xfb02;" horiz-adv-x="1425" d="M55 842v92h156v45q0 72 34 148.5t88 148.5t120.5 129t134 91t123.5 34q55 0 76.5 -18.5t21.5 -47.5q0 -14 -6 -34l-25 -109l-213 57q-33 -45 -49 -124.5t-16 -204.5v-115h241v-92h-241v-746l157 -63v-33h-583v33l137 65v744h-156zM819 0v33l137 65v1225l-112 82v25 l375 106h24v-1438l123 -65v-33h-547z" />
<glyph unicode="&#xfb03;" horiz-adv-x="2199" d="M55 842v92h156v45q0 68 31.5 144.5t86 148t120 130t135 93.5t133.5 35q53 0 75.5 -19.5t22.5 -48.5q0 -16 -4 -37l-25 -110l-221 61q-33 -47 -49 -124.5t-16 -202.5v-115h471v45q0 84 47 180t125 180t167 137.5t173 53.5q55 0 78.5 -19.5t23.5 -50.5q0 -14 -6 -37 l-25 -112l-231 65q-33 -47 -49.5 -126t-16.5 -201v-115h754v-836l121 -65v-33h-547v33l137 65v744h-465v-746l160 -63v-33h-583v33l137 65v744h-471v-746l157 -63v-33h-583v33l137 65v744h-156zM1712 1305q0 66 42 107.5t108 41.5q63 0 106 -42t43 -107q0 -63 -43 -105.5 t-106 -42.5q-66 0 -108 42t-42 106z" />
<glyph unicode="&#xfb04;" horiz-adv-x="2185" d="M55 842v92h156v45q0 84 48 180t125 180t167 137.5t172 53.5q55 0 78.5 -19.5t23.5 -50.5q0 -14 -4 -37l-26 -112l-232 65q-31 -47 -47 -126t-16 -201v-115h471v45q0 72 32.5 148.5t88 148.5t122 129t133 91t123.5 34q53 0 75 -18.5t22 -47.5q0 -14 -4 -34l-25 -109 l-213 57q-33 -45 -50.5 -124.5t-17.5 -204.5v-115h244v-92h-244v-746l160 -63v-33h-583v33l137 65v744h-471v-746l157 -63v-33h-583v33l137 65v744h-156zM1579 0v33l135 65v1225l-110 82v25l374 106h25v-1438l121 -65v-33h-545z" />
<glyph horiz-adv-x="0" />
<glyph horiz-adv-x="0" />
<glyph horiz-adv-x="682" />
<glyph unicode="&#xd;" horiz-adv-x="512" />
<glyph unicode=" "  horiz-adv-x="512" />
<glyph unicode="&#x09;" horiz-adv-x="512" />
<glyph unicode="&#xa0;" horiz-adv-x="512" />
<glyph unicode="!" horiz-adv-x="550" d="M115 1352h321l-129 -906h-65zM123 141q0 63 45 108.5t106 45.5t106.5 -45t45.5 -109q0 -61 -45.5 -106t-106.5 -45t-106 45t-45 106z" />
<glyph unicode="&#x22;" horiz-adv-x="921" d="M152 1516h208l-79 -512h-50zM562 1516h208l-79 -512h-50z" />
<glyph unicode="#" d="M63 414v100h228l90 309h-199v101h228l125 428h108l-125 -428h260l125 428h109l-125 -428h196v-101h-227l-88 -309h197v-100h-228l-119 -414h-108l121 414h-262l-119 -414h-109l121 414h-199zM399 514h260l91 309h-263z" />
<glyph unicode="$" d="M121 274q0 86 82 86h121v-206q51 -39 127 -58v479q-125 53 -198 109.5t-102.5 125.5t-29.5 161q0 84 43 160.5t117.5 133t169.5 85.5v166h77v-150q37 6 74 6q25 0 47 -2v146h78v-156q135 -25 208 -97.5t73 -158.5q0 -82 -80 -82h-113v184q-37 29 -88 43v-463 q127 -55 197.5 -113.5t100.5 -127t30 -158.5q0 -141 -94.5 -242.5t-233.5 -142.5v-166h-78v150q-41 -6 -84 -6h-37v-144h-77v152q-160 25 -245 106.5t-85 179.5zM367 1079q0 -49 16 -86t68 -71v305q-84 -52 -84 -148zM528 86q19 -2 37 -2q45 0 84 8v393q-49 25 -121 58v-457 zM528 874q49 -25 121 -55v443q-21 2 -41 2q-43 0 -80 -9v-381zM727 121q90 51 90 153q0 49 -18.5 87t-71.5 77v-317z" />
<glyph unicode="%" horiz-adv-x="1624" d="M16 1122q0 119 42 212t115 147.5t163 54.5q150 0 237 -111.5t87 -302.5q0 -119 -43.5 -213t-116 -148t-164.5 -54q-145 0 -232.5 112.5t-87.5 302.5zM242 1157q0 -98 10 -188t33.5 -147.5t66.5 -57.5q31 0 48.5 49t24.5 124t7 148q0 98 -9 188.5t-32.5 147t-64.5 56.5 q-33 0 -51.5 -48.5t-25.5 -122t-7 -149.5zM283 41l966 1495l93 -61l-967 -1495zM964 395q0 119 42 212t115 147.5t163 54.5q150 0 237 -111.5t87 -302.5q0 -119 -43.5 -213t-116 -148t-164.5 -54q-145 0 -232.5 112.5t-87.5 302.5zM1190 430q0 -98 10 -188t33.5 -147.5 t66.5 -57.5q31 0 48.5 49t24.5 124t7 148q0 98 -9 188.5t-32.5 147t-64.5 56.5q-33 0 -51.5 -48.5t-25.5 -122t-7 -149.5z" />
<glyph unicode="&#x26;" horiz-adv-x="1566" d="M76 324q0 115 69.5 211t212.5 167q-84 86 -123.5 158t-39.5 168q0 102 57 179t155.5 121t217.5 44q180 0 288.5 -77.5t108.5 -200.5q0 -86 -77 -161t-267 -147q18 -18 36.5 -37.5t39.5 -39.5l303 -306q100 145 180 365l-201 80v33h506v-33l-176 -78 q-61 -123 -121.5 -230.5t-126.5 -197.5l232 -236l170 -73v-33h-465l-129 131q-90 -74 -192.5 -112.5t-225.5 -38.5q-193 0 -312.5 91t-119.5 253zM352 408q0 -135 71 -209t198 -74t237 74l-330 331q-29 29 -54 54.5t-48 48.5q-43 -49 -58.5 -104t-15.5 -121zM469 1114 q0 -70 39 -131t113 -139q59 53 90.5 120.5t31.5 145.5q0 70 -34.5 120t-104.5 50q-68 0 -101.5 -48t-33.5 -118z" />
<glyph unicode="'" horiz-adv-x="512" d="M152 1516h208l-79 -512h-50z" />
<glyph unicode="(" horiz-adv-x="536" d="M100 604q0 254 88 480.5t271 431.5h49v-7q-123 -199 -190.5 -411.5t-67.5 -493.5q0 -186 29.5 -342t88 -293t140.5 -270v-6h-49q-182 205 -270.5 431t-88.5 480z" />
<glyph unicode=")" horiz-adv-x="536" d="M29 -301q82 135 140 271t88 292t30 342q0 281 -66.5 494t-191.5 411v7h49q182 -205 270 -431.5t88 -480.5t-88 -480t-270 -431h-49v6z" />
<glyph unicode="*" horiz-adv-x="817" d="M70 1212q-4 45 9 85t44 71l260 -139l-55 287q80 41 161 0l-55 -287l258 139q33 -31 45.5 -71t10.5 -85l-297 -38l219 -207q-39 -80 -133 -93l-129 261l-129 -261q-92 12 -134 93l220 207z" />
<glyph unicode="+" d="M143 502v110h371v375h119v-375h371v-110h-371v-375h-119v375h-371z" />
<glyph unicode="," horiz-adv-x="548" d="M49 -401l113 651h276v-43l-340 -608h-49z" />
<glyph unicode="-" horiz-adv-x="755" d="M96 455v143h563v-143h-563z" />
<glyph unicode="." horiz-adv-x="548" d="M123 141q0 63 45 108.5t106 45.5t106.5 -45t45.5 -109q0 -61 -45.5 -106t-106.5 -45t-106 45t-45 106z" />
<glyph unicode="/" horiz-adv-x="512" d="M0 -246l410 1782h102l-410 -1782h-102z" />
<glyph unicode="0" d="M66 676q0 201 64.5 357.5t179 247.5t263.5 91q162 0 276 -84t174 -240.5t60 -371.5q0 -199 -65.5 -356.5t-180 -248.5t-264.5 -91q-160 0 -273.5 85t-173.5 240.5t-60 370.5zM385 743q0 -182 22.5 -332.5t70.5 -240.5t130 -90q53 0 88 68.5t51.5 188.5t16.5 275 q0 180 -21.5 331t-68.5 241t-127 90q-82 0 -122 -144.5t-40 -386.5z" />
<glyph unicode="1" d="M158 963v81l510 308h129v-1248l174 -71v-33h-668v33l195 71v1012z" />
<glyph unicode="2" d="M82 1016q0 59 40 121.5t110.5 116t163.5 86t202 32.5q127 0 222 -48t148.5 -130t53.5 -184q0 -63 -14.5 -117.5t-54.5 -114t-111.5 -133.5t-185 -175t-279.5 -241h543l118 205h33l-20 -434h-945v76q166 180 274.5 303t173 209t95.5 153.5t41 136t10 158.5 q0 102 -48 158.5t-144 56.5q-106 0 -189 -57v-258h-163q-39 0 -56.5 14.5t-17.5 65.5z" />
<glyph unicode="3" d="M76 258q0 47 15 63.5t59 16.5h163v-209q76 -43 199 -43q115 0 179.5 73.5t64.5 192.5q0 145 -73 222t-249 77h-108v99h102q109 0 183.5 75.5t74.5 216.5q0 121 -47 172.5t-129 51.5q-39 0 -82 -9.5t-84 -33.5v-242h-166q-41 0 -56.5 16.5t-15.5 63.5q0 80 67 150.5 t176.5 115.5t238.5 45q135 0 229 -43t142.5 -115.5t48.5 -162.5q0 -104 -90.5 -192.5t-268.5 -121.5q229 -27 329.5 -124t100.5 -240q0 -102 -66.5 -191.5t-186 -145.5t-279.5 -56q-137 0 -242.5 39.5t-167 103t-61.5 135.5z" />
<glyph unicode="4" d="M31 358v62l721 932h129v-832h243v-162h-243v-254l174 -71v-33h-668v33l195 71v254h-551zM233 520h349v465z" />
<glyph unicode="5" d="M125 147q0 37 37 64l108 78l140 -217q23 -2 49 -2q127 0 204.5 75.5t77.5 227.5t-88 229.5t-258 77.5q-55 0 -105 -8t-108 -23l29 703h729v-207h-623l-16 -363q147 63 287 64q137 0 232 -52.5t145.5 -140.5t50.5 -194q0 -139 -71 -248t-194.5 -170t-283.5 -61 q-170 0 -256 54t-86 113z" />
<glyph unicode="6" d="M72 500q0 223 105.5 400t303 297t467.5 175v-72q-240 -74 -376 -239.5t-171 -396.5q55 70 135 106.5t183 36.5q115 0 196.5 -51t124.5 -139.5t43 -196.5q0 -117 -56 -217.5t-167.5 -161.5t-279.5 -61q-154 0 -267.5 64.5t-177 181t-63.5 274.5zM389 498 q0 -199 52.5 -309.5t146.5 -110.5q68 0 107.5 45t58 111.5t18.5 130.5q0 127 -47 208.5t-147 81.5q-59 0 -106.5 -28.5t-80.5 -75.5q-2 -26 -2 -53z" />
<glyph unicode="7" d="M117 1092v260h913v-78q-98 -190 -201.5 -405.5t-188.5 -436.5t-128 -432h-289q68 156 152 317.5t194.5 350t255.5 424.5h-708z" />
<glyph unicode="8" d="M82 303q0 57 22.5 114.5t80 115t165.5 110.5q-129 82 -176 164t-47 194q0 100 64.5 185.5t170 135.5t230.5 50q115 0 211 -42t153.5 -116.5t57.5 -169.5q0 -84 -71 -153.5t-185 -126.5q164 -92 235.5 -180t71.5 -207q0 -115 -65.5 -205t-179.5 -141t-255 -51 q-133 0 -242.5 39.5t-175 112.5t-65.5 171zM326 334q0 -121 67.5 -191.5t167.5 -70.5q104 0 161.5 54t57.5 142q0 68 -29.5 114t-103.5 92t-205 116l-6 2q-63 -45 -86.5 -107.5t-23.5 -150.5zM401 1104q0 -51 18.5 -95t74 -90.5t170.5 -105.5q55 41 86.5 99.5t31.5 131.5 q0 119 -56 176.5t-142 57.5q-80 0 -131.5 -47t-51.5 -127z" />
<glyph unicode="9" d="M66 932q0 117 56 217t168.5 161.5t278.5 61.5q154 0 268.5 -64.5t178 -181t63.5 -274.5q0 -225 -106.5 -401.5t-303 -296t-468.5 -174.5v71q240 74 376 240t171 397q-53 -70 -134.5 -106.5t-183.5 -36.5q-115 0 -196.5 51t-124.5 139t-43 197zM379 987q0 -127 46 -209 t146 -82q59 0 106.5 29t80.5 76q2 27 2 53q0 199 -52.5 309.5t-146.5 110.5q-68 0 -107.5 -45t-57 -112t-17.5 -130z" />
<glyph unicode=":" horiz-adv-x="548" d="M123 141q0 63 45 108.5t106 45.5t106.5 -45t45.5 -109q0 -61 -45.5 -106t-106.5 -45t-106 45t-45 106zM123 794q0 63 45 108.5t106 45.5t106.5 -45t45.5 -109q0 -61 -45.5 -106t-106.5 -45t-106 45t-45 106z" />
<glyph unicode=";" horiz-adv-x="548" d="M26 -401l113 651h276v-43l-340 -608h-49zM123 794q0 63 45 108.5t106 45.5t106.5 -45t45.5 -109q0 -61 -45.5 -106t-106.5 -45t-106 45t-45 106z" />
<glyph unicode="&#x3c;" d="M143 506v102l861 379v-125l-691 -305l691 -305v-125z" />
<glyph unicode="=" d="M143 293v110h861v-110h-861zM143 711v110h861v-110h-861z" />
<glyph unicode="&#x3e;" d="M143 127v125l693 305l-693 305v125l861 -379v-102z" />
<glyph unicode="?" horiz-adv-x="980" d="M59 1059q0 76 59.5 147.5t161 118.5t226.5 47t215 -48t139 -130t49 -184q0 -145 -106.5 -252t-313.5 -154l-24 -158h-66l-65 328q330 51 330 281q0 104 -55.5 159.5t-151.5 55.5q-41 0 -79 -9.5t-73 -31.5v-244h-184q-33 0 -47.5 15.5t-14.5 58.5zM276 141 q0 63 45.5 108.5t106.5 45.5t107.5 -45t46.5 -109q0 -61 -46.5 -106t-107.5 -45t-106.5 45t-45.5 106z" />
<glyph unicode="@" horiz-adv-x="1654" d="M121 369q0 164 57.5 306t161.5 248.5t246.5 167t314.5 60.5q201 0 339 -86t209 -228.5t71 -312.5q0 -141 -51.5 -250.5t-136.5 -171t-187 -61.5q-111 0 -173.5 59.5t-62.5 157.5q-82 -117 -151.5 -166t-151.5 -49q-72 0 -119 58.5t-47 170.5q0 125 45 235.5t120 193.5 t166 130.5t183 47.5q96 0 156 -45l90 34h37l-102 -577q-14 -78 7 -113t81 -35q59 0 111 49.5t85 136.5t33 199q0 152 -62.5 278t-182.5 201.5t-292 75.5q-209 0 -352 -88t-217 -241.5t-74 -347.5q0 -176 69 -305.5t190.5 -200t281.5 -70.5q133 0 235.5 30.5t188.5 86.5 l27 -47q-111 -68 -226.5 -105t-279.5 -37q-190 0 -333.5 79t-223.5 217.5t-80 314.5zM676 367q0 -90 17.5 -126t58.5 -36q39 0 80.5 33.5t82.5 93.5l74 422q-18 20 -41.5 32.5t-56.5 12.5q-61 0 -109.5 -60.5t-77 -158.5t-28.5 -213z" />
<glyph unicode="A" horiz-adv-x="1585" d="M39 0v33l125 69l534 1260h181l528 -1258l139 -71v-33h-647v33l178 73l-139 340h-485l-140 -340l170 -73v-33h-444zM500 559h391l-197 475z" />
<glyph unicode="B" horiz-adv-x="1445" d="M90 0v33l174 84v1118l-174 84v33h655q145 0 261 -34t183.5 -100.5t67.5 -168.5q0 -104 -78.5 -192.5t-226.5 -123.5q201 -27 313.5 -116t112.5 -224q0 -113 -75.5 -202t-207.5 -140t-300 -51h-705zM573 113h156q150 0 236 76.5t86 193.5q0 135 -87 199.5t-249 64.5h-142 v-534zM573 748h82q135 0 212 64.5t77 174.5q0 252 -301 252h-70v-491z" />
<glyph unicode="C" horiz-adv-x="1456" d="M100 647q0 154 61.5 285t167 230.5t241 154.5t280.5 55q106 0 179 -13t129 -34.5t116 -50.5l22 -383h-36l-195 317q-51 33 -96 47.5t-109 14.5q-125 0 -224 -75t-156.5 -210t-57.5 -317q0 -180 55 -309.5t150.5 -200t214.5 -70.5q78 0 137 19.5t115 50.5l184 274h35 l-29 -346q-84 -49 -202 -77.5t-265 -28.5q-215 0 -376.5 88t-251 238.5t-89.5 340.5z" />
<glyph unicode="D" horiz-adv-x="1642" d="M90 0v33l174 84v1118l-174 84v33h698q242 0 412 -80t260 -219.5t90 -315.5q0 -160 -58 -294t-162.5 -233t-246 -154.5t-309.5 -55.5h-684zM573 113h162q236 0 365 152.5t129 408.5q0 258 -133 411.5t-391 153.5h-132v-1126z" />
<glyph unicode="E" horiz-adv-x="1394" d="M90 0v33l174 84v1118l-174 84v33h1116v-355h-32l-152 242h-449v-485h316l115 176h32v-461h-32l-115 172h-316v-528h498l160 305h33v-418h-1174z" />
<glyph unicode="F" horiz-adv-x="1292" d="M90 0v33l174 84v1118l-174 84v33h1096v-355h-33l-139 242h-441v-491h295l115 176h33v-449h-33l-115 172h-295v-530l209 -84v-33h-692z" />
<glyph unicode="G" horiz-adv-x="1548" d="M102 647q0 158 62.5 290t170 230.5t247 151.5t292.5 53q109 0 186 -12t137 -34.5t120 -51.5l22 -361h-34l-197 297q-57 35 -108.5 48.5t-116.5 13.5q-127 0 -232.5 -74t-167 -206t-61.5 -308q0 -184 59.5 -316t160.5 -204t226 -72q76 0 158 17v376l-182 97v32h645v-32 l-156 -99v-331q-61 -51 -150 -90t-187.5 -60.5t-186.5 -21.5q-147 0 -275 50t-225.5 141t-152 213t-54.5 263z" />
<glyph unicode="H" horiz-adv-x="1712" d="M90 0v33l174 84v1118l-174 84v33h643v-33l-160 -84v-483h568v483l-164 84v33h645v-33l-172 -84v-1118l172 -84v-33h-645v33l164 84v522h-568v-522l160 -84v-33h-643z" />
<glyph unicode="I" horiz-adv-x="845" d="M94 0v33l174 84v1118l-174 84v33h658v-33l-174 -84v-1118l174 -84v-33h-658z" />
<glyph unicode="J" horiz-adv-x="884" d="M23 -281q0 12 8 39l24 105l187 -37q37 49 51 111.5t14 164.5v1133l-174 84v33h658v-33l-175 -84v-733q0 -195 -51 -352.5t-151 -286.5q-102 -129 -168 -173t-121 -44q-47 0 -74.5 20.5t-27.5 52.5z" />
<glyph unicode="K" horiz-adv-x="1585" d="M90 0v33l174 84v1118l-174 84v33h658v-33l-175 -84v-1118l175 -84v-33h-658zM573 682l564 563l-154 74v33h483v-33l-135 -57l-475 -457l567 -711l146 -61v-33h-455z" />
<glyph unicode="L" horiz-adv-x="1329" d="M90 0v33l174 84v1118l-174 84v33h678v-33l-195 -84v-1122h451l166 387h33v-500h-1133z" />
<glyph unicode="M" horiz-adv-x="2037" d="M86 0v33l174 84l41 1118l-178 84v33h508l411 -955l408 955h492v-33l-181 -64l37 -1138l156 -84v-33h-621v33l164 82l-20 970l-467 -1095h-115l-471 1093l-27 -968l178 -82v-33h-489z" />
<glyph unicode="N" horiz-adv-x="1671" d="M86 0v33l174 84v1116l-174 86v33h389l795 -899v784l-234 82v33h549v-33l-172 -84v-1245h-127l-883 987v-860l234 -84v-33h-551z" />
<glyph unicode="O" horiz-adv-x="1615" d="M100 676q0 152 53.5 278.5t148.5 220t224 145.5t281 52t282 -52t225 -145.5t148.5 -220.5t53.5 -278q0 -150 -53.5 -278t-148.5 -221t-225 -145t-282 -52t-281 52t-224 145t-148.5 221t-53.5 278zM426 741q0 -199 55.5 -346t149.5 -228t209 -81q104 0 182 64.5t123 184.5 t45 279q0 199 -55.5 345.5t-147.5 227.5t-207 81q-102 0 -182 -64.5t-126 -183.5t-46 -279z" />
<glyph unicode="P" horiz-adv-x="1400" d="M90 0v33l174 84v1118l-174 84v33h709q242 0 388 -87t146 -278q0 -115 -76.5 -202t-209 -135t-297.5 -48h-177v-485l209 -84v-33h-692zM573 702h101q160 0 253 76t93 191q0 143 -94.5 206.5t-266.5 63.5h-86v-537z" />
<glyph unicode="Q" horiz-adv-x="1615" d="M100 676q0 152 53.5 278.5t148.5 220t224 145.5t281 52t282 -52t225 -145.5t148.5 -220.5t53.5 -278q0 -160 -59.5 -293t-166 -227.5t-248.5 -139.5q172 -145 284 -197t202 -52q47 0 79.5 6t55.5 12v-47q-45 -23 -108.5 -39t-149.5 -16q-96 0 -198.5 25.5t-226.5 92 t-278 185.5q-176 25 -312 119t-213 241.5t-77 329.5zM426 741q0 -199 55.5 -346t149.5 -228t209 -81q104 0 182 64.5t123 184.5t45 279q0 199 -55.5 345.5t-147.5 227.5t-207 81q-102 0 -182 -64.5t-126 -183.5t-46 -279z" />
<glyph unicode="R" horiz-adv-x="1488" d="M90 0v33l174 84v1118l-174 84v33h701q215 0 338.5 -89t123.5 -245q0 -115 -75.5 -196t-198.5 -126l379 -581l147 -82v-33h-444l-377 627h-111v-508l154 -86v-33h-637zM573 727h95q125 0 200.5 71.5t75.5 186.5q0 121 -74 187.5t-215 66.5h-82v-512z" />
<glyph unicode="S" horiz-adv-x="1171" d="M96 430h37l146 -250q53 -45 118.5 -70.5t132.5 -25.5q111 0 180.5 52t69.5 155q0 70 -31.5 115t-105.5 84.5t-203 97.5q-145 63 -223 150t-78 220q0 82 42 157t113 133.5t158 91t179 32.5q104 0 200.5 -24.5t178.5 -69.5l20 -328h-35l-143 232q-53 41 -103.5 62.5 t-113.5 21.5q-84 0 -139.5 -53.5t-55.5 -141.5q0 -84 60.5 -138t210.5 -122q186 -86 274 -176t88 -238q0 -133 -75.5 -226t-193.5 -142t-249 -49q-135 0 -237.5 27.5t-200.5 76.5z" />
<glyph unicode="T" horiz-adv-x="1435" d="M74 901v451h1288v-451h-33l-164 338h-293v-1122l218 -84v-33h-744v33l217 84v1122h-293l-164 -338h-32z" />
<glyph unicode="U" horiz-adv-x="1716" d="M90 1319v33h662v-33l-177 -84v-655q0 -170 52.5 -267.5t141.5 -138.5t198 -41q90 0 167.5 37t125 119t47.5 219v731l-193 80v33h512v-33l-176 -82v-655q0 -221 -73.5 -353.5t-205 -190.5t-305.5 -58q-178 0 -313 58t-211 190t-76 354v653z" />
<glyph unicode="V" horiz-adv-x="1564" d="M39 1319v33h639v-33l-166 -78l365 -840h12l362 840l-166 78v33h439v-33l-119 -66l-557 -1263h-119l-545 1249z" />
<glyph unicode="W" horiz-adv-x="2134" d="M25 1319v33h645v-33l-174 -78l237 -788h10l357 909h121l352 -909h12l238 788l-174 78v33h460v-33l-139 -72l-399 -1257h-119l-367 909h-12l-379 -909h-119l-393 1245z" />
<glyph unicode="X" horiz-adv-x="1597" d="M53 0v33l162 82l426 522l-428 604l-135 78v33h676v-33l-162 -80v-10l278 -385l308 385v8l-160 82v33h481v-33l-137 -72l-418 -506l453 -624l147 -84v-33h-686v33l148 78v8l-291 413l-330 -411l-4 -8l164 -80v-33h-492z" />
<glyph unicode="Y" horiz-adv-x="1544" d="M41 1319v33h633v-33l-154 -76v-8l357 -483l319 479v8l-158 80v33h467v-33l-137 -68l-432 -618v-516l182 -84v-33h-676v33l185 84v514l-449 610z" />
<glyph unicode="Z" horiz-adv-x="1435" d="M172 0v66l698 1173h-489l-152 -305h-32v418h1044v-66l-700 -1173h528l162 325h33v-438h-1092z" />
<glyph unicode="[" horiz-adv-x="536" d="M121 -307v1823h381v-54h-238v-1716h238v-53h-381z" />
<glyph unicode="\" horiz-adv-x="512" d="M0 1536h102l410 -1782h-102z" />
<glyph unicode="]" horiz-adv-x="536" d="M35 -254h237v1716h-237v54h381v-1823h-381v53z" />
<glyph unicode="^" d="M143 512l379 860h103l379 -860h-125l-306 692l-305 -692h-125z" />
<glyph unicode="_" horiz-adv-x="1024" d="M51 -184h922v-103h-922v103z" />
<glyph unicode="`" horiz-adv-x="561" d="M64 1403v45h260l154 -363h-45z" />
<glyph unicode="a" horiz-adv-x="1054" d="M70 213q0 74 26.5 127t96 92t196.5 70l203 51v127q0 78 -45 123t-117 45q-29 0 -56.5 -5t-56.5 -20v-209h-161q-37 0 -50.5 17.5t-13.5 58.5q0 61 59.5 122.5t155.5 101.5t207 40q166 0 266.5 -66.5t100.5 -195.5v-540q14 -14 38.5 -23.5t59.5 -9.5h59l6 -6v-29 q-23 -39 -77 -71.5t-140 -32.5t-141 36.5t-82 104.5h-12q-57 -68 -129 -103.5t-154 -35.5q-109 0 -174 64.5t-65 166.5zM340 274q0 -63 36 -96t99 -33q55 0 117 25v301q-104 -23 -159.5 -50.5t-74 -63.5t-18.5 -83z" />
<glyph unicode="b" horiz-adv-x="1191" d="M53 1399v24l393 113h25v-702h12q74 63 143.5 91.5t151.5 28.5q90 0 169 -54t126 -154.5t47 -239.5q0 -164 -65.5 -282t-175 -181t-240.5 -63q-88 0 -162 18t-137 59l-131 -65h-25v1311zM471 154q57 -68 154 -68q51 0 99 32t79 111.5t31 225.5q0 170 -70 250.5t-156 80.5 q-37 0 -68.5 -10t-68.5 -31v-591z" />
<glyph unicode="c" horiz-adv-x="991" d="M78 424q0 160 69.5 278.5t190.5 185t274 66.5q106 0 174 -33.5t101 -75.5t33 -69q0 -33 -35 -57l-86 -70l-195 217h-20q-111 0 -171.5 -95t-60.5 -234q0 -156 78 -246t225 -90q57 0 123 14t135 49h7v-33q-51 -109 -155 -180t-245 -71q-131 0 -231.5 55t-155.5 155.5 t-55 233.5z" />
<glyph unicode="d" horiz-adv-x="1193" d="M66 399q0 170 62 295t171 192.5t248 67.5q98 0 170 -18v367l-142 98v22l404 113h25v-1444l143 -59v-33h-410l-18 102h-12q-145 -122 -297 -122q-90 0 -169 51t-127 145t-48 223zM354 463q0 -162 70 -239t156 -77q37 0 68.5 10.5t68.5 30.5v594q-29 31 -62.5 47.5 t-76.5 16.5q-59 0 -110.5 -33t-82.5 -115.5t-31 -234.5z" />
<glyph unicode="e" horiz-adv-x="1015" d="M78 424q0 156 67.5 275.5t183 187t255.5 67.5q166 0 258 -110.5t94 -313.5l-8 -10h-574v-10q0 -86 33 -156.5t102.5 -111.5t184.5 -41q57 0 122.5 14t135.5 49h6v-33q-51 -109 -157 -180t-249 -71q-211 0 -332.5 121.5t-121.5 322.5zM360 612h347q-14 141 -57 195.5 t-113 54.5q-72 0 -117 -65.5t-60 -184.5z" />
<glyph unicode="f" horiz-adv-x="759" d="M55 842v92h156v49q0 86 50 182.5t131 180.5t175.5 137t182.5 53q57 0 81.5 -21.5t24.5 -54.5q0 -6 -2 -17t-4 -20l-25 -112l-254 69q-35 -45 -53 -122.5t-18 -204.5v-119h241v-92h-241v-746l157 -63v-33h-583v33l137 65v744h-156z" />
<glyph unicode="g" horiz-adv-x="1107" d="M131 156q0 33 6 63.5t17 59.5l155 102q-80 39 -127 108.5t-47 155.5t49 156.5t132 110.5t188 40q57 0 111.5 -12t84.5 -31l320 23v-123l-223 16l-2 -2q35 -33 56 -80t21 -98q0 -88 -48 -158.5t-132 -110.5t-188 -40q-63 0 -123 16q-41 -25 -56.5 -52.5t-15.5 -53.5 q0 -37 38 -57.5t120 -20.5h233q160 0 237 -71.5t77 -209.5q0 -94 -59.5 -181t-173 -142.5t-277.5 -55.5q-190 0 -281.5 74t-91.5 185q0 45 21 88l127 86v6q-147 53 -148 209zM303 -184q0 -102 62.5 -167t166.5 -65q115 0 181.5 57.5t66.5 139.5q0 72 -37.5 107.5 t-144.5 35.5h-178q-23 0 -45 2q-39 -14 -55.5 -42.5t-16.5 -67.5zM375 651q0 -113 39 -171t102 -58q57 0 88 59.5t31 157.5q0 111 -38 170t-97 59q-57 0 -91 -54t-34 -163z" />
<glyph unicode="h" horiz-adv-x="1265" d="M63 0v33l138 65v1205l-131 96v24l393 113h24v-733h9q74 72 143.5 111.5t163.5 39.5q125 0 203.5 -63.5t78.5 -188.5v-604l138 -65v-33h-529v33l103 63v522q0 72 -41 110t-107 38q-39 0 -85 -14.5t-77 -38.5v-617l105 -63v-33h-529z" />
<glyph unicode="i" horiz-adv-x="681" d="M68 0v33l137 65v623l-131 96v25l395 112h25v-856l120 -65v-33h-546zM195 1305q0 66 42 107.5t107 41.5q63 0 106.5 -42t43.5 -107q0 -63 -43.5 -105.5t-106.5 -42.5q-66 0 -107.5 42t-41.5 106z" />
<glyph unicode="j" horiz-adv-x="675" d="M72 -434q55 45 82.5 87t37 95t9.5 137v836l-129 96v25l393 112h24v-905q0 -125 -35.5 -214t-126.5 -161.5t-255 -144.5v37zM190 1305q0 66 42 107.5t108 41.5t107.5 -42t41.5 -107q0 -63 -41.5 -105.5t-107.5 -42.5t-108 42t-42 106z" />
<glyph unicode="k" horiz-adv-x="1234" d="M63 0v33l138 65v1205l-131 96v24l393 113h24v-1001l308 280v12l-101 74v33h434v-33l-131 -72l-278 -219l375 -508l131 -69v-33h-400l-63 106l-275 381v-391l134 -63v-33h-558z" />
<glyph unicode="l" horiz-adv-x="667" d="M59 0v33l138 65v1205l-131 96v24l395 113h24v-1438l121 -65v-33h-547z" />
<glyph unicode="m" horiz-adv-x="1845" d="M63 0v33l138 65v623l-131 84v24l372 125h25l20 -151h9q72 72 139 111.5t162 39.5q100 0 170.5 -43t95.5 -127h8q78 80 148.5 125t171.5 45q121 0 198.5 -63.5t77.5 -188.5v-604l135 -65v-33h-528v33l104 65v520q0 72 -40 110t-103 38q-96 0 -162 -64v-604l103 -65v-33 h-492v33l100 65v520q0 72 -38.5 110t-104.5 38q-37 0 -80 -14.5t-74 -38.5v-615l99 -65v-33h-523z" />
<glyph unicode="n" horiz-adv-x="1265" d="M63 0v33l138 65v623l-131 84v24l372 125h25l20 -151h9q74 72 143.5 111.5t163.5 39.5q125 0 203.5 -63.5t78.5 -188.5v-604l138 -65v-33h-529v33l103 65v520q0 72 -41 110t-107 38q-39 0 -85 -14.5t-77 -38.5v-615l105 -65v-33h-529z" />
<glyph unicode="o" horiz-adv-x="1120" d="M72 467q0 135 61.5 245.5t172 176t255.5 65.5t255 -65.5t171.5 -176t61.5 -245.5q0 -133 -61.5 -243.5t-171.5 -177t-255 -66.5t-255.5 66.5t-172 177t-61.5 243.5zM367 510q0 -113 22.5 -210t70.5 -158.5t124 -61.5q59 0 96 48t55.5 127t18.5 171q0 113 -21.5 211 t-69 158.5t-120.5 60.5q-61 0 -100.5 -48t-57.5 -127t-18 -171z" />
<glyph unicode="p" horiz-adv-x="1206" d="M63 -438l138 65v1082l-131 96v24l372 125h25l16 -125h13q76 66 146.5 95.5t152.5 29.5q90 0 168.5 -54t126 -154.5t47.5 -239.5q0 -164 -65.5 -282t-174.5 -181t-235 -63q-47 0 -90.5 4t-84.5 14v-371l160 -65v-33h-584v33zM487 154q59 -68 162 -68q49 0 95.5 30.5 t76 108.5t29.5 221q0 174 -69.5 257t-155.5 83q-37 0 -69 -10t-69 -31v-591z" />
<glyph unicode="q" horiz-adv-x="1187" d="M70 399q0 170 64.5 295t177 192.5t257.5 67.5q74 0 132.5 -12t115.5 -39l166 51h25v-1327l135 -65v-33h-584v33l160 61v475h-12q-78 -63 -149 -90.5t-144 -27.5q-92 0 -170 51t-126 145t-48 223zM358 461q0 -162 69 -238t155 -76q31 0 62.5 9.5t74.5 31.5v535 q0 43 -3 57.5t-16 26.5q-25 20 -57.5 29.5t-69.5 9.5q-59 0 -108 -33t-78 -116.5t-29 -235.5z" />
<glyph unicode="r" horiz-adv-x="870" d="M68 0v33l135 65v611l-129 96v24l372 125h25l18 -190h11q72 106 130 147t122 41q57 0 86.5 -24.5t29.5 -67.5q0 -12 -6 -41l-35 -110l-188 49q-88 -27 -147 -101v-559l165 -65v-33h-589z" />
<glyph unicode="s" horiz-adv-x="894" d="M106 53v238h31l72 -107q73 -112 209 -112h2q160 0 160 114q0 43 -21.5 70t-73 52.5t-139.5 60.5q-117 47 -171 110.5t-54 157.5q0 88 46 159.5t126 114.5t180 43q70 0 136.5 -14t129.5 -47v-244h-30l-64 96q-41 59 -81 88t-97 29q-61 0 -99 -30.5t-38 -86.5 q0 -35 17.5 -61.5t62.5 -51t129 -57.5q57 -23 114.5 -52t94 -83.5t36.5 -150.5t-51 -166t-132 -106.5t-173 -36.5q-100 0 -175 19t-147 54z" />
<glyph unicode="t" horiz-adv-x="790" d="M20 842v28l189 64l207 225h41v-225h282v-92h-282v-606q0 -53 44 -78t105 -25q39 0 69 4t58 10l6 -4v-34q-33 -49 -111.5 -89t-174.5 -40q-125 0 -205 53t-80 149v660h-148z" />
<glyph unicode="u" horiz-adv-x="1208" d="M31 901v33h424v-619q0 -72 41 -109.5t104 -37.5q39 0 83 14.5t73 38.5v615l-123 65v33h411v-838l130 -63v-33h-418v131h-8q-72 -72 -141 -111.5t-161 -39.5q-123 0 -201.5 63t-78.5 188v605z" />
<glyph unicode="v" horiz-adv-x="974" d="M-74 901v33h580v-33l-141 -59v-6l213 -457h8l188 448v9l-129 65v33h404v-33l-146 -70l-383 -831h-78l-389 846z" />
<glyph unicode="w" horiz-adv-x="1490" d="M-74 901v33h580v-33l-141 -59v-6l172 -457h10l235 555h78l246 -553h8l176 446v9l-129 65v33h402v-33l-144 -70l-360 -831h-78l-252 555l-260 -555h-78l-338 846z" />
<glyph unicode="x" horiz-adv-x="1124" d="M37 0v33l106 63l281 334l-295 416l-92 55v33h557v-33l-115 -53v-12l156 -222l160 209v13l-105 65v33h367v-33l-109 -63l-258 -303l318 -447l84 -55v-33h-545v33l112 53v12l-178 252l-178 -239v-13l113 -65v-33h-379z" />
<glyph unicode="y" horiz-adv-x="974" d="M-74 901v33h566v-33l-127 -59v-6l225 -474h14l174 465v9l-121 65v33h392v-33l-146 -67l-430 -1047q-47 -115 -88 -175.5t-88 -83t-113 -22.5q-47 0 -65.5 16.5t-18.5 65.5v129h222q29 35 55 85.5t61 136.5l23 55l-408 852z" />
<glyph unicode="z" horiz-adv-x="1028" d="M104 614l23 340h10q29 -6 70 -13t78 -7h616v-41l-440 -797h323l95 238h39v-334h-812v41l443 797h-295l-111 -224h-39z" />
<glyph unicode="{" horiz-adv-x="536" d="M-2 580v51h51q100 0 138 51t38 119q0 70 -24.5 139.5t-49 144t-24.5 158.5q0 121 77 197t247 76h51v-54h-56q-88 0 -132 -50t-44 -132q0 -80 22.5 -152.5t44 -141t21.5 -140.5q0 -76 -42 -139.5t-146 -102.5q104 -39 146 -102.5t42 -139.5q0 -70 -21.5 -139t-44 -142 t-22.5 -153q0 -82 44 -132t132 -50h56v-53h-51q-170 0 -247 75.5t-77 196.5q0 86 24.5 160t49 143.5t24.5 139.5q0 68 -37.5 120t-138.5 52h-51z" />
<glyph unicode="|" horiz-adv-x="512" d="M205 -512v2048h102v-2048h-102z" />
<glyph unicode="}" horiz-adv-x="536" d="M35 -254h55q90 0 133 50t43 132q0 80 -21.5 153t-44 142.5t-22.5 138.5q0 76 42 139.5t147 102.5q-104 39 -146.5 102.5t-42.5 139.5q0 72 22.5 140.5t44 141t21.5 152.5q0 82 -43 132t-133 50h-55v54h51q170 0 247 -76t77 -197q0 -84 -25 -158.5t-49.5 -144.5 t-24.5 -139q0 -68 38 -119t138 -51h52v-51h-52q-100 0 -138 -52.5t-38 -119.5q0 -70 24.5 -139.5t49.5 -143.5t25 -160q0 -121 -77 -196.5t-247 -75.5h-51v53z" />
<glyph unicode="~" d="M143 412q0 139 64.5 214.5t169.5 75.5q74 0 127 -27.5t95 -63.5t84 -63.5t93 -27.5q115 0 115 182h113q0 -141 -61.5 -215.5t-172.5 -74.5q-72 0 -126 27.5t-96 63.5t-84 63.5t-91 27.5q-53 0 -85 -47t-32 -135h-113z" />
<glyph unicode="&#xa1;" horiz-adv-x="550" d="M115 -408l129 906h65l127 -906h-321zM123 803q0 61 46 106t107 45t106.5 -45t45.5 -106t-45.5 -107.5t-106.5 -46.5t-107 46t-46 108z" />
<glyph unicode="&#xa2;" d="M137 635q0 158 69.5 277.5t190.5 185t271 65.5l34 137h86l-34 -141q117 -18 171 -70.5t54 -93.5q0 -25 -8 -39t-27 -28l-90 -74l-131 176l-145 -590q57 -25 133 -24q57 0 124.5 19.5t135.5 60.5h6v-70q-53 -98 -154.5 -168t-242.5 -70q-33 0 -64 5l-35 -140h-86l39 156 q-137 41 -217 152.5t-80 273.5zM410 745q0 -80 22.5 -146.5t69.5 -109.5l145 588h-6q-111 0 -171 -96.5t-60 -235.5z" />
<glyph unicode="&#xa3;" d="M76 72l108 155q29 39 42.5 67t18.5 57.5t5 74.5v215h-152v86h152v203q0 82 43 160.5t116.5 142t166 101.5t190.5 38q119 0 190.5 -44t71.5 -97q0 -29 -22 -53l-88 -107l-213 201q-78 -4 -125.5 -68.5t-47.5 -177.5v-299h310v-86h-310v-57q0 -47 -10 -84t-37.5 -77 t-78.5 -95l-95 -99h510l158 199h41l-82 -428h-856z" />
<glyph unicode="&#xa4;" d="M141 205l160 160q-29 41 -45 90t-16 102t16 102.5t45 90.5l-160 159l84 82l160 -160q86 59 188 60q55 0 103.5 -16.5t87.5 -43.5l160 160l84 -82l-160 -159q29 -41 45 -90.5t16 -102.5t-16 -102t-45 -90l160 -160l-84 -82l-160 160q-86 -59 -191 -60q-53 0 -101 16.5 t-87 43.5l-160 -160zM356 557q0 -100 62.5 -164.5t154.5 -64.5q94 0 157 64.5t63 164.5t-62.5 164.5t-157.5 64.5q-92 0 -154.5 -64.5t-62.5 -164.5z" />
<glyph unicode="&#xa5;" d="M2 1319v33h582v-33l-129 -51v-6l221 -330l190 323v7l-133 57v33h414v-33l-115 -45l-260 -395h227v-86h-270v-222h270v-84h-270v-370l180 -84v-33h-657v33l178 84v370h-272v84h272v222h-272v86h227l-276 387z" />
<glyph unicode="&#xa6;" horiz-adv-x="512" d="M205 307h102v-819h-102v819zM205 717v819h102v-819h-102z" />
<glyph unicode="&#xa7;" horiz-adv-x="1095" d="M63 518q0 104 59.5 180t160.5 117q-41 39 -60.5 89t-19.5 112q0 102 59.5 182t157.5 127t219 47q88 0 154.5 -21.5t105.5 -54t39 -65.5q0 -18 -23 -41l-88 -98l-196 186h-10q-84 0 -138.5 -45t-54.5 -113q0 -41 22.5 -75.5t84 -64.5t180.5 -62q176 -47 245.5 -122 t69.5 -184q0 -100 -56 -178t-161 -121q49 -41 70.5 -92t21.5 -119q0 -94 -62.5 -174t-165 -128t-222.5 -48q-86 0 -157 23.5t-113 58.5t-42 68q0 20 25 45l86 90l201 -199h10q94 0 155.5 45t61.5 113q0 43 -22.5 79t-85 66.5t-183.5 61.5q-180 47 -254 126t-74 189zM281 627 q0 -47 23.5 -84t87 -67.5t186.5 -59.5q80 -20 137 -45q45 16 72.5 50t27.5 81t-23.5 83t-87 64.5t-180.5 57.5q-98 23 -164 55q-80 -43 -79 -135z" />
<glyph unicode="&#xa8;" horiz-adv-x="811" d="M84 1264q0 49 33 83.5t86 34.5q51 0 85 -34.5t34 -83.5t-34 -84t-85 -35q-53 0 -86 34.5t-33 84.5zM490 1264q0 49 33 83.5t86 34.5q51 0 85 -34.5t34 -83.5t-34 -84t-85 -35q-53 0 -86 34.5t-33 84.5z" />
<glyph unicode="&#xa9;" horiz-adv-x="1650" d="M143 676q0 152 51.5 278.5t143.5 220t216 145.5t271 52t271.5 -52t216.5 -145.5t143 -220.5t51 -278q0 -150 -51 -278t-143 -221t-216.5 -145t-271.5 -52t-271 52t-216 145t-143.5 221t-51.5 278zM229 676q0 -178 78 -316.5t213 -218.5t305 -80t305.5 80t213 218.5 t77.5 316.5t-77.5 316t-213 218t-305.5 80t-305 -80t-213 -218t-78 -316zM420 664q0 123 62.5 223t166 159.5t228.5 59.5q94 0 149 -17.5t113 -46.5l8 -235h-60l-90 170q-31 18 -57.5 27.5t-56.5 9.5q-113 0 -184.5 -89t-71.5 -227q0 -160 69.5 -250t173.5 -90q41 0 73 8.5 t58 22.5l101 156h59l-16 -211q-61 -31 -128 -50.5t-161 -19.5q-205 0 -320.5 110.5t-115.5 289.5z" />
<glyph unicode="&#xaa;" horiz-adv-x="847" d="M168 977q0 59 37 93t139 60l102 27v72q0 80 -73 80q-12 0 -25.5 -2t-28.5 -9v-104h-100q-33 0 -33 33t33 66.5t85 56t110 22.5q100 0 151 -37t51 -102v-281q18 -18 56 -18h30l5 -4v-19q-14 -20 -44 -38.5t-83 -18.5q-96 0 -125 74h-6q-29 -33 -68 -53.5t-86 -20.5 q-51 0 -89 33t-38 90zM174 596v109h508v-109h-508zM332 1010q0 -31 19.5 -48.5t47.5 -17.5q25 0 47 10v158q-68 -16 -91 -39.5t-23 -62.5z" />
<glyph unicode="&#xab;" horiz-adv-x="954" d="M53 506l416 362h39l-217 -362l217 -363h-39zM446 506l416 362h39l-217 -362l217 -363h-39z" />
<glyph unicode="&#xac;" d="M143 502v110h861v-485h-117v375h-744z" />
<glyph unicode="&#xad;" horiz-adv-x="755" d="M96 455v143h563v-143h-563z" />
<glyph unicode="&#xae;" horiz-adv-x="1130" d="M121 920q0 129 57.5 231t157.5 161.5t229 59.5t229.5 -59.5t159 -161.5t58.5 -231t-58.5 -232.5t-159 -163t-229.5 -59.5t-229 59.5t-157.5 163t-57.5 232.5zM197 920q0 -111 46 -198t128.5 -138.5t193.5 -51.5t194 51.5t129 138.5t46 198q0 109 -46 195.5t-129 138 t-194 51.5t-193.5 -51.5t-128.5 -138.5t-46 -195zM330 662v14l63 33v430l-63 32v13h245q82 0 130.5 -35t48.5 -94q0 -45 -31 -80t-80 -53l113 -220l53 -26v-14h-160l-108 239h-35v-192l61 -33v-14h-237zM506 948h22q45 0 76 24.5t31 71.5t-31 70t-80 23h-18v-189z" />
<glyph unicode="&#xaf;" horiz-adv-x="761" d="M84 1202v123h594v-123h-594z" />
<glyph unicode="&#xb0;" horiz-adv-x="1024" d="M246 1106q0 72 34.5 132t95 97t136.5 37q78 0 137.5 -37t94 -97t34.5 -132t-34.5 -132.5t-94 -97t-137.5 -36.5q-76 0 -136.5 36.5t-95 97t-34.5 132.5zM346 1106q0 -82 48 -130t118 -48t118 48t48 130t-48 130t-118 48t-118 -48t-48 -130z" />
<glyph unicode="&#xb1;" d="M143 123v110h861v-110h-861zM143 584v110h371v293h119v-293h371v-110h-371v-273h-119v273h-371z" />
<glyph unicode="&#xb2;" horiz-adv-x="700" d="M41 1616q0 53 45 105t119 87t160 35q121 0 191.5 -61.5t70.5 -157.5q0 -45 -14.5 -86t-55.5 -89t-122 -115t-216 -163h342l68 121h30l-12 -258h-594v49q145 154 220 255.5t101.5 172t26.5 135.5q0 55 -25.5 87t-78.5 32q-45 0 -90 -22v-177h-121q-23 0 -34 9.5t-11 40.5z " />
<glyph unicode="&#xb3;" horiz-adv-x="700" d="M41 1184q0 27 10 35t37 8h117v-123q39 -18 92 -19q137 0 137 148q0 84 -40 128t-144 44h-64v65h25q80 0 131 46t51 134q0 115 -96 115q-43 0 -78 -16v-144h-117q-23 0 -35 9.5t-12 42.5q0 43 39 86t106.5 71.5t153.5 28.5q119 0 191.5 -50t72.5 -138q0 -72 -62 -124.5 t-177 -70.5q281 -25 280 -211q0 -70 -45 -123t-121.5 -82.5t-170.5 -29.5q-129 0 -205 54t-76 116z" />
<glyph unicode="&#xb4;" horiz-adv-x="561" d="M82 1085l154 363h262v-45l-371 -318h-45z" />
<glyph unicode="&#xb5;" d="M135 -471v1405h287v-619q0 -72 41 -109.5t104 -37.5q39 0 83 14.5t75 38.5v713h287v-782q16 -14 39.5 -23.5t60.5 -9.5h57l7 -6v-29q-23 -39 -77.5 -71.5t-137.5 -32.5q-92 0 -147.5 39.5t-80.5 111.5h-16q-66 -72 -125 -111.5t-143 -39.5q-45 0 -86 13t-74 44l96 -467 l-246 -41h-4z" />
<glyph unicode="&#xb6;" horiz-adv-x="1054" d="M72 1053q0 156 97 227.5t255 71.5h235v-1577h-118v960h-84q-111 0 -198 41t-137 114t-50 163zM770 -225v1577h293v-33l-174 -84v-1460h-119z" />
<glyph unicode="&#xb7;" horiz-adv-x="512" d="M104 557q0 61 45.5 106.5t106.5 45.5t106.5 -45.5t45.5 -106.5q0 -63 -45.5 -108.5t-106.5 -45.5t-106.5 45.5t-45.5 108.5z" />
<glyph unicode="&#xb8;" horiz-adv-x="1024" d="M322 -403h8q25 -12 54.5 -18.5t61.5 -6.5q113 0 113 80q0 43 -41 73.5t-162 63.5l119 260h78l-61 -137q117 -35 163.5 -85t46.5 -130q0 -82 -58.5 -135.5t-156.5 -53.5q-106 0 -165 50v39z" />
<glyph unicode="&#xb9;" horiz-adv-x="600" d="M31 1573v71l299 178h114v-712l105 -43v-33h-434v33l116 43v555z" />
<glyph unicode="&#xba;" horiz-adv-x="847" d="M154 1112q0 106 74.5 183t195.5 77q80 0 141.5 -36t95 -94t33.5 -130q0 -106 -75.5 -183t-194.5 -77q-123 0 -196.5 77t-73.5 183zM174 596v109h508v-109h-508zM332 1135q0 -90 24.5 -159t77.5 -69q43 0 62.5 55.5t19.5 127.5q0 90 -24.5 158.5t-77.5 68.5 q-43 0 -62.5 -55.5t-19.5 -126.5z" />
<glyph unicode="&#xbb;" horiz-adv-x="954" d="M53 143l217 363l-217 362h39l416 -362l-416 -363h-39zM446 143l217 363l-217 362h39l416 -362l-416 -363h-39z" />
<glyph unicode="&#xbc;" horiz-adv-x="1624" d="M111 1266v71l299 178h114v-712l105 -43v-33h-434v33l116 43v555zM312 41l966 1495l93 -61l-967 -1495zM846 203v39l374 546h174v-485h144v-100h-144v-115l103 -55v-33h-434v33l116 55v115h-333zM979 303h200v307z" />
<glyph unicode="&#xbd;" horiz-adv-x="1624" d="M99 1266v71l299 178h114v-712l105 -43v-33h-434v33l116 43v555zM256 41l966 1495l93 -61l-967 -1495zM895 582q0 53 45 105t119 87t160 35q121 0 191.5 -61.5t70.5 -157.5q0 -45 -14.5 -86t-55.5 -89t-122 -115t-216 -163h342l68 121h30l-12 -258h-594v49 q145 154 220 255.5t101.5 172t26.5 135.5q0 55 -25.5 87t-78.5 32q-45 0 -90 -22v-177h-121q-23 0 -34 9.5t-11 40.5z" />
<glyph unicode="&#xbe;" horiz-adv-x="1624" d="M70 877q0 27 10 35t37 8h117v-123q39 -18 92 -19q137 0 137 148q0 84 -40 128t-144 44h-64v65h25q80 0 131 46t51 134q0 115 -96 115q-43 0 -78 -16v-144h-117q-23 0 -35 9.5t-12 42.5q0 43 39 86t106.5 71.5t153.5 28.5q119 0 191.5 -50t72.5 -138q0 -72 -62 -124.5 t-177 -70.5q281 -25 280 -211q0 -70 -45 -123t-121.5 -82.5t-170.5 -29.5q-129 0 -205 54t-76 116zM346 43l966 1495l93 -61l-967 -1495zM895 203v39l374 546h174v-485h144v-100h-144v-115l103 -55v-33h-434v33l116 55v115h-333zM1028 303h200v307z" />
<glyph unicode="&#xbf;" horiz-adv-x="980" d="M72 -66q0 145 106.5 252t313.5 154l24 158h66l65 -328q-330 -51 -330 -281q0 -104 55.5 -159.5t151.5 -55.5q41 0 79 9.5t73 31.5v244h184q33 0 47.5 -15.5t14.5 -58.5q0 -76 -59.5 -147.5t-161 -118.5t-226.5 -47t-215 48t-139 130t-49 184zM399 803q0 61 46.5 106 t107.5 45t106.5 -45t45.5 -106t-45.5 -107.5t-106.5 -46.5t-107.5 46t-46.5 108z" />
<glyph unicode="&#xc0;" horiz-adv-x="1585" d="M39 0v33l125 69l534 1260h181l528 -1258l139 -71v-33h-647v33l178 73l-139 340h-485l-140 -340l170 -73v-33h-444zM397 1714v51h264l150 -311h-47zM500 559h391l-197 475z" />
<glyph unicode="&#xc1;" horiz-adv-x="1585" d="M39 0v33l125 69l534 1260h181l528 -1258l139 -71v-33h-647v33l178 73l-139 340h-485l-140 -340l170 -73v-33h-444zM500 559h391l-197 475zM766 1454l152 311h262v-51l-365 -260h-49z" />
<glyph unicode="&#xc2;" horiz-adv-x="1585" d="M39 0v33l125 69l534 1260h181l528 -1258l139 -71v-33h-647v33l178 73l-139 340h-485l-140 -340l170 -73v-33h-444zM463 1454l281 311h96l279 -311h-45l-283 131l-283 -131h-45zM500 559h391l-197 475z" />
<glyph unicode="&#xc3;" horiz-adv-x="1585" d="M39 0v33l125 69l534 1260h181l528 -1258l139 -71v-33h-647v33l178 73l-139 340h-485l-140 -340l170 -73v-33h-444zM453 1479q51 156 100.5 207t112.5 51q61 0 112.5 -28t97.5 -54.5t91 -26.5q35 0 61.5 20.5t55.5 88.5h45q-49 -156 -99.5 -207t-113.5 -51 q-61 0 -112.5 26.5t-97.5 54t-91 27.5q-35 0 -61.5 -20.5t-55.5 -87.5h-45zM500 559h391l-197 475z" />
<glyph unicode="&#xc4;" horiz-adv-x="1585" d="M39 0v33l125 69l534 1260h181l528 -1258l139 -71v-33h-647v33l178 73l-139 340h-485l-140 -340l170 -73v-33h-444zM469 1608q0 51 33 86t86 35q51 0 85 -35t34 -86q0 -49 -34 -84t-85 -35q-53 0 -86 35t-33 84zM500 559h391l-197 475zM875 1608q0 51 33 86t86 35 q51 0 85 -35t34 -86q0 -49 -34 -84t-85 -35q-53 0 -86 35t-33 84z" />
<glyph unicode="&#xc5;" horiz-adv-x="1585" d="M39 0v33l125 69l534 1260h181l528 -1258l139 -71v-33h-647v33l178 73l-139 340h-485l-140 -340l170 -73v-33h-444zM500 559h391l-197 475zM609 1628q0 74 51 124t131 50t131 -50t51 -124q0 -76 -50 -125t-132 -49q-80 0 -131 49t-51 125zM721 1640q0 -135 78 -135 q61 0 62 109q0 137 -78 137q-29 0 -45.5 -25.5t-16.5 -85.5z" />
<glyph unicode="&#xc6;" horiz-adv-x="2107" d="M35 0v33l131 71l784 1248h969v-355h-33l-151 242h-449v-485h316l114 176h33v-461h-33l-114 172h-316v-528h496l162 305h32v-418h-1175v33l176 84v354h-432l-230 -367l162 -71v-33h-442zM614 584h363v583z" />
<glyph unicode="&#xc7;" horiz-adv-x="1456" d="M100 647q0 154 61.5 285t167 230.5t241 154.5t280.5 55q106 0 179 -12t129 -34.5t116 -51.5l22 -383h-36l-195 317q-51 33 -96 47.5t-109 14.5q-125 0 -224 -75t-156.5 -210t-57.5 -317q0 -180 55 -309.5t150.5 -200t214.5 -70.5q78 0 137 19.5t115 50.5l184 274h35 l-29 -346q-80 -47 -190.5 -75.5t-249.5 -30.5l-31 -68q119 -35 166 -85t47 -130q0 -82 -58.5 -135.5t-156.5 -53.5q-106 0 -166 50v39h6q25 -12 55.5 -18.5t61.5 -6.5q113 0 113 80q0 43 -40 73.5t-161 63.5l88 193q-203 10 -352.5 99t-232.5 236.5t-83 329.5z" />
<glyph unicode="&#xc8;" horiz-adv-x="1394" d="M90 0v33l174 84v1118l-174 84v33h1116v-355h-32l-152 242h-449v-485h316l115 176h32v-461h-32l-115 172h-316v-528h498l160 305h33v-418h-1174zM332 1714v51h264l150 -311h-47z" />
<glyph unicode="&#xc9;" horiz-adv-x="1394" d="M90 0v33l174 84v1118l-174 84v33h1116v-355h-32l-152 242h-449v-485h316l115 176h32v-461h-32l-115 172h-316v-528h498l160 305h33v-418h-1174zM700 1454l152 311h262v-51l-365 -260h-49z" />
<glyph unicode="&#xca;" horiz-adv-x="1394" d="M90 0v33l174 84v1118l-174 84v33h1116v-355h-32l-152 242h-449v-485h316l115 176h32v-461h-32l-115 172h-316v-528h498l160 305h33v-418h-1174zM397 1454l281 311h96l279 -311h-45l-283 131l-283 -131h-45z" />
<glyph unicode="&#xcb;" horiz-adv-x="1394" d="M90 0v33l174 84v1118l-174 84v33h1116v-355h-32l-152 242h-449v-485h316l115 176h32v-461h-32l-115 172h-316v-528h498l160 305h33v-418h-1174zM403 1608q0 51 33 86t86 35q51 0 85 -35t34 -86q0 -49 -34 -84t-85 -35q-53 0 -86 35t-33 84zM809 1608q0 51 33 86t86 35 q51 0 85 -35t34 -86q0 -49 -34 -84t-85 -35q-53 0 -86 35t-33 84z" />
<glyph unicode="&#xcc;" horiz-adv-x="845" d="M31 1714v51h264l150 -311h-47zM94 0v33l174 84v1118l-174 84v33h658v-33l-174 -84v-1118l174 -84v-33h-658z" />
<glyph unicode="&#xcd;" horiz-adv-x="845" d="M94 0v33l174 84v1118l-174 84v33h658v-33l-174 -84v-1118l174 -84v-33h-658zM399 1454l152 311h262v-51l-365 -260h-49z" />
<glyph unicode="&#xce;" horiz-adv-x="845" d="M94 0v33l174 84v1118l-174 84v33h658v-33l-174 -84v-1118l174 -84v-33h-658zM96 1454l281 311h96l279 -311h-45l-283 131l-283 -131h-45z" />
<glyph unicode="&#xcf;" horiz-adv-x="845" d="M94 0v33l174 84v1118l-174 84v33h658v-33l-174 -84v-1118l174 -84v-33h-658zM102 1608q0 51 33 86t86 35q51 0 85 -35t34 -86q0 -49 -34 -84t-85 -35q-53 0 -86 35t-33 84zM508 1608q0 51 33 86t86 35q51 0 85 -35t34 -86q0 -49 -34 -84t-85 -35q-53 0 -86 35t-33 84z " />
<glyph unicode="&#xd0;" horiz-adv-x="1642" d="M90 0v33l174 84v530h-174v109h174v479l-174 84v33h698q242 0 412 -80t260 -219.5t90 -315.5q0 -160 -58 -294t-162.5 -233t-246 -154.5t-309.5 -55.5h-684zM573 113h162q236 0 365 152.5t129 408.5q0 258 -133 411.5t-391 153.5h-132v-483h310v-109h-310v-534z" />
<glyph unicode="&#xd1;" horiz-adv-x="1671" d="M86 0v33l174 84v1116l-174 86v33h389l795 -899v784l-234 82v33h549v-33l-172 -84v-1245h-127l-883 987v-860l234 -84v-33h-551zM508 1479q51 156 100.5 207t112.5 51q61 0 112.5 -28t97.5 -54.5t91 -26.5q35 0 61.5 20.5t55.5 88.5h45q-49 -156 -99.5 -207t-113.5 -51 q-61 0 -112.5 26.5t-97.5 54t-91 27.5q-35 0 -61.5 -20.5t-55.5 -87.5h-45z" />
<glyph unicode="&#xd2;" horiz-adv-x="1615" d="M100 676q0 152 53.5 278.5t148.5 220t224 145.5t281 52t282 -52t225 -145.5t148.5 -220.5t53.5 -278q0 -150 -53.5 -278t-148.5 -221t-225 -145t-282 -52t-281 52t-224 145t-148.5 221t-53.5 278zM406 1714v51h264l150 -311h-47zM426 741q0 -199 55.5 -346t149.5 -228 t209 -81q104 0 182 64.5t123 184.5t45 279q0 199 -55.5 345.5t-147.5 227.5t-207 81q-102 0 -182 -64.5t-126 -183.5t-46 -279z" />
<glyph unicode="&#xd3;" horiz-adv-x="1615" d="M100 676q0 152 53.5 278.5t148.5 220t224 145.5t281 52t282 -52t225 -145.5t148.5 -220.5t53.5 -278q0 -150 -53.5 -278t-148.5 -221t-225 -145t-282 -52t-281 52t-224 145t-148.5 221t-53.5 278zM426 741q0 -199 55.5 -346t149.5 -228t209 -81q104 0 182 64.5t123 184.5 t45 279q0 199 -55.5 345.5t-147.5 227.5t-207 81q-102 0 -182 -64.5t-126 -183.5t-46 -279zM774 1454l152 311h262v-51l-365 -260h-49z" />
<glyph unicode="&#xd4;" horiz-adv-x="1615" d="M100 676q0 152 53.5 278.5t148.5 220t224 145.5t281 52t282 -52t225 -145.5t148.5 -220.5t53.5 -278q0 -150 -53.5 -278t-148.5 -221t-225 -145t-282 -52t-281 52t-224 145t-148.5 221t-53.5 278zM426 741q0 -199 55.5 -346t149.5 -228t209 -81q104 0 182 64.5t123 184.5 t45 279q0 199 -55.5 345.5t-147.5 227.5t-207 81q-102 0 -182 -64.5t-126 -183.5t-46 -279zM471 1454l281 311h96l279 -311h-45l-283 131l-283 -131h-45z" />
<glyph unicode="&#xd5;" horiz-adv-x="1615" d="M100 676q0 152 53.5 278.5t148.5 220t224 145.5t281 52t282 -52t225 -145.5t148.5 -220.5t53.5 -278q0 -150 -53.5 -278t-148.5 -221t-225 -145t-282 -52t-281 52t-224 145t-148.5 221t-53.5 278zM426 741q0 -199 55.5 -346t149.5 -228t209 -81q104 0 182 64.5t123 184.5 t45 279q0 199 -55.5 345.5t-147.5 227.5t-207 81q-102 0 -182 -64.5t-126 -183.5t-46 -279zM461 1479q51 156 100.5 207t112.5 51q61 0 112.5 -28t97.5 -54.5t91 -26.5q35 0 61.5 20.5t55.5 88.5h45q-49 -156 -99.5 -207t-113.5 -51q-61 0 -112.5 26.5t-97.5 54t-91 27.5 q-35 0 -61.5 -20.5t-55.5 -87.5h-45z" />
<glyph unicode="&#xd6;" horiz-adv-x="1615" d="M100 676q0 152 53.5 278.5t148.5 220t224 145.5t281 52t282 -52t225 -145.5t148.5 -220.5t53.5 -278q0 -150 -53.5 -278t-148.5 -221t-225 -145t-282 -52t-281 52t-224 145t-148.5 221t-53.5 278zM426 741q0 -199 55.5 -346t149.5 -228t209 -81q104 0 182 64.5t123 184.5 t45 279q0 199 -55.5 345.5t-147.5 227.5t-207 81q-102 0 -182 -64.5t-126 -183.5t-46 -279zM477 1608q0 51 33 86t86 35q51 0 85 -35t34 -86q0 -49 -34 -84t-85 -35q-53 0 -86 35t-33 84zM883 1608q0 51 33 86t86 35q51 0 85 -35t34 -86q0 -49 -34 -84t-85 -35q-53 0 -86 35 t-33 84z" />
<glyph unicode="&#xd7;" d="M193 260l299 299l-299 297l81 86l299 -301l301 301l82 -86l-299 -297l299 -299l-82 -84l-301 299l-299 -299z" />
<glyph unicode="&#xd8;" horiz-adv-x="1615" d="M100 -20l189 208q-88 92 -138.5 217t-50.5 271q0 152 53.5 278.5t148.5 220t224 145.5t281 52q125 0 234.5 -34.5t197.5 -100.5l121 135h156l-191 -209q90 -92 140.5 -217t50.5 -270q0 -150 -53.5 -278t-148.5 -221t-225.5 -145t-281.5 -52q-125 0 -233.5 34.5 t-196.5 100.5l-123 -135h-154zM426 741q0 -98 14.5 -183t40.5 -159l602 668q-55 96 -134 148.5t-169 52.5q-102 0 -182 -64.5t-126 -183.5t-46 -279zM532 287q57 -96 136.5 -148.5t171.5 -52.5q104 0 182 64.5t123 184.5t45 279q0 96 -14.5 181.5t-38.5 156.5z" />
<glyph unicode="&#xd9;" horiz-adv-x="1716" d="M90 1319v33h662v-33l-177 -84v-655q0 -170 52.5 -267.5t141.5 -138.5t198 -41q90 0 167.5 37t125 119t47.5 219v731l-193 80v33h512v-33l-176 -82v-655q0 -221 -73.5 -353.5t-205 -190.5t-305.5 -58q-178 0 -313 58t-211 190t-76 354v653zM543 1714v51h264l150 -311h-47z " />
<glyph unicode="&#xda;" horiz-adv-x="1716" d="M90 1319v33h662v-33l-177 -84v-655q0 -170 52.5 -267.5t141.5 -138.5t198 -41q90 0 167.5 37t125 119t47.5 219v731l-193 80v33h512v-33l-176 -82v-655q0 -221 -73.5 -353.5t-205 -190.5t-305.5 -58q-178 0 -313 58t-211 190t-76 354v653zM911 1454l152 311h262v-51 l-365 -260h-49z" />
<glyph unicode="&#xdb;" horiz-adv-x="1716" d="M90 1319v33h662v-33l-177 -84v-655q0 -170 52.5 -267.5t141.5 -138.5t198 -41q90 0 167.5 37t125 119t47.5 219v731l-193 80v33h512v-33l-176 -82v-655q0 -221 -73.5 -353.5t-205 -190.5t-305.5 -58q-178 0 -313 58t-211 190t-76 354v653zM606 1454l281 311h96l279 -311 h-45l-283 131l-283 -131h-45z" />
<glyph unicode="&#xdc;" horiz-adv-x="1716" d="M90 1319v33h662v-33l-177 -84v-655q0 -170 52.5 -267.5t141.5 -138.5t198 -41q90 0 167.5 37t125 119t47.5 219v731l-193 80v33h512v-33l-176 -82v-655q0 -221 -73.5 -353.5t-205 -190.5t-305.5 -58q-178 0 -313 58t-211 190t-76 354v653zM614 1608q0 51 33 86t86 35 q51 0 85 -35t34 -86q0 -49 -34 -84t-85 -35q-53 0 -86 35t-33 84zM1020 1608q0 51 33 86t86 35q51 0 85 -35t34 -86q0 -49 -34 -84t-85 -35q-53 0 -86 35t-33 84z" />
<glyph unicode="&#xdd;" horiz-adv-x="1544" d="M41 1319v33h633v-33l-154 -76v-8l357 -483l319 479v8l-158 80v33h467v-33l-137 -68l-432 -618v-516l182 -84v-33h-676v33l185 84v514l-449 610zM827 1454l152 311h262v-51l-365 -260h-49z" />
<glyph unicode="&#xde;" horiz-adv-x="1400" d="M90 0v33l174 84v1118l-174 84v33h658v-33l-175 -84v-145h226q242 0 388 -87.5t146 -277.5q0 -117 -76.5 -203t-209 -134t-297.5 -48h-177v-223l175 -84v-33h-658zM573 438h101q160 0 253 76t93 193q0 141 -94.5 205.5t-266.5 64.5h-86v-539z" />
<glyph unicode="&#xdf;" horiz-adv-x="1378" d="M59 838v96h160v49q0 104 37 202.5t108.5 178.5t175 126t234.5 46q205 0 303.5 -80t98.5 -190q0 -70 -29 -119t-70 -87t-83 -74t-70.5 -79t-28.5 -104q0 -49 33 -84t87 -68t120 -80q109 -76 143.5 -141t34.5 -147q0 -88 -49.5 -156t-130 -107.5t-177.5 -39.5 q-102 0 -173.5 19t-141.5 54v238h31l71 -107q33 -51 82 -81.5t109 -30.5q70 0 110.5 35.5t40.5 95.5q0 53 -30.5 89t-82.5 66.5t-118 69.5q-68 43 -115 99.5t-47 154.5q0 68 22.5 115t56.5 87t67.5 85t57.5 105.5t24 148.5q0 94 -47.5 155.5t-141.5 61.5q-127 0 -175 -89 t-48 -241v-1110h-418v33l129 65v740h-160z" />
<glyph unicode="&#xe0;" horiz-adv-x="1054" d="M70 213q0 74 26.5 127t96 92t196.5 70l203 51v127q0 78 -45 123t-117 45q-29 0 -56.5 -5t-56.5 -20v-209h-161q-37 0 -50.5 17.5t-13.5 58.5q0 61 59.5 122.5t155.5 101.5t207 40q166 0 266.5 -66.5t100.5 -195.5v-540q14 -14 38.5 -23.5t59.5 -9.5h59l6 -6v-29 q-23 -39 -77 -71.5t-140 -32.5t-141 36.5t-82 104.5h-12q-57 -68 -129 -103.5t-154 -35.5q-109 0 -174 64.5t-65 166.5zM111 1403v45h260l154 -363h-45zM340 274q0 -63 36 -96t99 -33q55 0 117 25v301q-104 -23 -159.5 -50.5t-74 -63.5t-18.5 -83z" />
<glyph unicode="&#xe1;" horiz-adv-x="1054" d="M70 213q0 74 26.5 127t96 92t196.5 70l203 51v127q0 78 -45 123t-117 45q-29 0 -56.5 -5t-56.5 -20v-209h-161q-37 0 -50.5 17.5t-13.5 58.5q0 61 59.5 122.5t155.5 101.5t207 40q166 0 266.5 -66.5t100.5 -195.5v-540q14 -14 38.5 -23.5t59.5 -9.5h59l6 -6v-29 q-23 -39 -77 -71.5t-140 -32.5t-141 36.5t-82 104.5h-12q-57 -68 -129 -103.5t-154 -35.5q-109 0 -174 64.5t-65 166.5zM340 274q0 -63 36 -96t99 -33q55 0 117 25v301q-104 -23 -159.5 -50.5t-74 -63.5t-18.5 -83zM481 1085l154 363h262v-45l-371 -318h-45z" />
<glyph unicode="&#xe2;" horiz-adv-x="1054" d="M70 213q0 74 26.5 127t96 92t196.5 70l203 51v127q0 78 -45 123t-117 45q-29 0 -56.5 -5t-56.5 -20v-209h-161q-37 0 -50.5 17.5t-13.5 58.5q0 61 59.5 122.5t155.5 101.5t207 40q166 0 266.5 -66.5t100.5 -195.5v-540q14 -14 38.5 -23.5t59.5 -9.5h59l6 -6v-29 q-23 -39 -77 -71.5t-140 -32.5t-141 36.5t-82 104.5h-12q-57 -68 -129 -103.5t-154 -35.5q-109 0 -174 64.5t-65 166.5zM174 1085l281 363h96l279 -363h-45l-283 172l-283 -172h-45zM340 274q0 -63 36 -96t99 -33q55 0 117 25v301q-104 -23 -159.5 -50.5t-74 -63.5 t-18.5 -83z" />
<glyph unicode="&#xe3;" horiz-adv-x="1054" d="M70 213q0 74 26.5 127t96 92t196.5 70l203 51v127q0 78 -45 123t-117 45q-29 0 -56.5 -5t-56.5 -20v-209h-161q-37 0 -50.5 17.5t-13.5 58.5q0 61 59.5 122.5t155.5 101.5t207 40q166 0 266.5 -66.5t100.5 -195.5v-540q14 -14 38.5 -23.5t59.5 -9.5h59l6 -6v-29 q-23 -39 -77 -71.5t-140 -32.5t-141 36.5t-82 104.5h-12q-57 -68 -129 -103.5t-154 -35.5q-109 0 -174 64.5t-65 166.5zM164 1126q41 121 74 181.5t66.5 79t78.5 18.5q57 0 107.5 -32t95.5 -63.5t86 -31.5q37 0 63.5 23.5t59.5 103.5h45q-41 -121 -74 -181.5t-66.5 -79 t-78.5 -18.5q-57 0 -107.5 32t-95.5 63.5t-86 31.5q-37 0 -63.5 -23.5t-59.5 -103.5h-45zM340 274q0 -63 36 -96t99 -33q55 0 117 25v301q-104 -23 -159.5 -50.5t-74 -63.5t-18.5 -83z" />
<glyph unicode="&#xe4;" horiz-adv-x="1054" d="M70 213q0 74 26.5 127t96 92t196.5 70l203 51v127q0 78 -45 123t-117 45q-29 0 -56.5 -5t-56.5 -20v-209h-161q-37 0 -50.5 17.5t-13.5 58.5q0 61 59.5 122.5t155.5 101.5t207 40q166 0 266.5 -66.5t100.5 -195.5v-540q14 -14 38.5 -23.5t59.5 -9.5h59l6 -6v-29 q-23 -39 -77 -71.5t-140 -32.5t-141 36.5t-82 104.5h-12q-57 -68 -129 -103.5t-154 -35.5q-109 0 -174 64.5t-65 166.5zM180 1264q0 49 33 83.5t86 34.5q51 0 85 -34.5t34 -83.5t-34 -84t-85 -35q-53 0 -86 34.5t-33 84.5zM340 274q0 -63 36 -96t99 -33q55 0 117 25v301 q-104 -23 -159.5 -50.5t-74 -63.5t-18.5 -83zM586 1264q0 49 33 83.5t86 34.5q51 0 85 -34.5t34 -83.5t-34 -84t-85 -35q-53 0 -86 34.5t-33 84.5z" />
<glyph unicode="&#xe5;" horiz-adv-x="1054" d="M70 213q0 74 26.5 127t96 92t196.5 70l203 51v127q0 78 -45 123t-117 45q-29 0 -56.5 -5t-56.5 -20v-209h-161q-37 0 -50.5 17.5t-13.5 58.5q0 61 59.5 122.5t155.5 101.5t207 40q166 0 266.5 -66.5t100.5 -195.5v-540q14 -14 38.5 -23.5t59.5 -9.5h59l6 -6v-29 q-23 -39 -77 -71.5t-140 -32.5t-141 36.5t-82 104.5h-12q-57 -68 -129 -103.5t-154 -35.5q-109 0 -174 64.5t-65 166.5zM320 1266q0 74 51 124t131 50t131 -50.5t51 -123.5q0 -74 -50 -124t-132 -50q-80 0 -131 49t-51 125zM340 274q0 -63 36 -96t99 -33q55 0 117 25v301 q-104 -23 -159.5 -50.5t-74 -63.5t-18.5 -83zM432 1278q0 -135 78 -135q61 0 62 110q0 136 -78 136q-29 0 -45.5 -26t-16.5 -85z" />
<glyph unicode="&#xe6;" horiz-adv-x="1531" d="M70 217q0 74 28.5 126t100 91t200.5 72l195 47v127q0 78 -45 123t-119 45q-29 0 -55.5 -5t-57.5 -20v-209h-161q-37 0 -49.5 17.5t-12.5 58.5q0 61 59.5 122.5t156 101.5t204.5 40q201 0 295 -94q61 45 135 69.5t156 24.5q166 0 258 -110.5t94 -313.5l-8 -10h-572v-10 q0 -86 32 -156.5t102.5 -111.5t183.5 -41q59 0 123.5 14t134.5 49h6v-33q-51 -109 -156.5 -180t-246.5 -71q-127 0 -223.5 45t-153.5 129h-17q-57 -74 -144 -123t-202 -49q-100 0 -170.5 60t-70.5 175zM340 274q0 -63 37 -96t100 -33q45 0 87 14.5t83 35.5q-53 100 -53 231 v45q-102 -23 -157.5 -49.5t-76 -62.5t-20.5 -85zM877 612h348q-16 141 -59 195.5t-113 54.5q-72 0 -117 -65.5t-59 -184.5z" />
<glyph unicode="&#xe7;" horiz-adv-x="991" d="M78 424q0 160 69.5 278.5t190.5 185t274 66.5q106 0 174 -33.5t101 -75.5t33 -69q0 -33 -35 -57l-86 -70l-195 217h-20q-111 0 -171.5 -95t-60.5 -234q0 -156 78 -246t225 -90q57 0 123 14t135 49h7v-33q-45 -96 -132.5 -164.5t-205.5 -82.5l-33 -72q117 -35 164 -85 t47 -130q0 -82 -58.5 -135.5t-156.5 -53.5q-106 0 -166 50v39h8q25 -12 54.5 -18.5t60.5 -6.5q115 0 114 80q0 43 -40.5 73.5t-161.5 63.5l88 191q-127 4 -222.5 60t-148.5 154.5t-53 229.5z" />
<glyph unicode="&#xe8;" horiz-adv-x="1015" d="M78 424q0 156 67.5 275.5t183 187t255.5 67.5q166 0 258 -110.5t94 -313.5l-8 -10h-574v-10q0 -86 33 -156.5t102.5 -111.5t184.5 -41q57 0 122.5 14t135.5 49h6v-33q-51 -109 -157 -180t-249 -71q-211 0 -332.5 121.5t-121.5 322.5zM154 1403v45h260l154 -363h-45z M360 612h347q-14 141 -57 195.5t-113 54.5q-72 0 -117 -65.5t-60 -184.5z" />
<glyph unicode="&#xe9;" horiz-adv-x="1015" d="M78 424q0 156 67.5 275.5t183 187t255.5 67.5q166 0 258 -110.5t94 -313.5l-8 -10h-574v-10q0 -86 33 -156.5t102.5 -111.5t184.5 -41q57 0 122.5 14t135.5 49h6v-33q-51 -109 -157 -180t-249 -71q-211 0 -332.5 121.5t-121.5 322.5zM360 612h347q-14 141 -57 195.5 t-113 54.5q-72 0 -117 -65.5t-60 -184.5zM526 1085l154 363h262v-45l-371 -318h-45z" />
<glyph unicode="&#xea;" horiz-adv-x="1015" d="M78 424q0 156 67.5 275.5t183 187t255.5 67.5q166 0 258 -110.5t94 -313.5l-8 -10h-574v-10q0 -86 33 -156.5t102.5 -111.5t184.5 -41q57 0 122.5 14t135.5 49h6v-33q-51 -109 -157 -180t-249 -71q-211 0 -332.5 121.5t-121.5 322.5zM217 1085l281 363h96l279 -363h-45 l-283 172l-283 -172h-45zM360 612h347q-14 141 -57 195.5t-113 54.5q-72 0 -117 -65.5t-60 -184.5z" />
<glyph unicode="&#xeb;" horiz-adv-x="1015" d="M78 424q0 156 67.5 275.5t183 187t255.5 67.5q166 0 258 -110.5t94 -313.5l-8 -10h-574v-10q0 -86 33 -156.5t102.5 -111.5t184.5 -41q57 0 122.5 14t135.5 49h6v-33q-51 -109 -157 -180t-249 -71q-211 0 -332.5 121.5t-121.5 322.5zM223 1264q0 49 33 83.5t86 34.5 q51 0 85 -34.5t34 -83.5t-34 -84t-85 -35q-53 0 -86 34.5t-33 84.5zM360 612h347q-14 141 -57 195.5t-113 54.5q-72 0 -117 -65.5t-60 -184.5zM629 1264q0 49 33 83.5t86 34.5q51 0 85 -34.5t34 -83.5t-34 -84t-85 -35q-53 0 -86 34.5t-33 84.5z" />
<glyph unicode="&#xec;" horiz-adv-x="681" d="M-51 1403v45h260l154 -363h-45zM68 0v33l137 65v623l-131 96v25l395 112h25v-856l120 -65v-33h-546z" />
<glyph unicode="&#xed;" horiz-adv-x="681" d="M68 0v33l137 65v623l-131 96v25l395 112h25v-856l120 -65v-33h-546zM321 1085l154 363h262v-45l-371 -318h-45z" />
<glyph unicode="&#xee;" horiz-adv-x="681" d="M14 1085l281 363h96l279 -363h-45l-283 172l-283 -172h-45zM68 0v33l137 65v623l-131 96v25l395 112h25v-856l120 -65v-33h-546z" />
<glyph unicode="&#xef;" horiz-adv-x="681" d="M20 1264q0 49 33 83.5t86 34.5q51 0 85 -34.5t34 -83.5t-34 -84t-85 -35q-53 0 -86 34.5t-33 84.5zM68 0v33l137 65v623l-131 96v25l395 112h25v-856l120 -65v-33h-546zM426 1264q0 49 33 83.5t86 34.5q51 0 85 -34.5t34 -83.5t-34 -84t-85 -35q-53 0 -86 34.5t-33 84.5z " />
<glyph unicode="&#xf0;" horiz-adv-x="1130" d="M72 459q0 150 65.5 261t178 172.5t249.5 61.5q39 0 71 -3t58 -9q-51 150 -149 260l-144 -131h-149l219 203q-123 109 -303 172v88q221 -53 403 -168l164 152h150l-228 -211q188 -141 295 -341t107 -429q0 -168 -64.5 -293t-177.5 -194.5t-258 -69.5q-141 0 -251.5 63 t-173 172t-62.5 244zM367 473q0 -168 51 -280.5t153 -112.5q86 0 135.5 110.5t49.5 356.5q0 102 -13 192q-37 51 -76.5 81t-103.5 30q-96 0 -146 -95.5t-50 -281.5z" />
<glyph unicode="&#xf1;" horiz-adv-x="1265" d="M63 0v33l138 65v623l-131 84v24l372 125h25l20 -151h9q74 72 143.5 111.5t163.5 39.5q125 0 203.5 -63.5t78.5 -188.5v-604l138 -65v-33h-529v33l103 65v520q0 72 -41 110t-107 38q-39 0 -85 -14.5t-77 -38.5v-615l105 -65v-33h-529zM305 1126q41 121 74 181.5t66.5 79 t78.5 18.5q57 0 107.5 -32t95.5 -63.5t86 -31.5q37 0 63.5 23.5t59.5 103.5h45q-41 -121 -74 -181.5t-66.5 -79t-78.5 -18.5q-57 0 -107.5 32t-95.5 63.5t-86 31.5q-37 0 -63.5 -23.5t-59.5 -103.5h-45z" />
<glyph unicode="&#xf2;" horiz-adv-x="1120" d="M72 467q0 135 61.5 245.5t172 176t255.5 65.5t255 -65.5t171.5 -176t61.5 -245.5q0 -133 -61.5 -243.5t-171.5 -177t-255 -66.5t-255.5 66.5t-172 177t-61.5 243.5zM166 1403v45h260l154 -363h-45zM367 510q0 -113 22.5 -210t70.5 -158.5t124 -61.5q59 0 96 48t55.5 127 t18.5 171q0 113 -21.5 211t-69 158.5t-120.5 60.5q-61 0 -100.5 -48t-57.5 -127t-18 -171z" />
<glyph unicode="&#xf3;" horiz-adv-x="1120" d="M72 467q0 135 61.5 245.5t172 176t255.5 65.5t255 -65.5t171.5 -176t61.5 -245.5q0 -133 -61.5 -243.5t-171.5 -177t-255 -66.5t-255.5 66.5t-172 177t-61.5 243.5zM367 510q0 -113 22.5 -210t70.5 -158.5t124 -61.5q59 0 96 48t55.5 127t18.5 171q0 113 -21.5 211 t-69 158.5t-120.5 60.5q-61 0 -100.5 -48t-57.5 -127t-18 -171zM538 1085l154 363h262v-45l-371 -318h-45z" />
<glyph unicode="&#xf4;" horiz-adv-x="1120" d="M72 467q0 135 61.5 245.5t172 176t255.5 65.5t255 -65.5t171.5 -176t61.5 -245.5q0 -133 -61.5 -243.5t-171.5 -177t-255 -66.5t-255.5 66.5t-172 177t-61.5 243.5zM229 1085l281 363h96l279 -363h-45l-283 172l-283 -172h-45zM367 510q0 -113 22.5 -210t70.5 -158.5 t124 -61.5q59 0 96 48t55.5 127t18.5 171q0 113 -21.5 211t-69 158.5t-120.5 60.5q-61 0 -100.5 -48t-57.5 -127t-18 -171z" />
<glyph unicode="&#xf5;" horiz-adv-x="1120" d="M72 467q0 135 61.5 245.5t172 176t255.5 65.5t255 -65.5t171.5 -176t61.5 -245.5q0 -133 -61.5 -243.5t-171.5 -177t-255 -66.5t-255.5 66.5t-172 177t-61.5 243.5zM219 1126q41 121 74 181.5t66.5 79t78.5 18.5q57 0 107.5 -32t95.5 -63.5t86 -31.5q37 0 63.5 23.5 t59.5 103.5h45q-41 -121 -74 -181.5t-66.5 -79t-78.5 -18.5q-57 0 -107.5 32t-95.5 63.5t-86 31.5q-37 0 -63.5 -23.5t-59.5 -103.5h-45zM367 510q0 -113 22.5 -210t70.5 -158.5t124 -61.5q59 0 96 48t55.5 127t18.5 171q0 113 -21.5 211t-69 158.5t-120.5 60.5 q-61 0 -100.5 -48t-57.5 -127t-18 -171z" />
<glyph unicode="&#xf6;" horiz-adv-x="1120" d="M72 467q0 135 61.5 245.5t172 176t255.5 65.5t255 -65.5t171.5 -176t61.5 -245.5q0 -133 -61.5 -243.5t-171.5 -177t-255 -66.5t-255.5 66.5t-172 177t-61.5 243.5zM235 1264q0 49 33 83.5t86 34.5q51 0 85 -34.5t34 -83.5t-34 -84t-85 -35q-53 0 -86 34.5t-33 84.5z M367 510q0 -113 22.5 -210t70.5 -158.5t124 -61.5q59 0 96 48t55.5 127t18.5 171q0 113 -21.5 211t-69 158.5t-120.5 60.5q-61 0 -100.5 -48t-57.5 -127t-18 -171zM641 1264q0 49 33 83.5t86 34.5q51 0 85 -34.5t34 -83.5t-34 -84t-85 -35q-53 0 -86 34.5t-33 84.5z" />
<glyph unicode="&#xf7;" d="M143 502v110h861v-110h-861zM502 127v141h143v-141h-143zM502 846v141h143v-141h-143z" />
<glyph unicode="&#xf8;" horiz-adv-x="1120" d="M72 -20l129 149q-61 68 -95 154t-34 184q0 135 61.5 245.5t172 176t255.5 65.5q80 0 149.5 -21.5t129.5 -58.5l67 80h142l-127 -149q59 -66 93 -153t34 -185q0 -133 -61.5 -243.5t-171 -177t-255.5 -66.5q-82 0 -151.5 21.5t-126.5 59.5l-70 -81h-141zM367 510 q0 -90 14 -170l326 379q-27 61 -67 99t-97 38q-61 0 -100.5 -48t-57.5 -127t-18 -171zM416 217q27 -61 68 -99t100 -38t96 48t55.5 128t18.5 170t-15 168z" />
<glyph unicode="&#xf9;" horiz-adv-x="1208" d="M31 901v33h424v-619q0 -72 41 -109.5t104 -37.5q39 0 83 14.5t73 38.5v615l-123 65v33h411v-838l130 -63v-33h-418v131h-8q-72 -72 -141 -111.5t-161 -39.5q-123 0 -201.5 63t-78.5 188v605zM209 1403v45h260l154 -363h-45z" />
<glyph unicode="&#xfa;" horiz-adv-x="1208" d="M31 901v33h424v-619q0 -72 41 -109.5t104 -37.5q39 0 83 14.5t73 38.5v615l-123 65v33h411v-838l130 -63v-33h-418v131h-8q-72 -72 -141 -111.5t-161 -39.5q-123 0 -201.5 63t-78.5 188v605zM581 1085l154 363h262v-45l-371 -318h-45z" />
<glyph unicode="&#xfb;" horiz-adv-x="1208" d="M31 901v33h424v-619q0 -72 41 -109.5t104 -37.5q39 0 83 14.5t73 38.5v615l-123 65v33h411v-838l130 -63v-33h-418v131h-8q-72 -72 -141 -111.5t-161 -39.5q-123 0 -201.5 63t-78.5 188v605zM274 1085l281 363h96l279 -363h-45l-283 172l-283 -172h-45z" />
<glyph unicode="&#xfc;" horiz-adv-x="1208" d="M31 901v33h424v-619q0 -72 41 -109.5t104 -37.5q39 0 83 14.5t73 38.5v615l-123 65v33h411v-838l130 -63v-33h-418v131h-8q-72 -72 -141 -111.5t-161 -39.5q-123 0 -201.5 63t-78.5 188v605zM280 1264q0 49 33 83.5t86 34.5q51 0 85 -34.5t34 -83.5t-34 -84t-85 -35 q-53 0 -86 34.5t-33 84.5zM686 1264q0 49 33 83.5t86 34.5q51 0 85 -34.5t34 -83.5t-34 -84t-85 -35q-53 0 -86 34.5t-33 84.5z" />
<glyph unicode="&#xfd;" horiz-adv-x="974" d="M-74 901v33h566v-33l-127 -59v-6l225 -474h14l174 465v9l-121 65v33h392v-33l-146 -67l-430 -1047q-47 -115 -88 -175.5t-88 -83t-113 -22.5q-47 0 -65.5 16.5t-18.5 65.5v129h222q29 35 55 85.5t61 136.5l23 55l-408 852zM555 1085l154 363h262v-45l-371 -318h-45z" />
<glyph unicode="&#xfe;" horiz-adv-x="1200" d="M63 -438l138 65v1676l-131 96v24l385 113h32v-700h15q143 119 293 118q90 0 168.5 -54t126 -154.5t47.5 -239.5q0 -164 -65.5 -282t-174.5 -181t-235 -63q-47 0 -90.5 4t-84.5 14v-371l160 -65v-33h-584v33zM487 154q59 -68 162 -68q49 0 95.5 30.5t76 108.5t29.5 221 q0 174 -69.5 257t-155.5 83q-37 0 -69 -10t-69 -31v-591z" />
<glyph unicode="&#xff;" horiz-adv-x="974" d="M-74 901v33h566v-33l-127 -59v-6l225 -474h14l174 465v9l-121 65v33h392v-33l-146 -67l-430 -1047q-47 -115 -88 -175.5t-88 -83t-113 -22.5q-47 0 -65.5 16.5t-18.5 65.5v129h222q29 35 55 85.5t61 136.5l23 55l-408 852zM251 1264q0 49 33 83.5t86 34.5q51 0 85 -34.5 t34 -83.5t-34 -84t-85 -35q-53 0 -86 34.5t-33 84.5zM657 1264q0 49 33 83.5t86 34.5q51 0 85 -34.5t34 -83.5t-34 -84t-85 -35q-53 0 -86 34.5t-33 84.5z" />
<glyph unicode="&#x152;" horiz-adv-x="2131" d="M100 653q0 211 100.5 369t275.5 244t401 86h1091v-355h-33l-151 242h-449v-485h316l114 176h33v-461h-33l-114 172h-316v-528h498l160 305h32v-418h-1163q-242 0 -411.5 80t-260 226.5t-90.5 346.5zM420 690q0 -264 129 -420.5t381 -156.5h96v1126h-119 q-233 0 -360 -148.5t-127 -400.5z" />
<glyph unicode="&#x153;" horiz-adv-x="1710" d="M72 467q0 135 61.5 245.5t172 176t255.5 65.5q111 0 203 -40t156 -109q70 70 162 109.5t196 39.5q166 0 258 -110.5t94 -313.5l-8 -10h-571l-2 -10q0 -86 32.5 -156.5t102 -111.5t184.5 -41q59 0 123.5 14t134.5 49h6v-33q-51 -109 -156.5 -180t-248.5 -71 q-106 0 -191.5 32.5t-142.5 91.5q-63 -59 -147.5 -91.5t-184.5 -32.5q-145 0 -255.5 66.5t-172 177t-61.5 243.5zM367 510q0 -111 22.5 -209t70.5 -159.5t124 -61.5q59 0 96 48t55.5 128t18.5 170q0 113 -21.5 210t-69 158.5t-120.5 61.5q-61 0 -100.5 -48t-57.5 -127 t-18 -171zM1055 612h348q-16 141 -59 195.5t-113 54.5q-72 0 -117 -65.5t-59 -184.5z" />
<glyph unicode="&#x178;" horiz-adv-x="1544" d="M41 1319v33h633v-33l-154 -76v-8l357 -483l319 479v8l-158 80v33h467v-33l-137 -68l-432 -618v-516l182 -84v-33h-676v33l185 84v514l-449 610zM530 1608q0 51 33 86t86 35q51 0 85 -35t34 -86q0 -49 -34 -84t-85 -35q-53 0 -86 35t-33 84zM936 1608q0 51 33 86t86 35 q51 0 85 -35t34 -86q0 -49 -34 -84t-85 -35q-53 0 -86 35t-33 84z" />
<glyph unicode="&#x2c6;" horiz-adv-x="821" d="M84 1085l281 363h96l279 -363h-45l-283 172l-283 -172h-45z" />
<glyph unicode="&#x2dc;" horiz-adv-x="841" d="M84 1126q41 121 74 181.5t66.5 79t78.5 18.5q57 0 107.5 -32t95.5 -63.5t86 -31.5q37 0 63.5 23.5t59.5 103.5h45q-41 -121 -74 -181.5t-66.5 -79t-78.5 -18.5q-57 0 -107.5 32t-95.5 63.5t-86 31.5q-37 0 -63.5 -23.5t-59.5 -103.5h-45z" />
<glyph unicode="&#x2000;" horiz-adv-x="921" />
<glyph unicode="&#x2001;" horiz-adv-x="1843" />
<glyph unicode="&#x2002;" horiz-adv-x="921" />
<glyph unicode="&#x2003;" horiz-adv-x="1843" />
<glyph unicode="&#x2004;" horiz-adv-x="614" />
<glyph unicode="&#x2005;" horiz-adv-x="460" />
<glyph unicode="&#x2006;" horiz-adv-x="307" />
<glyph unicode="&#x2007;" horiz-adv-x="307" />
<glyph unicode="&#x2008;" horiz-adv-x="230" />
<glyph unicode="&#x2009;" horiz-adv-x="368" />
<glyph unicode="&#x200a;" horiz-adv-x="102" />
<glyph unicode="&#x2010;" horiz-adv-x="755" d="M96 455v143h563v-143h-563z" />
<glyph unicode="&#x2011;" horiz-adv-x="755" d="M96 455v143h563v-143h-563z" />
<glyph unicode="&#x2012;" horiz-adv-x="755" d="M96 455v143h563v-143h-563z" />
<glyph unicode="&#x2013;" horiz-adv-x="1024" d="M96 506v102h832v-102h-832z" />
<glyph unicode="&#x2014;" horiz-adv-x="2048" d="M96 506v102h1856v-102h-1856z" />
<glyph unicode="&#x2018;" horiz-adv-x="495" d="M25 995v58l378 475h54l-162 -533h-270z" />
<glyph unicode="&#x2019;" horiz-adv-x="495" d="M41 983l160 533h270v-58l-379 -475h-51z" />
<glyph unicode="&#x201a;" horiz-adv-x="495" d="M41 -389l160 533h270v-58l-379 -475h-51z" />
<glyph unicode="&#x201c;" horiz-adv-x="892" d="M25 995v58l378 475h54l-162 -533h-270zM422 995v58l378 475h54l-162 -533h-270z" />
<glyph unicode="&#x201d;" horiz-adv-x="892" d="M41 983l160 533h270v-58l-379 -475h-51zM438 983l160 533h270v-58l-379 -475h-51z" />
<glyph unicode="&#x201e;" horiz-adv-x="892" d="M41 -389l160 533h270v-58l-379 -475h-51zM438 -389l160 533h270v-58l-379 -475h-51z" />
<glyph unicode="&#x2022;" horiz-adv-x="1024" d="M262 557q0 109 70.5 178.5t179.5 69.5q104 0 176 -69.5t72 -178.5q0 -106 -72 -178t-176 -72q-109 0 -179.5 72t-70.5 178z" />
<glyph unicode="&#x2026;" horiz-adv-x="1519" d="M123 141q0 63 45 108.5t106 45.5t106.5 -45t45.5 -109q0 -61 -45.5 -106t-106.5 -45t-106 45t-45 106zM608 141q0 63 45 108.5t106 45.5t106.5 -45t45.5 -109q0 -61 -45.5 -106t-106.5 -45t-106 45t-45 106zM1092 141q0 63 45 108.5t106 45.5t106.5 -45t45.5 -109 q0 -61 -45.5 -106t-106.5 -45t-106 45t-45 106z" />
<glyph unicode="&#x202f;" horiz-adv-x="368" />
<glyph unicode="&#x2039;" horiz-adv-x="561" d="M53 506l416 362h39l-217 -362l217 -363h-39z" />
<glyph unicode="&#x203a;" horiz-adv-x="561" d="M53 143l217 363l-217 362h39l416 -362l-416 -363h-39z" />
<glyph unicode="&#x205f;" horiz-adv-x="460" />
<glyph unicode="&#x20ac;" d="M57 487v86h154q-2 37 -2 76q0 76 10 146h-162v84h176q49 227 192.5 360t350.5 133q86 0 149.5 -24.5t97.5 -62.5t34 -75q0 -14 -6.5 -26.5t-24.5 -26.5l-92 -80l-172 199q-10 2 -21 2q-96 0 -157.5 -96.5t-77.5 -302.5h393v-84h-397v-60q0 -88 8 -162h389v-86h-375 q61 -291 305 -290q61 0 119 21.5t105 60.5h6v-80q-51 -100 -146.5 -159.5t-220.5 -59.5q-199 0 -320.5 137t-152.5 370h-162z" />
<glyph unicode="&#x2122;" horiz-adv-x="1509" d="M117 1186v166h501v-166h-10l-59 119h-123v-433l76 -30v-13h-269v13l82 30v433h-125l-59 -119h-14zM674 829v13l61 30l15 437l-66 30v13h190l160 -371l160 371h184v-13l-67 -30l14 -437l55 -30v-13h-225v13l57 30l-8 379l-182 -426h-43l-180 420l-11 -373l66 -30v-13h-180 z" />
<glyph unicode="&#x25fc;" horiz-adv-x="931" d="M0 0v932h932v-932h-932z" />
</font>
</defs>
</svg>
